<svg width="32" height="32" viewBox="0 0 32 32" fill="none" xmlns="http://www.w3.org/2000/svg">
  <path d="M9.11382 25.7287C10.2338 25.7287 13.0243 24.5061 14.6109 23.3675C14.7696 23.2555 14.9002 23.2088 15.0309 23.2088C15.1522 23.2182 15.2736 23.2275 15.3949 23.2275C22.124 23.2275 26.5851 19.401 26.5851 14.7532C26.5851 10.0587 21.8813 6.26953 16.0015 6.26953C10.1218 6.26953 5.41797 10.0587 5.41797 14.7532C5.41797 17.7397 7.25656 20.3623 10.2524 21.9676C10.3924 22.0422 10.4391 22.1822 10.3644 22.3222C9.84179 23.1808 8.90849 24.2075 8.55384 24.6741C8.18986 25.1408 8.39518 25.7287 9.11382 25.7287Z" fill="#090909"/>
  </svg>
  