<svg width="16" height="17" viewBox="0 0 16 17" fill="none" xmlns="http://www.w3.org/2000/svg">
<path d="M8 2C6.71442 2 5.45772 2.38122 4.3888 3.09545C3.31988 3.80968 2.48676 4.82484 1.99479 6.01256C1.50282 7.20028 1.37409 8.50721 1.6249 9.76809C1.8757 11.029 2.49477 12.1872 3.40381 13.0962C4.31285 14.0052 5.47104 14.6243 6.73192 14.8751C7.99279 15.1259 9.29973 14.9972 10.4874 14.5052C11.6752 14.0132 12.6903 13.1801 13.4046 12.1112C14.1188 11.0423 14.5 9.78558 14.5 8.5C14.4967 6.77711 13.8108 5.12573 12.5925 3.90746C11.3743 2.68918 9.72289 2.0033 8 2ZM7.5 5.5C7.5 5.36739 7.55268 5.24021 7.64645 5.14645C7.74022 5.05268 7.86739 5 8 5C8.13261 5 8.25979 5.05268 8.35356 5.14645C8.44732 5.24021 8.5 5.36739 8.5 5.5V9C8.5 9.13261 8.44732 9.25979 8.35356 9.35355C8.25979 9.44732 8.13261 9.5 8 9.5C7.86739 9.5 7.74022 9.44732 7.64645 9.35355C7.55268 9.25979 7.5 9.13261 7.5 9V5.5ZM8 12C7.85167 12 7.70666 11.956 7.58333 11.8736C7.45999 11.7912 7.36386 11.6741 7.30709 11.537C7.25033 11.4 7.23548 11.2492 7.26441 11.1037C7.29335 10.9582 7.36478 10.8246 7.46967 10.7197C7.57456 10.6148 7.7082 10.5434 7.85368 10.5144C7.99917 10.4855 8.14997 10.5003 8.28701 10.5571C8.42406 10.6139 8.54119 10.71 8.6236 10.8333C8.70602 10.9567 8.75 11.1017 8.75 11.25C8.75 11.4489 8.67098 11.6397 8.53033 11.7803C8.38968 11.921 8.19892 12 8 12Z" fill="#AA2020"/>
</svg>
