<svg width="20" height="20" viewBox="0 0 20 20" fill="none" xmlns="http://www.w3.org/2000/svg">
  <path d="M10.0027 18.5988C10.2323 18.5988 10.453 18.5724 10.6913 18.5547L11.1945 19.5258C11.2916 19.72 11.4858 19.8259 11.733 19.7906C11.9537 19.7465 12.1038 19.5876 12.1391 19.3492L12.2892 18.281C12.7306 18.1663 13.1631 17.9985 13.5781 17.8132L14.3726 18.5282C14.5403 18.6871 14.7522 18.7224 14.9729 18.5988C15.1671 18.4929 15.2465 18.281 15.2024 18.0515L14.9817 16.9922C15.3525 16.7361 15.7144 16.4448 16.041 16.1182L17.0209 16.5331C17.2416 16.6214 17.4535 16.5772 17.6212 16.3742C17.7713 16.2153 17.789 15.9858 17.6566 15.7916L17.0827 14.8735C17.3476 14.5027 17.5594 14.1054 17.7625 13.6817L18.8483 13.7347C19.0778 13.7435 19.2632 13.6199 19.3427 13.3992C19.4133 13.1785 19.3515 12.9666 19.1661 12.8254L18.3186 12.1545C18.4334 11.7307 18.5217 11.2717 18.5658 10.795L19.581 10.4771C19.8106 10.3977 19.943 10.23 19.943 9.99161C19.943 9.76209 19.8106 9.59436 19.581 9.5149L18.5658 9.18827C18.5217 8.71156 18.4334 8.27017 18.3186 7.8376L19.1661 7.15785C19.3427 7.02543 19.4133 6.82239 19.3427 6.60169C19.2632 6.38099 19.0778 6.2574 18.8483 6.26623L17.7625 6.31037C17.5594 5.88663 17.3476 5.48937 17.0827 5.1186L17.6566 4.20049C17.7801 4.01511 17.7625 3.78558 17.6212 3.62668C17.4535 3.42364 17.2416 3.37067 17.0209 3.46778L16.041 3.86503C15.7144 3.55606 15.3525 3.25591 14.9817 2.9999L15.2024 1.94937C15.2465 1.71102 15.1671 1.49915 14.9729 1.39321C14.7522 1.27845 14.5403 1.29611 14.3726 1.47267L13.5781 2.17007C13.1631 1.98469 12.7306 1.83461 12.2892 1.71102L12.1391 0.642842C12.1038 0.413316 11.9449 0.245585 11.7242 0.210273C11.4858 0.174962 11.2916 0.272069 11.1945 0.466283L10.6913 1.43735C10.453 1.4197 10.2323 1.40204 10.0027 1.40204C9.76439 1.40204 9.55252 1.4197 9.31416 1.43735L8.80214 0.466283C8.70504 0.272069 8.51082 0.174962 8.27247 0.210273C8.05177 0.245585 7.89287 0.413316 7.86638 0.642842L7.70748 1.70219C7.26609 1.83461 6.84235 1.98469 6.4186 2.17007L5.62409 1.47267C5.45636 1.29611 5.24449 1.27845 5.02379 1.39321C4.82958 1.49915 4.75013 1.71102 4.79427 1.94937L5.01497 2.9999C4.65302 3.25591 4.28225 3.55606 3.95561 3.86503L2.97571 3.46778C2.75502 3.37067 2.55197 3.42364 2.38424 3.62668C2.23417 3.78558 2.21651 4.01511 2.3401 4.19167L2.91392 5.1186C2.65791 5.48937 2.43721 5.88663 2.23417 6.31037L1.15716 6.26623C0.927637 6.2574 0.733422 6.38099 0.653971 6.60169C0.583347 6.82239 0.645143 7.02543 0.830529 7.15785L1.67801 7.8376C1.56325 8.27017 1.47497 8.71156 1.44848 9.18827L0.415617 9.5149C0.186091 9.58553 0.0625 9.75326 0.0625 9.99161C0.0625 10.23 0.186091 10.3977 0.415617 10.4771L1.44848 10.8038C1.47497 11.2717 1.56325 11.7307 1.67801 12.1545L0.830529 12.8254C0.653971 12.9666 0.592175 13.1785 0.653971 13.3992C0.733422 13.6199 0.927637 13.7435 1.15716 13.7347L2.23417 13.6817C2.43721 14.1054 2.65791 14.5027 2.91392 14.8735L2.3401 15.7916C2.21651 15.9858 2.23417 16.2153 2.38424 16.3742C2.55197 16.5772 2.75502 16.6214 2.97571 16.5331L3.95561 16.1182C4.28225 16.4448 4.65302 16.7361 5.01497 16.9922L4.79427 18.0515C4.75013 18.281 4.82958 18.4929 5.02379 18.5988C5.24449 18.7224 5.45636 18.6871 5.62409 18.5282L6.4186 17.8132C6.84235 17.9985 7.26609 18.1663 7.70748 18.281L7.86638 19.3492C7.89287 19.5876 8.05177 19.7465 8.27247 19.7906C8.51082 19.8259 8.70504 19.72 8.80214 19.5258L9.31416 18.5547C9.54369 18.5724 9.76439 18.5988 10.0027 18.5988ZM12.2186 9.43545C11.8125 8.32313 10.9915 7.71401 9.98509 7.71401C9.82618 7.71401 9.65845 7.73166 9.36713 7.79346L6.83352 3.46778C7.78693 2.9999 8.85511 2.74389 10.0027 2.74389C13.8517 2.74389 16.8709 5.66593 17.1534 9.43545H12.2186ZM2.83447 10.0004C2.83447 7.54628 3.99975 5.38344 5.81831 4.0769L8.3784 8.42907C7.89287 8.92343 7.67217 9.46194 7.67217 10.0358C7.67217 10.5919 7.88404 11.1039 8.36958 11.6159L5.76534 15.8887C3.97327 14.5733 2.83447 12.4369 2.83447 10.0004ZM8.92574 10.0269C8.92574 9.42663 9.42893 8.95875 10.0027 8.95875C10.5942 8.95875 11.0886 9.42663 11.0886 10.0269C11.0886 10.6184 10.5942 11.1039 10.0027 11.1039C9.42893 11.1039 8.92574 10.6184 8.92574 10.0269ZM10.0027 17.257C8.82863 17.257 7.73397 16.9833 6.77172 16.5066L9.36713 12.2604C9.6408 12.331 9.82618 12.3487 9.98509 12.3487C11.0003 12.3487 11.8213 11.7219 12.2186 10.5831H17.1445C16.862 14.335 13.8517 17.257 10.0027 17.257Z" fill="#090909"/>
  </svg>
  