<svg width="48" height="48" viewBox="0 0 48 48" fill="none" xmlns="http://www.w3.org/2000/svg">
  <path d="M23.6512 40.8852C24.0865 40.8852 24.505 40.835 24.957 40.8015L25.9113 42.643C26.0954 43.0113 26.4637 43.2122 26.9325 43.1453C27.351 43.0615 27.6356 42.7602 27.7026 42.3082L27.9872 40.2825C28.8242 40.0649 29.6445 39.7468 30.4314 39.3953L31.9381 40.7513C32.2561 41.0526 32.6579 41.1196 33.0765 40.8852C33.4448 40.6843 33.5954 40.2825 33.5117 39.8473L33.0932 37.8383C33.7963 37.3528 34.4827 36.8004 35.1021 36.181L36.9604 36.9678C37.3789 37.1352 37.7807 37.0515 38.0988 36.6665C38.3834 36.3651 38.4169 35.9298 38.1657 35.5615L37.0776 33.8205C37.5798 33.1173 37.9816 32.364 38.3666 31.5604L40.4258 31.6609C40.861 31.6776 41.2126 31.4432 41.3633 31.0247C41.4972 30.6062 41.38 30.2044 41.0285 29.9365L39.4213 28.6642C39.639 27.8607 39.8064 26.9901 39.8901 26.0861L41.8153 25.4834C42.2506 25.3328 42.5017 25.0147 42.5017 24.5627C42.5017 24.1274 42.2506 23.8093 41.8153 23.6586L39.8901 23.0392C39.8064 22.1352 39.639 21.2982 39.4213 20.4778L41.0285 19.1888C41.3633 18.9377 41.4972 18.5526 41.3633 18.1341C41.2126 17.7156 40.861 17.4812 40.4258 17.4979L38.3666 17.5816C37.9816 16.7781 37.5798 16.0247 37.0776 15.3216L38.1657 13.5805C38.4001 13.229 38.3666 12.7937 38.0988 12.4924C37.7807 12.1073 37.3789 12.0069 36.9604 12.191L35.1021 12.9444C34.4827 12.3584 33.7963 11.7892 33.0932 11.3037L33.5117 9.31155C33.5954 8.85954 33.4448 8.45775 33.0765 8.25686C32.6579 8.03923 32.2561 8.07271 31.9381 8.40753L30.4314 9.73007C29.6445 9.37851 28.8242 9.09391 27.9872 8.85954L27.7026 6.83387C27.6356 6.3986 27.3343 6.08052 26.9157 6.01356C26.4637 5.94659 26.0954 6.13074 25.9113 6.49905L24.957 8.34056C24.505 8.30708 24.0865 8.2736 23.6512 8.2736C23.1992 8.2736 22.7974 8.30708 22.3454 8.34056L21.3744 6.49905C21.1903 6.13074 20.822 5.94659 20.37 6.01356C19.9515 6.08052 19.6501 6.3986 19.5999 6.83387L19.2985 8.8428C18.4615 9.09391 17.6579 9.37851 16.8544 9.73007L15.3477 8.40753C15.0296 8.07271 14.6278 8.03923 14.2093 8.25686C13.841 8.45775 13.6903 8.85954 13.774 9.31155L14.1925 11.3037C13.5061 11.7892 12.803 12.3584 12.1836 12.9444L10.3253 12.191C9.90681 12.0069 9.52176 12.1073 9.20368 12.4924C8.91909 12.7937 8.8856 13.229 9.11998 13.5638L10.2081 15.3216C9.72266 16.0247 9.30413 16.7781 8.91909 17.5816L6.87667 17.4979C6.44141 17.4812 6.0731 17.7156 5.92243 18.1341C5.7885 18.5526 5.90569 18.9377 6.25725 19.1888L7.8644 20.4778C7.64676 21.2982 7.47935 22.1352 7.42913 23.0392L5.47042 23.6586C5.03516 23.7926 4.80078 24.1107 4.80078 24.5627C4.80078 25.0147 5.03516 25.3328 5.47042 25.4834L7.42913 26.1028C7.47935 26.9901 7.64676 27.8607 7.8644 28.6642L6.25725 29.9365C5.92243 30.2044 5.80525 30.6062 5.92243 31.0247C6.0731 31.4432 6.44141 31.6776 6.87667 31.6609L8.91909 31.5604C9.30413 32.364 9.72266 33.1173 10.2081 33.8205L9.11998 35.5615C8.8856 35.9298 8.91909 36.3651 9.20368 36.6665C9.52176 37.0515 9.90681 37.1352 10.3253 36.9678L12.1836 36.181C12.803 36.8004 13.5061 37.3528 14.1925 37.8383L13.774 39.8473C13.6903 40.2825 13.841 40.6843 14.2093 40.8852C14.6278 41.1196 15.0296 41.0526 15.3477 40.7513L16.8544 39.3953C17.6579 39.7468 18.4615 40.0649 19.2985 40.2825L19.5999 42.3082C19.6501 42.7602 19.9515 43.0615 20.37 43.1453C20.822 43.2122 21.1903 43.0113 21.3744 42.643L22.3454 40.8015C22.7807 40.835 23.1992 40.8852 23.6512 40.8852ZM27.8532 23.508C27.0831 21.3986 25.5262 20.2435 23.6177 20.2435C23.3164 20.2435 22.9983 20.2769 22.4459 20.3941L17.6412 12.191C19.4492 11.3037 21.4749 10.8182 23.6512 10.8182C30.9503 10.8182 36.6758 16.3595 37.2115 23.508H27.8532ZM10.0575 24.5794C10.0575 19.9254 12.2673 15.8238 15.716 13.3461L20.5709 21.5995C19.6501 22.537 19.2316 23.5582 19.2316 24.6464C19.2316 25.7011 19.6334 26.672 20.5541 27.643L15.6155 35.7457C12.2171 33.2513 10.0575 29.1999 10.0575 24.5794ZM21.6088 24.6296C21.6088 23.4912 22.5631 22.604 23.6512 22.604C24.7729 22.604 25.7104 23.4912 25.7104 24.6296C25.7104 25.7513 24.7729 26.672 23.6512 26.672C22.5631 26.672 21.6088 25.7513 21.6088 24.6296ZM23.6512 38.3406C21.4247 38.3406 19.3488 37.8216 17.524 36.9176L22.4459 28.8651C22.9648 28.999 23.3164 29.0325 23.6177 29.0325C25.543 29.0325 27.0999 27.8439 27.8532 25.6843H37.1948C36.659 32.7993 30.9503 38.3406 23.6512 38.3406Z" fill="#090909"/>
  </svg>
  