<svg width="16" height="15" viewBox="0 0 16 15" fill="none" xmlns="http://www.w3.org/2000/svg">
  <path d="M5.32422 3.15234C5.32422 4.34766 6.10352 5.36719 7.18164 5.71875V9.35156C7.18164 10.5176 7.70312 11.6309 8.01953 11.6309C8.33008 11.6309 8.8457 10.5176 8.8457 9.35156V5.71875C9.92969 5.37305 10.709 4.34766 10.709 3.15234C10.709 1.66406 9.51367 0.445312 8.01953 0.445312C6.52539 0.445312 5.32422 1.66406 5.32422 3.15234ZM7.26367 3.31641C6.77734 3.31641 6.34375 2.88281 6.34375 2.39062C6.34375 1.88672 6.77734 1.46484 7.26367 1.46484C7.77344 1.46484 8.18359 1.88672 8.18359 2.39062C8.18359 2.88281 7.77344 3.31641 7.26367 3.31641ZM8.00195 14.4082C12.291 14.4082 15.0801 13.0547 15.0801 11.1738C15.0801 9.50977 12.7656 8.29688 9.95898 8.0332V9.62109C11.7578 9.79688 13.2988 10.377 13.2988 11.1328C13.2988 12.1406 11.0957 12.7969 8.00195 12.7969C4.9082 12.7969 2.71094 12.1406 2.71094 11.1328C2.71094 10.377 4.25195 9.79688 6.04492 9.62109V8.0332C3.24414 8.29688 0.929688 9.50977 0.929688 11.1738C0.929688 13.0547 3.71875 14.4082 8.00195 14.4082Z" fill="#090909"/>
  </svg>
  