<svg width="24" height="24" viewBox="0 0 24 24" fill="none" xmlns="http://www.w3.org/2000/svg">
  <path d="M12.125 4C10.518 4 8.94714 4.47652 7.611 5.36931C6.27485 6.2621 5.23344 7.53105 4.61848 9.0157C4.00352 10.5003 3.84262 12.134 4.15612 13.7101C4.46963 15.2862 5.24346 16.7339 6.37976 17.8702C7.51606 19.0065 8.9638 19.7804 10.5399 20.0939C12.116 20.4074 13.7497 20.2465 15.2343 19.6315C16.719 19.0166 17.9879 17.9752 18.8807 16.639C19.7735 15.3029 20.25 13.732 20.25 12.125C20.2459 9.97138 19.3885 7.90716 17.8657 6.38432C16.3428 4.86148 14.2786 4.00413 12.125 4ZM15.9922 10.7031L11.4141 15.0781C11.2957 15.1895 11.1391 15.251 10.9766 15.25C10.8971 15.2511 10.8183 15.2365 10.7445 15.207C10.6708 15.1775 10.6036 15.1337 10.5469 15.0781L8.25782 12.8906C8.19433 12.8352 8.14269 12.7676 8.10602 12.6917C8.06934 12.6159 8.04838 12.5334 8.0444 12.4492C8.04042 12.365 8.05349 12.2809 8.08284 12.202C8.11219 12.123 8.15721 12.0508 8.21519 11.9896C8.27316 11.9285 8.3429 11.8797 8.42022 11.8462C8.49753 11.8127 8.58082 11.7952 8.66507 11.7947C8.74933 11.7942 8.83281 11.8107 8.91051 11.8433C8.98821 11.8759 9.05851 11.9239 9.11719 11.9844L10.9766 13.7578L15.1328 9.79688C15.2543 9.69085 15.4121 9.63591 15.5732 9.64353C15.7343 9.65115 15.8862 9.72075 15.9972 9.83777C16.1082 9.9548 16.1696 10.1102 16.1687 10.2715C16.1678 10.4327 16.1045 10.5874 15.9922 10.7031Z" fill="#E0E0E0"/>
  </svg>
  