<svg width="32" height="32" viewBox="0 0 32 32" fill="none" xmlns="http://www.w3.org/2000/svg">
  <path d="M26.4677 10.0986C26.1264 9.29655 25.6342 8.56975 25.0187 7.95886C24.4028 7.34616 23.6766 6.85925 22.8796 6.52462C22.0532 6.17624 21.1668 5.99793 20.2719 6.00002C19.0164 6.00002 17.7915 6.34889 16.727 7.00787C16.4724 7.1655 16.2305 7.33865 16.0013 7.5273C15.7721 7.33865 15.5301 7.1655 15.2755 7.00787C14.211 6.34889 12.9861 6.00002 11.7306 6.00002C10.8266 6.00002 9.95057 6.17575 9.12293 6.52462C8.3233 6.86057 7.60261 7.34382 6.98379 7.95886C6.36751 8.56906 5.87521 9.29604 5.53478 10.0986C5.18081 10.9333 5 11.8197 5 12.7319C5 13.5925 5.17317 14.4892 5.51696 15.4014C5.80472 16.1638 6.21727 16.9546 6.74441 17.7531C7.57969 19.0168 8.7282 20.3347 10.1543 21.6708C12.5175 23.8855 14.8578 25.4153 14.9572 25.4773L15.5607 25.8701C15.8281 26.0433 16.1719 26.0433 16.4393 25.8701L17.0428 25.4773C17.1421 25.4127 19.4799 23.8855 21.8457 21.6708C23.2718 20.3347 24.4203 19.0168 25.2556 17.7531C25.7827 16.9546 26.1978 16.1638 26.483 15.4014C26.8268 14.4892 27 13.5925 27 12.7319C27.0025 11.8197 26.8217 10.9333 26.4677 10.0986ZM16.0013 23.826C16.0013 23.826 6.93541 17.9314 6.93541 12.7319C6.93541 10.0986 9.08218 7.96403 11.7306 7.96403C13.5922 7.96403 15.2067 9.0184 16.0013 10.5586C16.7958 9.0184 18.4103 7.96403 20.2719 7.96403C22.9203 7.96403 25.0671 10.0986 25.0671 12.7319C25.0671 17.9314 16.0013 23.826 16.0013 23.826Z" fill="#FE7B5E"/>
  <path d="M16.0013 23.826C16.0013 23.826 6.93541 17.9314 6.93541 12.7319C6.93541 10.0986 9.08218 7.96403 11.7306 7.96403C13.5922 7.96403 15.2067 9.0184 16.0013 10.5586C16.7958 9.0184 18.4103 7.96403 20.2719 7.96403C22.9203 7.96403 25.0671 10.0986 25.0671 12.7319C25.0671 17.9314 16.0013 23.826 16.0013 23.826Z" fill="#FE7B5E"/>
  <defs>
  <linearGradient id="paint0_linear_9880_8093" x1="24.9999" y1="0" x2="24.9999" y2="14" gradientUnits="userSpaceOnUse">
  <stop stop-color="#E5ADFF"/>
  <stop offset="0.0001" stop-color="#E5ADFF"/>
  <stop offset="1" stop-color="#FF7650"/>
  </linearGradient>
  </defs>
  </svg>
  