<svg width="16" height="16" viewBox="0 0 16 16" fill="none" xmlns="http://www.w3.org/2000/svg">
  <path d="M1.53516 6.1237C1.53516 8.89714 3.85938 11.625 7.53125 13.9688C7.66797 14.0534 7.86328 14.1445 8 14.1445C8.13672 14.1445 8.33203 14.0534 8.47526 13.9688C12.1406 11.625 14.4648 8.89714 14.4648 6.1237C14.4648 3.81901 12.8828 2.19141 10.7734 2.19141C9.56901 2.19141 8.59245 2.76432 8 3.64323C7.42057 2.77083 6.43099 2.19141 5.22656 2.19141C3.11719 2.19141 1.53516 3.81901 1.53516 6.1237ZM2.58333 6.1237C2.58333 4.39193 3.70312 3.23958 5.21354 3.23958C6.4375 3.23958 7.14062 4.0013 7.55729 4.65234C7.73307 4.91276 7.84375 4.98438 8 4.98438C8.15625 4.98438 8.25391 4.90625 8.44271 4.65234C8.89193 4.01432 9.56901 3.23958 10.7865 3.23958C12.2969 3.23958 13.4167 4.39193 13.4167 6.1237C13.4167 8.54557 10.8581 11.1562 8.13672 12.9661C8.07161 13.0117 8.02604 13.0443 8 13.0443C7.97396 13.0443 7.92839 13.0117 7.86979 12.9661C5.14193 11.1562 2.58333 8.54557 2.58333 6.1237Z" fill="#F9F9F9"/>
  </svg>
  