<svg width="27" height="26" viewBox="0 0 27 26" fill="none" xmlns="http://www.w3.org/2000/svg">
  <path d="M22.1734 11.1313L14.0484 3.74766C13.8987 3.61063 13.703 3.53464 13.5 3.53464C13.297 3.53464 13.1013 3.61063 12.9516 3.74766L4.82656 11.1313C4.7448 11.2085 4.67932 11.3013 4.63397 11.4042C4.58862 11.5071 4.56432 11.618 4.5625 11.7305V21.125C4.5625 21.3405 4.6481 21.5472 4.80048 21.6995C4.95285 21.8519 5.15951 21.9375 5.375 21.9375H21.625C21.8405 21.9375 22.0472 21.8519 22.1995 21.6995C22.3519 21.5472 22.4375 21.3405 22.4375 21.125V11.7305C22.4357 11.618 22.4114 11.5071 22.366 11.4042C22.3207 11.3013 22.2552 11.2085 22.1734 11.1313Z" fill="#4D4D82" stroke="#4D4D82" stroke-width="3" stroke-linecap="round" stroke-linejoin="round"/>
  </svg>
  