<svg width="16" height="16" viewBox="0 0 16 16" fill="none" xmlns="http://www.w3.org/2000/svg">
<path fill-rule="evenodd" clip-rule="evenodd" d="M4.80751 0.89661C4.55185 0.926142 4.38172 0.973192 4.18898 1.06767C3.867 1.22549 3.56962 1.53648 3.42875 1.86271C3.41593 1.8924 3.40472 1.91779 3.40383 1.91915C3.40295 1.92051 3.36161 1.93234 3.31198 1.94543C2.73096 2.09875 2.2786 2.55838 2.13821 3.13806L2.12995 3.17218L2.0324 3.19511C1.71473 3.26977 1.44978 3.41942 1.22883 3.64899C0.978584 3.909 0.846292 4.17367 0.779017 4.54893C0.755953 4.6776 0.755953 13.5772 0.779017 13.7059C0.848409 14.0929 1.00017 14.3869 1.25943 14.6364C1.51944 14.8867 1.78412 15.019 2.15937 15.0862C2.28805 15.1093 11.1876 15.1093 11.3163 15.0862C11.432 15.0655 11.5476 15.0352 11.6425 15.0009C12.1448 14.8191 12.5393 14.3773 12.6659 13.8548L12.6741 13.8206L12.7717 13.7977C12.9659 13.7521 13.1575 13.6706 13.3051 13.5709C13.5667 13.3941 13.7843 13.1382 13.8993 12.8718C13.9121 12.8421 13.9233 12.8167 13.9242 12.8154C13.9251 12.814 13.9664 12.8022 14.0161 12.7891C14.2453 12.7286 14.4617 12.6199 14.6252 12.4831C14.958 12.2046 15.1424 11.884 15.2206 11.4476C15.2437 11.3189 15.2437 2.41932 15.2206 2.29065C15.1534 1.91539 15.0211 1.65072 14.7708 1.39071C14.5225 1.1327 14.2355 0.983869 13.8447 0.910434C13.7698 0.896369 13.5468 0.895597 9.29917 0.894684C6.84246 0.894161 4.82121 0.895024 4.80751 0.89661ZM13.7701 1.57515C14.1694 1.67191 14.4716 1.97735 14.5561 2.36956C14.5707 2.43695 14.5713 2.61566 14.5713 6.86912C14.5713 11.1226 14.5707 11.3013 14.5561 11.3687C14.5003 11.6277 14.334 11.8713 14.1146 12.0151L14.0482 12.0587L14.044 7.71415L14.0399 3.36962L14.021 3.27195C13.9704 3.00978 13.8714 2.78196 13.7207 2.58088C13.4303 2.19342 13.0053 1.94713 12.5395 1.89641C12.484 1.89035 11.1792 1.88762 8.33879 1.88762H4.21866L4.25986 1.84508C4.40464 1.69559 4.63867 1.58359 4.85318 1.56115C4.86916 1.55948 6.86799 1.55855 9.29501 1.55908C13.5297 1.56002 13.7103 1.56067 13.7701 1.57515ZM12.5745 2.57145C12.9738 2.66821 13.2761 2.97365 13.3606 3.36586C13.3751 3.43325 13.3757 3.61196 13.3757 7.86542C13.3757 12.1189 13.3751 12.2976 13.3606 12.365C13.2953 12.668 13.0959 12.9266 12.817 13.0698C12.7712 13.0933 12.7296 13.1126 12.7247 13.1126C12.7184 13.1126 12.7152 11.8904 12.7136 8.86795C12.7114 4.83694 12.7106 4.61933 12.6965 4.54454C12.6253 4.1655 12.4959 3.90775 12.2469 3.64899C11.9985 3.39098 11.7115 3.24212 11.3207 3.16872C11.2459 3.15467 11.03 3.15382 7.04228 3.15169L2.84262 3.14944L2.87727 3.08517C3.03198 2.79826 3.33874 2.59082 3.65762 2.55745C3.6736 2.55578 5.67243 2.55485 8.09945 2.55538C12.3341 2.55632 12.5147 2.55697 12.5745 2.57145ZM11.2461 3.83343C11.6418 3.92931 11.9359 4.22347 12.0318 4.61914C12.0463 4.67886 12.047 4.862 12.0495 9.07759C12.0513 12.2189 12.0494 13.4939 12.043 13.5443C12.0313 13.6349 11.9866 13.7689 11.9362 13.864C11.8785 13.9729 11.7868 14.1111 11.775 14.1066C11.7646 14.1026 7.89455 12.9732 5.29776 12.2162C3.60409 11.7226 3.72274 11.7519 3.61945 11.8012C3.54969 11.8345 3.49091 11.8951 3.45192 11.974L3.421 12.0365L3.41624 12.805C3.41193 13.5002 3.41008 13.5793 3.3968 13.6357C3.3039 14.0299 2.99647 14.3357 2.60735 14.4208C2.51627 14.4408 2.32482 14.4408 2.23374 14.4208C1.84093 14.3349 1.52841 14.0209 1.44352 13.627C1.42899 13.5596 1.4284 13.3809 1.4284 9.1274C1.4284 4.87394 1.42899 4.69523 1.44352 4.62784C1.53596 4.19889 1.90281 3.86405 2.32922 3.81943C2.3452 3.81776 4.34403 3.81683 6.77105 3.81736C11.0057 3.8183 11.1863 3.81895 11.2461 3.83343ZM3.28401 5.79812C3.14393 5.82197 3.10468 5.85139 3.02958 5.98883C2.94111 6.15073 2.94054 6.15309 2.93701 6.37113L2.93399 6.55809L3.21989 7.03948C3.61566 7.70581 3.72609 7.88075 3.89856 8.1145C4.34526 8.7199 4.64562 9.15231 4.64562 9.19002C4.64562 9.19512 4.5902 9.29615 4.52246 9.4145C4.2582 9.87623 4.09278 10.1988 4.03527 10.3646C3.98185 10.5185 3.98988 10.6298 4.06557 10.7845C4.08995 10.8343 4.1442 10.9069 4.17106 10.9257C4.22338 10.9623 4.40112 11.0466 4.45051 11.0583C4.56183 11.0845 4.70941 11.0644 4.82714 11.0069C4.92444 10.9594 5.09395 10.7831 5.09395 10.7295C5.09395 10.7 5.33192 10.262 5.64855 9.70862C5.94156 9.19652 6.17828 8.70055 6.66004 7.58938C6.86006 7.12803 6.91663 7.00458 6.97867 6.89403C7.04107 6.78282 7.11313 6.62984 7.17031 6.48721C7.21215 6.38283 7.21519 6.37056 7.21451 6.3087C7.21367 6.23207 7.19652 6.16759 7.1549 6.08453C7.1001 5.97517 7.07083 5.94635 6.94757 5.88036C6.80102 5.8019 6.77984 5.79563 6.65897 5.79494C6.32186 5.793 6.11986 6.00115 5.97906 6.49555C5.95085 6.59463 5.9242 6.72569 5.9242 6.76536C5.9242 6.7756 5.89581 6.84516 5.86112 6.91995C5.81214 7.02552 5.2628 8.15375 5.25634 8.16203C5.25554 8.16305 5.21156 8.10327 5.15863 8.02919C4.99974 7.80684 4.9253 7.68493 4.74938 7.35897C4.40876 6.72783 4.00856 6.07534 3.90404 5.98075C3.79785 5.88464 3.69057 5.82427 3.58705 5.80237C3.52538 5.78934 3.35003 5.78687 3.28401 5.79812ZM8.99197 7.32703C8.71337 7.34915 8.41766 7.43973 8.21251 7.56579C7.95106 7.72646 7.70057 8.0076 7.54928 8.31016C7.30359 8.80149 7.25052 9.44556 7.41503 9.93923C7.50131 10.1981 7.62417 10.3949 7.81851 10.5855C8.05084 10.8132 8.30665 10.9395 8.63497 10.9884C8.78889 11.0114 9.07756 11.0004 9.2452 10.9653C9.89545 10.8291 10.4131 10.283 10.5564 9.58211C10.615 9.2957 10.62 8.91268 10.5686 8.65001C10.5216 8.41001 10.4233 8.16245 10.2767 7.91506C10.176 7.74503 10.0377 7.60553 9.87204 7.50673C9.61018 7.35057 9.3541 7.29828 8.99197 7.32703ZM9.21555 8.3729C9.37603 8.42559 9.47289 8.57211 9.51094 8.81972C9.52497 8.91105 9.51721 9.27453 9.49906 9.37692C9.46909 9.54584 9.37399 9.70599 9.22456 9.83917C9.09827 9.95173 8.91792 9.99714 8.72286 9.96549C8.49842 9.92907 8.34842 9.68224 8.34855 9.34955C8.34876 8.85429 8.56822 8.45652 8.88819 8.37146C8.997 8.34253 9.12475 8.3431 9.21555 8.3729ZM5.45926 12.9793C6.20586 13.1949 7.63867 13.6084 8.64327 13.8981C9.64787 14.1879 10.4792 14.4283 10.4906 14.4323C10.5027 14.4366 9.10479 14.44 7.12943 14.4403L3.74753 14.441L3.77629 14.4016C3.89922 14.233 4.00723 13.9852 4.04676 13.781C4.07627 13.6285 4.08103 13.526 4.08104 13.0432C4.08105 12.6756 4.0832 12.5803 4.09142 12.5834C4.09714 12.5856 4.71266 12.7637 5.45926 12.9793Z" fill="#B4B4B4"/>
</svg>
