<svg width="26" height="26" viewBox="0 0 26 26" fill="none" xmlns="http://www.w3.org/2000/svg">
  <path d="M13 22.75C18.3848 22.75 22.75 18.3848 22.75 13C22.75 7.61522 18.3848 3.25 13 3.25C7.61522 3.25 3.25 7.61522 3.25 13C3.25 18.3848 7.61522 22.75 13 22.75Z" stroke="#E3C6BB" stroke-width="1.5" stroke-linecap="round" stroke-linejoin="round"/>
  <path d="M13 19.2969C13.5609 19.2969 14.0156 18.8422 14.0156 18.2812C14.0156 17.7203 13.5609 17.2656 13 17.2656C12.4391 17.2656 11.9844 17.7203 11.9844 18.2812C11.9844 18.8422 12.4391 19.2969 13 19.2969Z" fill="#E3C6BB"/>
  <path d="M13 14.625V13.8125C13.5624 13.8125 14.1123 13.6457 14.5799 13.3332C15.0476 13.0208 15.412 12.5766 15.6273 12.057C15.8425 11.5374 15.8988 10.9656 15.7891 10.414C15.6794 9.86233 15.4085 9.35562 15.0108 8.95792C14.6131 8.56021 14.1064 8.28937 13.5548 8.17964C13.0032 8.06992 12.4314 8.12623 11.9117 8.34147C11.3921 8.55671 10.948 8.9212 10.6355 9.38885C10.323 9.8565 10.1562 10.4063 10.1562 10.9688" stroke="#E3C6BB" stroke-width="1.5" stroke-linecap="round" stroke-linejoin="round"/>
  </svg>
  