<svg width="16" height="17" viewBox="0 0 16 17" fill="none" xmlns="http://www.w3.org/2000/svg">
  <path d="M7.52266 1.34549C7.67233 0.884837 8.32404 0.884836 8.47371 1.34549L9.90656 5.75532C9.97349 5.96133 10.1655 6.10081 10.3821 6.10081H15.0189C15.5032 6.10081 15.7046 6.72062 15.3127 7.00532L11.5615 9.73075C11.3863 9.85807 11.3129 10.0838 11.3799 10.2898L12.8127 14.6996C12.9624 15.1602 12.4352 15.5433 12.0433 15.2586L8.29208 12.5332C8.11684 12.4059 7.87954 12.4059 7.70429 12.5332L3.95307 15.2586C3.56121 15.5433 3.03397 15.1602 3.18365 14.6996L4.61649 10.2898C4.68343 10.0838 4.6101 9.85807 4.43485 9.73075L0.683628 7.00532C0.291772 6.72062 0.493159 6.10081 0.977521 6.10081H5.61429C5.8309 6.10081 6.02288 5.96133 6.08982 5.75532L7.52266 1.34549Z" fill="#E0E0E0"/>
  </svg>
  