<svg width="27" height="26" viewBox="0 0 27 26" fill="none" xmlns="http://www.w3.org/2000/svg">
  <path d="M13.5 23.5625V8.9375" stroke="#4D4D82" stroke-width="3" stroke-linecap="round" stroke-linejoin="round"/>
  <path d="M13.957 18.4031C14.7025 18.9109 15.5454 19.2579 16.4323 19.4222C17.3191 19.5864 18.2304 19.5643 19.1083 19.3573C19.9861 19.1502 20.8112 18.7628 21.5312 18.2195C22.2512 17.6763 22.8502 16.9892 23.2902 16.2018C23.7302 15.4145 24.0015 14.5442 24.0869 13.6464C24.1723 12.7485 24.0699 11.8427 23.7863 10.9865C23.5026 10.1304 23.0438 9.34263 22.4392 8.67339C21.8346 8.00415 21.0973 7.46807 20.2742 7.09923C20.0935 7.00838 19.9499 6.85761 19.868 6.67267C19.3414 5.41834 18.4562 4.34744 17.3233 3.59434C16.1904 2.84124 14.8604 2.43948 13.5 2.43948C12.1396 2.43948 10.8096 2.84124 9.67669 3.59434C8.54381 4.34744 7.65856 5.41834 7.13204 6.67267C7.0501 6.85761 6.90651 7.00838 6.72579 7.09923C5.90272 7.46807 5.16543 8.00415 4.5608 8.67339C3.95616 9.34263 3.49742 10.1304 3.21376 10.9865C2.93009 11.8427 2.8277 12.7485 2.9131 13.6464C2.99851 14.5442 3.26983 15.4145 3.70983 16.2018C4.14982 16.9892 4.74885 17.6763 5.46881 18.2195C6.18878 18.7628 7.01392 19.1502 7.89176 19.3573C8.76959 19.5643 9.68091 19.5864 10.5677 19.4222C11.4546 19.2579 12.2975 18.9109 13.043 18.4031C13.1787 18.314 13.3376 18.2665 13.5 18.2665C13.6624 18.2665 13.8213 18.314 13.957 18.4031Z" fill="#4D4D82" stroke="#4D4D82" stroke-width="3" stroke-linecap="round" stroke-linejoin="round"/>
  <path d="M13.5 15.4375L8.625 13" stroke="#4D4D82" stroke-width="3" stroke-linecap="round" stroke-linejoin="round"/>
  <path d="M13.5 13L18.375 10.5625" stroke="#4D4D82" stroke-width="3" stroke-linecap="round" stroke-linejoin="round"/>
  </svg>
  