<svg width="27" height="26" viewBox="0 0 27 26" fill="none" xmlns="http://www.w3.org/2000/svg">
  <path d="M13.5 23.5625V8.9375" stroke="#A9B7C5" stroke-width="3" stroke-linecap="round" stroke-linejoin="round"/>
  <path d="M13.957 18.4031C14.7025 18.9108 15.5454 19.2579 16.4323 19.4221C17.3191 19.5864 18.2304 19.5643 19.1083 19.3573C19.9861 19.1502 20.8112 18.7628 21.5312 18.2195C22.2512 17.6763 22.8502 16.9891 23.2902 16.2018C23.7302 15.4145 24.0015 14.5442 24.0869 13.6463C24.1723 12.7485 24.0699 11.8427 23.7863 10.9865C23.5026 10.1303 23.0438 9.3426 22.4392 8.67336C21.8346 8.00412 21.0973 7.46804 20.2742 7.0992C20.0935 7.00835 19.9499 6.85758 19.868 6.67264C19.3414 5.41831 18.4562 4.34741 17.3233 3.59431C16.1904 2.84121 14.8604 2.43945 13.5 2.43945C12.1396 2.43945 10.8096 2.84121 9.67669 3.59431C8.54381 4.34741 7.65856 5.41831 7.13204 6.67264C7.0501 6.85758 6.90651 7.00835 6.72578 7.0992C5.90273 7.46804 5.16543 8.00412 4.5608 8.67336C3.95616 9.3426 3.49742 10.1303 3.21376 10.9865C2.93009 11.8427 2.8277 12.7485 2.9131 13.6463C2.99851 14.5442 3.26983 15.4145 3.70983 16.2018C4.14982 16.9891 4.74885 17.6763 5.46881 18.2195C6.18878 18.7628 7.01392 19.1502 7.89175 19.3573C8.76959 19.5643 9.68091 19.5864 10.5677 19.4221C11.4546 19.2579 12.2975 18.9108 13.043 18.4031C13.1787 18.314 13.3376 18.2665 13.5 18.2665C13.6624 18.2665 13.8213 18.314 13.957 18.4031Z" stroke="#A9B7C5" stroke-width="3" stroke-linecap="round" stroke-linejoin="round"/>
  <path d="M13.5 15.4375L8.625 13" stroke="#A9B7C5" stroke-width="3" stroke-linecap="round" stroke-linejoin="round"/>
  <path d="M13.5 13L18.375 10.5625" stroke="#A9B7C5" stroke-width="3" stroke-linecap="round" stroke-linejoin="round"/>
  </svg>
  