<svg width="40" height="40" viewBox="0 0 40 40" fill="none" xmlns="http://www.w3.org/2000/svg">
  <circle cx="20" cy="20" r="20" fill="#5437FF"/>
  <circle cx="20" cy="20" r="19.5" stroke="white" stroke-opacity="0.06"/>
  <path d="M20.0059 17.6696C22.549 17.6696 24.7594 15.3204 24.7594 12.2614C24.7594 9.23915 22.549 7 20.0059 7C17.4629 7 15.2525 9.2881 15.2525 12.2859C15.2525 15.3204 17.451 17.6696 20.0059 17.6696ZM12.0321 29H27.9679C29.2395 29 30 28.3882 30 27.3726C30 24.2158 26.1616 19.8598 19.9941 19.8598C13.8384 19.8598 10 24.2158 10 27.3726C10 28.3882 10.7605 29 12.0321 29Z" fill="#F9F9F9"/>
  </svg>
  