<!-- <svg width="24" height="24" viewBox="0 0 24 24" fill="none" xmlns="http://www.w3.org/2000/svg">
<circle cx="12" cy="12" r="12" fill="black" fill-opacity="0.3"/>
<path d="M15.9375 8.0625L8.0625 15.9375" stroke="white" stroke-width="2" stroke-linecap="round" stroke-linejoin="round"/>
<path d="M15.9375 15.9375L8.0625 8.0625" stroke="white" stroke-width="2" stroke-linecap="round" stroke-linejoin="round"/>
</svg> -->
<svg width="32" height="32" viewBox="0 0 32 32" fill="none" xmlns="http://www.w3.org/2000/svg">
  <path d="M16 28C22.5647 28 28 22.5529 28 16C28 9.43529 22.5529 4 15.9882 4C9.43529 4 4 9.43529 4 16C4 22.5529 9.44706 28 16 28ZM12.0471 20.9412C11.5059 20.9412 11.0824 20.5059 11.0824 19.9647C11.0824 19.7059 11.1765 19.4588 11.3647 19.2824L14.6235 16.0118L11.3647 12.7529C11.1765 12.5647 11.0824 12.3294 11.0824 12.0706C11.0824 11.5176 11.5059 11.1059 12.0471 11.1059C12.3176 11.1059 12.5294 11.2 12.7176 11.3765L16 14.6471L19.3059 11.3647C19.5059 11.1647 19.7176 11.0824 19.9765 11.0824C20.5176 11.0824 20.9529 11.5059 20.9529 12.0471C20.9529 12.3176 20.8706 12.5294 20.6588 12.7412L17.3882 16.0118L20.6471 19.2706C20.8471 19.4471 20.9412 19.6941 20.9412 19.9647C20.9412 20.5059 20.5059 20.9412 19.9529 20.9412C19.6824 20.9412 19.4353 20.8471 19.2588 20.6588L16 17.3882L12.7529 20.6588C12.5647 20.8471 12.3176 20.9412 12.0471 20.9412Z" fill="#090909" fill-opacity="0.3"/>
  </svg>
  