<svg width="37" height="36" viewBox="0 0 37 36" fill="none" xmlns="http://www.w3.org/2000/svg">
<g clip-path="url(#clip0_5347_3220)">
<path d="M27.251 8.00724C27.8984 8.65483 28.7218 9.09789 29.6189 9.28137C30.5161 9.46485 31.4473 9.38065 32.297 9.03924L35.91 12.6502C36.647 13.3902 36.648 14.5882 35.906 15.3302L15.819 35.4052C15.4629 35.7597 14.9809 35.9587 14.4785 35.9587C13.976 35.9587 13.4941 35.7597 13.138 35.4052L9.53198 31.7932C9.87178 30.9431 9.95512 30.0121 9.77172 29.1152C9.58832 28.2183 9.1462 27.3947 8.49998 26.7462C7.85221 26.0989 7.02862 25.656 6.13141 25.4726C5.2342 25.2891 4.30286 25.3731 3.45298 25.7142L1.09398 23.3542C0.917766 23.1784 0.777962 22.9695 0.682574 22.7396C0.587186 22.5097 0.538086 22.2632 0.538086 22.0142C0.538086 21.7653 0.587186 21.5188 0.682574 21.2889C0.777962 21.0589 0.917766 20.8501 1.09398 20.6742L21.178 0.596243C21.3538 0.42007 21.5627 0.280337 21.7926 0.185059C22.0225 0.0897803 22.269 0.0408303 22.5179 0.0410162C22.7668 0.041202 23.0132 0.0905199 23.243 0.186142C23.4728 0.281763 23.6814 0.421807 23.857 0.598243L26.218 2.95924C25.8768 3.80935 25.7928 4.74094 25.9764 5.63836C26.1601 6.53578 26.6033 7.3595 27.251 8.00724Z" fill="#EA596E"/>
<path d="M5.92015 18.5272L3.77115 20.6752C3.41608 21.0306 3.21638 21.5122 3.21582 22.0146C3.21526 22.517 3.41388 22.999 3.76815 23.3552L4.31015 23.8962C5.27231 23.6375 6.28568 23.637 7.24811 23.8947C8.21054 24.1524 9.08803 24.6593 9.79215 25.3642C10.4967 26.0683 11.0033 26.9457 11.2608 27.9079C11.5184 28.8702 11.5178 29.8833 11.2591 30.8452L13.1371 32.7282C13.4933 33.0832 13.9757 33.2824 14.4786 33.282C14.9814 33.2817 15.4636 33.0818 15.8191 32.7262L18.0081 30.5392L5.92015 18.5272ZM19.4411 29.1072L29.5991 18.9552L17.5081 6.94321L7.35415 17.0952L19.4411 29.1072ZM21.4311 15.1142C23.6761 17.3422 24.1761 20.4702 22.5521 22.1032C20.9251 23.7382 17.7901 23.2542 15.5511 21.0282C13.3121 18.8002 12.8131 15.6702 14.4371 14.0372C16.0621 12.4072 19.1921 12.8872 21.4311 15.1142ZM33.2311 12.6502L31.3501 10.7692C30.3878 11.0279 29.3743 11.0284 28.4117 10.7707C27.4491 10.513 26.5715 10.0061 25.8671 9.30121C25.1615 8.59711 24.6541 7.71937 24.396 6.75654C24.1379 5.79371 24.1383 4.77984 24.3971 3.81721L23.8561 3.27121C23.4998 2.91804 23.0182 2.72014 22.5165 2.7207C22.0148 2.72127 21.5337 2.92024 21.1781 3.27421L18.9421 5.51021L31.0341 17.5212L33.2301 15.3262C33.9701 14.5892 33.9701 13.3902 33.2311 12.6502Z" fill="#BE1931"/>
</g>
<defs>
<clipPath id="clip0_5347_3220">
<rect width="36" height="36" fill="white" transform="translate(0.5)"/>
</clipPath>
</defs>
</svg>
