<svg width="26" height="26" viewBox="0 0 26 26" fill="none" xmlns="http://www.w3.org/2000/svg">
  <path d="M13 2.27002C5.82039 2.27002 0 7.25913 0 13.4125C0 14.1824 0.091 14.9342 0.265056 15.66C1.54989 17.8707 2.43894 16.4754 6.5 14.4445C10.6362 12.3761 6.5 17.3334 5.05556 20.2223C4.61139 21.1106 4.85189 21.8625 5.46 22.4785C7.58767 23.7814 10.1862 24.5556 13 24.5556C20.1796 24.5556 26 19.5672 26 13.4125C26 7.25913 20.1796 2.27002 13 2.27002ZM15.0576 19.9262C14.7723 20.8983 13.2809 21.3157 11.726 20.8586C10.1711 20.4021 9.14189 19.2451 9.42717 18.2723C9.71244 17.3002 11.2038 16.8827 12.7588 17.3406C14.3137 17.7964 15.3429 18.9534 15.0576 19.9262Z" fill="#D99E82"/>
  <path d="M7.22233 10.1112C8.41895 10.1112 9.389 9.14112 9.389 7.9445C9.389 6.74788 8.41895 5.77783 7.22233 5.77783C6.02571 5.77783 5.05566 6.74788 5.05566 7.9445C5.05566 9.14112 6.02571 10.1112 7.22233 10.1112Z" fill="#5C913B"/>
  <path d="M14.444 8.66683C15.6406 8.66683 16.6107 7.69678 16.6107 6.50016C16.6107 5.30355 15.6406 4.3335 14.444 4.3335C13.2474 4.3335 12.2773 5.30355 12.2773 6.50016C12.2773 7.69678 13.2474 8.66683 14.444 8.66683Z" fill="#226699"/>
  <path d="M20.944 12.9998C22.1406 12.9998 23.1107 12.0298 23.1107 10.8332C23.1107 9.63655 22.1406 8.6665 20.944 8.6665C19.7474 8.6665 18.7773 9.63655 18.7773 10.8332C18.7773 12.0298 19.7474 12.9998 20.944 12.9998Z" fill="#DD2E44"/>
  <path d="M20.2223 19.4998C21.4189 19.4998 22.389 18.5298 22.389 17.3332C22.389 16.1366 21.4189 15.1665 20.2223 15.1665C19.0257 15.1665 18.0557 16.1366 18.0557 17.3332C18.0557 18.5298 19.0257 19.4998 20.2223 19.4998Z" fill="#FFCC4D"/>
  </svg>
  