<svg width="26" height="26" viewBox="0 0 26 26" fill="none" xmlns="http://www.w3.org/2000/svg">
  <path d="M2.16699 11.5555H23.8337V24.5555H2.16699V11.5555Z" fill="#66757F"/>
  <path d="M1.44444 24.5555H24.5556C24.9386 24.5555 25.306 24.7077 25.5769 24.9786C25.8478 25.2495 26 25.6169 26 26H0C0 25.6169 0.152182 25.2495 0.423068 24.9786C0.693954 24.7077 1.06135 24.5555 1.44444 24.5555Z" fill="#CCD6DD"/>
  <path d="M12.9997 16.6111C12.425 16.6111 11.8739 16.8394 11.4676 17.2457C11.0613 17.652 10.833 18.2031 10.833 18.7778V23.1111H15.1663V18.7778C15.1663 18.2031 14.9381 17.652 14.5317 17.2457C14.1254 16.8394 13.5743 16.6111 12.9997 16.6111Z" fill="#292F33"/>
  <path d="M2.16699 15.1666H5.05588V23.1111H2.16699V15.1666ZM6.50033 15.1666H9.38921V23.1111H6.50033V15.1666ZM20.9448 15.1666H23.8337V23.1111H20.9448V15.1666ZM16.6114 15.1666H19.5003V23.1111H16.6114V15.1666Z" fill="#CCD6DD"/>
  <path d="M1.44434 23.1111H24.5554V24.5555H1.44434V23.1111Z" fill="#AAB8C2"/>
  <path d="M26 7.94444L13 0L0 7.94444H26Z" fill="#66757F"/>
  <path d="M12.9999 1.73328L1.44434 8.66661V11.5555H24.5554V8.66661L12.9999 1.73328Z" fill="#CCD6DD"/>
  <path d="M2.16699 13.7222H5.05588V15.1666H2.16699V13.7222ZM6.50033 13.7222H9.38921V15.1666H6.50033V13.7222ZM16.6114 13.7222H19.5003V15.1666H16.6114V13.7222ZM20.9448 13.7222H23.8337V15.1666H20.9448V13.7222Z" fill="#8899A6"/>
  <path d="M0.722656 8.66663H25.2782V12.2777H0.722656V8.66663Z" fill="#CCD6DD"/>
  <path d="M26 8.66661C26 8.85816 25.9239 9.04186 25.7885 9.1773C25.653 9.31274 25.4693 9.38883 25.2778 9.38883H0.722222C0.530677 9.38883 0.346977 9.31274 0.211534 9.1773C0.0760911 9.04186 0 8.85816 0 8.66661V7.94439C0 7.75284 0.0760911 7.56915 0.211534 7.4337C0.346977 7.29826 0.530677 7.22217 0.722222 7.22217H25.2778C25.4693 7.22217 25.653 7.29826 25.7885 7.4337C25.9239 7.56915 26 7.75284 26 7.94439V8.66661ZM26 12.9999C26 13.1915 25.9239 13.3752 25.7885 13.5106C25.653 13.6461 25.4693 13.7222 25.2778 13.7222H0.722222C0.530677 13.7222 0.346977 13.6461 0.211534 13.5106C0.0760911 13.3752 0 13.1915 0 12.9999V12.2777C0 12.0862 0.0760911 11.9025 0.211534 11.767C0.346977 11.6316 0.530677 11.5555 0.722222 11.5555H25.2778C25.4693 11.5555 25.653 11.6316 25.7885 11.767C25.9239 11.9025 26 12.0862 26 12.2777V12.9999Z" fill="#AAB8C2"/>
  <path d="M9.38867 23.1111H16.6109V24.5555H9.38867V23.1111Z" fill="#E1E8ED"/>
  <path d="M7.94434 24.5555H18.0554V26H7.94434V24.5555Z" fill="#F5F8FA"/>
  </svg>
  