<svg width="26" height="26" viewBox="0 0 26 26" fill="none" xmlns="http://www.w3.org/2000/svg">
<path d="M21.9665 6.92308L15.4665 0.423081C15.1933 0.162957 14.8293 0.0199229 14.4522 0.0245216C14.075 0.0291203 13.7146 0.180987 13.4479 0.447694C13.1812 0.7144 13.0293 1.07481 13.0247 1.45196C13.0201 1.82911 13.1632 2.19312 13.4233 2.46625L10.6362 5.2533L17.1362 11.7533L19.9233 8.96625C20.1942 9.23719 20.5617 9.3894 20.9449 9.3894C21.328 9.3894 21.6955 9.23719 21.9665 8.96625C22.2374 8.69531 22.3896 8.32783 22.3896 7.94466C22.3896 7.5615 22.2374 7.19402 21.9665 6.92308Z" fill="#E1E8ED"/>
<path d="M14.4444 0H3.61106C2.84488 0 2.11008 0.304364 1.5683 0.846136C1.02653 1.38791 0.722168 2.12271 0.722168 2.88889V23.1111C0.722168 23.8773 1.02653 24.6121 1.5683 25.1539C2.11008 25.6956 2.84488 26 3.61106 26H19.4999C20.2661 26 21.0009 25.6956 21.5427 25.1539C22.0845 24.6121 22.3888 23.8773 22.3888 23.1111V7.94444H15.8888C15.1666 7.94444 14.4444 7.22222 14.4444 6.5V0Z" fill="#CCD6DD"/>
<path d="M14.4447 0H13.0002V6.5C13.0002 7.26618 13.3046 8.00098 13.8464 8.54275C14.3881 9.08453 15.1229 9.38889 15.8891 9.38889H22.3891V7.94444H15.8891C15.1669 7.94444 14.4447 7.22222 14.4447 6.5V0ZM10.8336 5.77778C10.8336 5.96932 10.7575 6.15302 10.622 6.28847C10.4866 6.42391 10.3029 6.5 10.1113 6.5H4.33355C4.14201 6.5 3.95831 6.42391 3.82286 6.28847C3.68742 6.15302 3.61133 5.96932 3.61133 5.77778C3.61133 5.58623 3.68742 5.40253 3.82286 5.26709C3.95831 5.13165 4.14201 5.05556 4.33355 5.05556H10.1113C10.3029 5.05556 10.4866 5.13165 10.622 5.26709C10.7575 5.40253 10.8336 5.58623 10.8336 5.77778ZM10.8336 8.66667C10.8336 8.85821 10.7575 9.04191 10.622 9.17735C10.4866 9.3128 10.3029 9.38889 10.1113 9.38889H4.33355C4.14201 9.38889 3.95831 9.3128 3.82286 9.17735C3.68742 9.04191 3.61133 8.85821 3.61133 8.66667C3.61133 8.47512 3.68742 8.29142 3.82286 8.15598C3.95831 8.02054 4.14201 7.94444 4.33355 7.94444H10.1113C10.3029 7.94444 10.4866 8.02054 10.622 8.15598C10.7575 8.29142 10.8336 8.47512 10.8336 8.66667ZM19.5002 11.5556C19.5002 11.7471 19.4241 11.9308 19.2887 12.0662C19.1532 12.2017 18.9695 12.2778 18.778 12.2778H4.33355C4.14201 12.2778 3.95831 12.2017 3.82286 12.0662C3.68742 11.9308 3.61133 11.7471 3.61133 11.5556C3.61133 11.364 3.68742 11.1803 3.82286 11.0449C3.95831 10.9094 4.14201 10.8333 4.33355 10.8333H18.778C18.9695 10.8333 19.1532 10.9094 19.2887 11.0449C19.4241 11.1803 19.5002 11.364 19.5002 11.5556ZM19.5002 14.4444C19.5002 14.636 19.4241 14.8197 19.2887 14.9551C19.1532 15.0906 18.9695 15.1667 18.778 15.1667H4.33355C4.14201 15.1667 3.95831 15.0906 3.82286 14.9551C3.68742 14.8197 3.61133 14.636 3.61133 14.4444C3.61133 14.2529 3.68742 14.0692 3.82286 13.9338C3.95831 13.7983 4.14201 13.7222 4.33355 13.7222H18.778C18.9695 13.7222 19.1532 13.7983 19.2887 13.9338C19.4241 14.0692 19.5002 14.2529 19.5002 14.4444ZM19.5002 17.3333C19.5002 17.5249 19.4241 17.7086 19.2887 17.844C19.1532 17.9795 18.9695 18.0556 18.778 18.0556H4.33355C4.14201 18.0556 3.95831 17.9795 3.82286 17.844C3.68742 17.7086 3.61133 17.5249 3.61133 17.3333C3.61133 17.1418 3.68742 16.9581 3.82286 16.8226C3.95831 16.6872 4.14201 16.6111 4.33355 16.6111H18.778C18.9695 16.6111 19.1532 16.6872 19.2887 16.8226C19.4241 16.9581 19.5002 17.1418 19.5002 17.3333ZM19.5002 20.2222C19.5002 20.4138 19.4241 20.5975 19.2887 20.7329C19.1532 20.8684 18.9695 20.9444 18.778 20.9444H4.33355C4.14201 20.9444 3.95831 20.8684 3.82286 20.7329C3.68742 20.5975 3.61133 20.4138 3.61133 20.2222C3.61133 20.0307 3.68742 19.847 3.82286 19.7115C3.95831 19.5761 4.14201 19.5 4.33355 19.5H18.778C18.9695 19.5 19.1532 19.5761 19.2887 19.7115C19.4241 19.847 19.5002 20.0307 19.5002 20.2222Z" fill="#99AAB5"/>
</svg>
