<svg width="26" height="28" viewBox="0 0 26 28" fill="none" xmlns="http://www.w3.org/2000/svg">
  <g clip-path="url(#clip0_5280_3044)">
  <path d="M23.1111 6.27778H18.7778V3.38889C18.7778 2.62271 18.4734 1.88791 17.9316 1.34614C17.3899 0.804364 16.6551 0.5 15.8889 0.5L10.1111 0.5C9.34493 0.5 8.61013 0.804364 8.06836 1.34614C7.52659 1.88791 7.22222 2.62271 7.22222 3.38889V6.27778H2.88889C2.12271 6.27778 1.38791 6.58214 0.846136 7.12391C0.304364 7.66569 0 8.40049 0 9.16667L0 23.6111C0 24.3773 0.304364 25.1121 0.846136 25.6539C1.38791 26.1956 2.12271 26.5 2.88889 26.5H23.1111C23.8773 26.5 24.6121 26.1956 25.1539 25.6539C25.6956 25.1121 26 24.3773 26 23.6111V9.16667C26 8.40049 25.6956 7.66569 25.1539 7.12391C24.6121 6.58214 23.8773 6.27778 23.1111 6.27778ZM8.66667 4.83333C8.66667 4.45024 8.81885 4.08284 9.08974 3.81196C9.36062 3.54107 9.72802 3.38889 10.1111 3.38889H15.8889C16.272 3.38889 16.6394 3.54107 16.9103 3.81196C17.1812 4.08284 17.3333 4.45024 17.3333 4.83333V6.27778H8.66667V4.83333Z" fill="#9A4E1C"/>
  <path d="M26 14.9445C26 15.7107 25.6956 16.4455 25.1539 16.9873C24.6121 17.529 23.8773 17.8334 23.1111 17.8334H2.88889C2.12271 17.8334 1.38791 17.529 0.846136 16.9873C0.304364 16.4455 0 15.7107 0 14.9445V9.16672C0 8.40054 0.304364 7.66574 0.846136 7.12397C1.38791 6.5822 2.12271 6.27783 2.88889 6.27783H23.1111C23.8773 6.27783 24.6121 6.5822 25.1539 7.12397C25.6956 7.66574 26 8.40054 26 9.16672V14.9445Z" fill="#662113"/>
  <path d="M26 13.5001C26 14.2662 25.6956 15.001 25.1539 15.5428C24.6121 16.0846 23.8773 16.3889 23.1111 16.3889H2.88889C2.12271 16.3889 1.38791 16.0846 0.846136 15.5428C0.304364 15.001 0 14.2662 0 13.5001V9.16672C0 8.40054 0.304364 7.66574 0.846136 7.12397C1.38791 6.5822 2.12271 6.27783 2.88889 6.27783H23.1111C23.8773 6.27783 24.6121 6.5822 25.1539 7.12397C25.6956 7.66574 26 8.40054 26 9.16672V13.5001Z" fill="#9A4E1C"/>
  <path d="M15.8891 13.5001C15.8891 13.8832 15.7369 14.2506 15.466 14.5215C15.1952 14.7924 14.8278 14.9446 14.4447 14.9446H11.5558C11.1727 14.9446 10.8053 14.7924 10.5344 14.5215C10.2635 14.2506 10.1113 13.8832 10.1113 13.5001C10.1113 13.117 10.2635 12.7496 10.5344 12.4787C10.8053 12.2078 11.1727 12.0557 11.5558 12.0557H14.4447C14.8278 12.0557 15.1952 12.2078 15.466 12.4787C15.7369 12.7496 15.8891 13.117 15.8891 13.5001Z" fill="#CCD6DD"/>
  </g>
  <defs>
  <clipPath id="clip0_5280_3044">
  <rect width="26" height="27" fill="white" transform="translate(0 0.5)"/>
  </clipPath>
  </defs>
  </svg>
  