<svg width="36" height="36" viewBox="0 0 36 36" fill="none" xmlns="http://www.w3.org/2000/svg">
  <path d="M35 20C35 22.209 33.209 22 31 22H5C2.791 22 1 22.209 1 20L3 8C3.125 6.083 4.791 4 7 4H29C31.209 4 32.791 6.208 33 8L35 20Z" fill="#67757F"/>
  <path d="M28 13C28 13.5304 27.7893 14.0391 27.4142 14.4142C27.0391 14.7893 26.5304 15 26 15H10C9.46957 15 8.96086 14.7893 8.58579 14.4142C8.21071 14.0391 8 13.5304 8 13V5C8 4.46957 8.21071 3.96086 8.58579 3.58579C8.96086 3.21071 9.46957 3 10 3H26C26.5304 3 27.0391 3.21071 27.4142 3.58579C27.7893 3.96086 28 4.46957 28 5V13Z" fill="#CCD6DD"/>
  <path d="M30 17C30 17.5304 29.7893 18.0391 29.4142 18.4142C29.0391 18.7893 28.5304 19 28 19H8C7.46957 19 6.96086 18.7893 6.58579 18.4142C6.21071 18.0391 6 17.5304 6 17V9C6 8.46957 6.21071 7.96086 6.58579 7.58579C6.96086 7.21071 7.46957 7 8 7H28C28.5304 7 29.0391 7.21071 29.4142 7.58579C29.7893 7.96086 30 8.46957 30 9V17Z" fill="#E1E8ED"/>
  <path d="M32 21C32 21.5304 31.7893 22.0391 31.4142 22.4142C31.0391 22.7893 30.5304 23 30 23H6C5.46957 23 4.96086 22.7893 4.58579 22.4142C4.21071 22.0391 4 21.5304 4 21V13C4 12.4696 4.21071 11.9609 4.58579 11.5858C4.96086 11.2107 5.46957 11 6 11H30C30.5304 11 31.0391 11.2107 31.4142 11.5858C31.7893 11.9609 32 12.4696 32 13V21Z" fill="#F5F8FA"/>
  <path d="M35 31C35 32.0609 34.5786 33.0783 33.8284 33.8284C33.0783 34.5786 32.0609 35 31 35H5C3.93913 35 2.92172 34.5786 2.17157 33.8284C1.42143 33.0783 1 32.0609 1 31V20C1 18.9391 1.42143 17.9217 2.17157 17.1716C2.92172 16.4214 3.93913 16 5 16H31C32.0609 16 33.0783 16.4214 33.8284 17.1716C34.5786 17.9217 35 18.9391 35 20V31Z" fill="#9AAAB4"/>
  <path d="M22 1H17C16.4696 1 15.9609 1.21071 15.5858 1.58579C15.2107 1.96086 15 2.46957 15 3V4H19C19.5304 4 20.0391 4.21071 20.4142 4.58579C20.7893 4.96086 21 5.46957 21 6H22C22.5304 6 23.0391 5.78929 23.4142 5.41421C23.7893 5.03914 24 4.53043 24 4V3C24 2.46957 23.7893 1.96086 23.4142 1.58579C23.0391 1.21071 22.5304 1 22 1Z" fill="#FCAB40"/>
  <path d="M18 5H13C12.4696 5 11.9609 5.21071 11.5858 5.58579C11.2107 5.96086 11 6.46957 11 7V8H15C15.5304 8 16.0391 8.21071 16.4142 8.58579C16.7893 8.96086 17 9.46957 17 10H18C18.5304 10 19.0391 9.78929 19.4142 9.41421C19.7893 9.03914 20 8.53043 20 8V7C20 6.46957 19.7893 5.96086 19.4142 5.58579C19.0391 5.21071 18.5304 5 18 5Z" fill="#5DADEC"/>
  <path d="M16 12C16 12.5304 15.7893 13.0391 15.4142 13.4142C15.0391 13.7893 14.5304 14 14 14H9C8.46957 14 7.96086 13.7893 7.58579 13.4142C7.21071 13.0391 7 12.5304 7 12V11C7 10.4696 7.21071 9.96086 7.58579 9.58579C7.96086 9.21071 8.46957 9 9 9H14C14.5304 9 15.0391 9.21071 15.4142 9.58579C15.7893 9.96086 16 10.4696 16 11V12Z" fill="#E75A70"/>
  <path d="M25 28C25 28.5304 24.7893 29.0391 24.4142 29.4142C24.0391 29.7893 23.5304 30 23 30H13C12.4696 30 11.9609 29.7893 11.5858 29.4142C11.2107 29.0391 11 28.5304 11 28V23C11 22.4696 11.2107 21.9609 11.5858 21.5858C11.9609 21.2107 12.4696 21 13 21H23C23.5304 21 24.0391 21.2107 24.4142 21.5858C24.7893 21.9609 25 22.4696 25 23V28Z" fill="#67757F"/>
  <path d="M23 27C23 27.2652 22.8946 27.5196 22.7071 27.7071C22.5196 27.8946 22.2652 28 22 28H14C13.7348 28 13.4804 27.8946 13.2929 27.7071C13.1054 27.5196 13 27.2652 13 27V24C13 23.7348 13.1054 23.4804 13.2929 23.2929C13.4804 23.1054 13.7348 23 14 23H22C22.2652 23 22.5196 23.1054 22.7071 23.2929C22.8946 23.4804 23 23.7348 23 24V27Z" fill="#E1E8ED"/>
  </svg>
  