<svg width="24" height="24" viewBox="0 0 24 24" fill="none" xmlns="http://www.w3.org/2000/svg">
  <path d="M24 21.3333C24 22.0406 23.719 22.7189 23.219 23.219C22.7189 23.719 22.0406 24 21.3333 24H2.66667C1.95942 24 1.28115 23.719 0.781049 23.219C0.280952 22.7189 0 22.0406 0 21.3333V2.66667C0 1.95942 0.280952 1.28115 0.781049 0.781049C1.28115 0.280952 1.95942 0 2.66667 0L21.3333 0C22.0406 0 22.7189 0.280952 23.219 0.781049C23.719 1.28115 24 1.95942 24 2.66667V21.3333Z" fill="#77B255"/>
  <path d="M19.5198 4.24138C19.149 4.0011 18.6979 3.91782 18.2657 4.00982C17.8334 4.10181 17.4554 4.36156 17.2145 4.73205L9.95717 15.918L6.6045 12.818C6.44444 12.666 6.25577 12.5473 6.04944 12.4688C5.84312 12.3903 5.62325 12.3535 5.40261 12.3607C5.18197 12.3679 4.96495 12.4188 4.76416 12.5105C4.56336 12.6023 4.38279 12.733 4.23293 12.8951C4.08307 13.0571 3.9669 13.2474 3.89117 13.4548C3.81544 13.6621 3.78166 13.8825 3.7918 14.103C3.80193 14.3235 3.85577 14.5398 3.95019 14.7394C4.04461 14.9389 4.17774 15.1177 4.34183 15.2654L9.14783 19.7094C9.46783 20.006 9.8745 20.1527 10.2785 20.1527C10.7272 20.1527 11.3012 19.9647 11.6778 19.3934C11.8992 19.056 20.0112 6.54671 20.0112 6.54671C20.1303 6.36308 20.2121 6.15779 20.2518 5.94255C20.2916 5.72732 20.2886 5.50635 20.243 5.29228C20.1974 5.07821 20.11 4.87522 19.9859 4.69491C19.8619 4.51459 19.7035 4.36048 19.5198 4.24138Z" fill="white"/>
  </svg>
  