<svg width="26" height="26" viewBox="0 0 26 26" fill="none" xmlns="http://www.w3.org/2000/svg">
  <path d="M26 23.1111C26 23.8773 25.6956 24.6121 25.1539 25.1539C24.6121 25.6956 23.8773 26 23.1111 26H2.88889C2.12271 26 1.38791 25.6956 0.846136 25.1539C0.304364 24.6121 0 23.8773 0 23.1111V2.88889C0 2.12271 0.304364 1.38791 0.846136 0.846136C1.38791 0.304364 2.12271 0 2.88889 0L23.1111 0C23.8773 0 24.6121 0.304364 25.1539 0.846136C25.6956 1.38791 26 2.12271 26 2.88889V23.1111Z" fill="#3B88C3"/>
  <path d="M16.0635 16.0636L18.1067 18.1068C15.2864 20.9271 10.7133 20.9264 7.89231 18.1061C7.12177 17.3364 6.53593 16.4018 6.17889 15.3729C5.82186 14.3439 5.70294 13.2474 5.83109 12.1658L2.91548 12.4309C2.7602 15.2042 3.73014 18.0295 5.84914 20.1493C9.79753 24.0976 16.2008 24.0984 20.1484 20.1493L22.1909 22.1917L22.804 15.4505L16.0635 16.0636ZM20.1491 5.84997C16.2 1.90157 9.79898 1.90157 5.84987 5.84997L3.80742 3.80752L3.19425 10.5487L9.93548 9.93558L7.89231 7.89241C10.7133 5.07213 15.285 5.07213 18.106 7.89241C18.8766 8.66231 19.4625 9.59692 19.8198 10.626C20.1771 11.655 20.2963 12.7516 20.1686 13.8334L23.0835 13.5691C23.2395 10.795 22.2689 7.96969 20.1491 5.84997Z" fill="white"/>
  </svg>
  