<svg width="26" height="26" viewBox="0 0 26 26" fill="none" xmlns="http://www.w3.org/2000/svg">
  <path d="M2.88889 3.61133C2.12271 3.61133 1.38791 3.91569 0.846136 4.45746C0.304364 4.99924 0 5.73404 0 6.50022L0 19.5002C0 20.2664 0.304364 21.0012 0.846136 21.543C1.38791 22.0847 2.12271 22.3891 2.88889 22.3891H23.1111C23.8773 22.3891 24.6121 22.0847 25.1539 21.543C25.6956 21.0012 26 20.2664 26 19.5002V6.50022C26 6.50022 26 3.61133 23.1111 3.61133H2.88889Z" fill="#FFAC33"/>
  <path d="M0 7.22217H26V10.8333H0V7.22217Z" fill="#292F33"/>
  <path d="M2.88867 13.7222H23.1109V18.0555H2.88867V13.7222Z" fill="#F4F7F9"/>
  <path d="M13.7222 17.3332C12.4923 17.3332 12.0315 16.4593 11.9391 16.0325C11.544 16.0621 11.1591 16.2513 10.6355 16.5843C10.083 16.9353 9.45679 17.3332 8.66668 17.3332C7.80218 17.3332 7.27713 16.8457 7.22224 15.8888C7.22007 15.8483 7.24968 15.753 7.2374 15.753C5.89551 15.753 4.92485 17.0248 4.91546 17.0378C4.85956 17.1145 4.78906 17.1793 4.70803 17.2286C4.62699 17.2779 4.53701 17.3107 4.44326 17.3252C4.3495 17.3396 4.25382 17.3354 4.16171 17.3127C4.0696 17.29 3.98287 17.2494 3.90651 17.1931C3.83001 17.137 3.76531 17.0664 3.7161 16.9853C3.66689 16.9042 3.63414 16.8142 3.61972 16.7204C3.6053 16.6267 3.60949 16.531 3.63206 16.4389C3.65463 16.3467 3.69512 16.2599 3.75124 16.1834C3.80685 16.1076 5.13501 14.4443 7.22224 14.4443C8.62118 14.4443 8.70135 15.4374 8.72301 15.8079L8.72807 15.8866C9.07907 15.8621 9.44379 15.6309 9.86196 15.3644C10.556 14.9239 11.4169 14.3743 12.5703 14.6697C13.1993 14.8307 13.2976 15.4143 13.3351 15.6346C13.3445 15.6894 13.3582 15.7718 13.3705 15.7978C13.3756 15.7978 13.476 15.8635 13.7872 15.8917C14.3795 15.9458 15.0302 15.6902 15.7192 15.4201C16.4327 15.1398 17.1708 14.8509 17.966 14.8509C20.4136 14.8509 21.4088 16.0318 21.5143 16.1661C21.5749 16.2406 21.6201 16.3264 21.6472 16.4185C21.6743 16.5107 21.6827 16.6073 21.672 16.7027C21.6613 16.7982 21.6317 16.8905 21.5848 16.9744C21.538 17.0582 21.4749 17.1319 21.3993 17.1911C21.3236 17.2502 21.2369 17.2937 21.1443 17.319C21.0516 17.3443 20.9549 17.3508 20.8597 17.3382C20.7644 17.3256 20.6727 17.2942 20.5898 17.2457C20.5069 17.1972 20.4345 17.1327 20.3768 17.0559C20.3595 17.0364 19.7051 16.2947 17.9667 16.2947C17.4446 16.2947 16.8632 16.5222 16.2471 16.7634C15.5184 17.0494 14.4892 17.3332 13.7222 17.3332Z" fill="#8899A6"/>
  </svg>
  