<svg width="26" height="22" viewBox="0 0 26 22" fill="none" xmlns="http://www.w3.org/2000/svg">
  <path d="M0 14.9999C0 15.7661 0.304365 16.5009 0.846136 17.0426C1.38791 17.5844 2.12271 17.8888 2.88889 17.8888H23.1111C23.8773 17.8888 24.6121 17.5844 25.1539 17.0426C25.6956 16.5009 26 15.7661 26 14.9999V12.8332C26 12.067 25.6956 11.3322 25.1539 10.7905C24.6121 10.2487 23.8773 9.94434 23.1111 9.94434H2.88889C2.12271 9.94434 1.38791 10.2487 0.846136 10.7905C0.304365 11.3322 0 12.067 0 12.8332V14.9999Z" fill="#DD2E44"/>
  <path d="M12.2778 4.88873L12.9848 4.1665H20.839C23.1111 4.1665 23.8333 5.61095 23.8333 5.61095L26 9.91467V13.5554H12.2778V4.88873Z" fill="#FFCC4D"/>
  <path d="M19.5001 9.94466H24.5557L23.1112 7.05577C23.1112 7.05577 22.389 5.61133 20.9446 5.61133H19.5001V9.94466Z" fill="#55ACEE"/>
  <path d="M19.4998 20.7778C17.9043 20.7778 16.6109 19.4844 16.6109 17.8889C16.6109 16.2934 17.9043 15 19.4998 15C21.0953 15 22.3887 16.2934 22.3887 17.8889C22.3887 19.4844 21.0953 20.7778 19.4998 20.7778Z" fill="#292F33"/>
  <path d="M19.4999 19.3332C18.7021 19.3332 18.0554 18.6865 18.0554 17.8888C18.0554 17.091 18.7021 16.4443 19.4999 16.4443C20.2976 16.4443 20.9443 17.091 20.9443 17.8888C20.9443 18.6865 20.2976 19.3332 19.4999 19.3332Z" fill="#CCD6DD"/>
  <path d="M6.49978 20.7778C4.9043 20.7778 3.6109 19.4844 3.6109 17.8889C3.6109 16.2934 4.9043 15 6.49978 15C8.09527 15 9.38867 16.2934 9.38867 17.8889C9.38867 19.4844 8.09527 20.7778 6.49978 20.7778Z" fill="#292F33"/>
  <path d="M6.49989 19.3332C5.70215 19.3332 5.05545 18.6865 5.05545 17.8888C5.05545 17.091 5.70215 16.4443 6.49989 16.4443C7.29764 16.4443 7.94434 17.091 7.94434 17.8888C7.94434 18.6865 7.29764 19.3332 6.49989 19.3332Z" fill="#CCD6DD"/>
  <path d="M2.88911 1.27783H13.7224C14.4886 1.27783 15.2234 1.5822 15.7652 2.12397C16.307 2.66574 16.6113 3.40054 16.6113 4.16672V13.5556H0.000217438V4.16672C0.000217438 3.40054 0.304583 2.66574 0.846354 2.12397C1.38813 1.5822 2.12292 1.27783 2.88911 1.27783Z" fill="#CCD6DD"/>
  </svg>
  