<svg width="30" height="30" viewBox="0 0 30 30" fill="none" xmlns="http://www.w3.org/2000/svg">
  <g clip-path="url(#clip0_4270_3144)">
  <path d="M30 22.4998C30 23.3839 29.6488 24.2317 29.0237 24.8569C28.3986 25.482 27.5507 25.8332 26.6667 25.8332H3.33333C2.44928 25.8332 1.60143 25.482 0.976311 24.8569C0.35119 24.2317 0 23.3839 0 22.4998V7.49984C0 6.61578 0.35119 5.76794 0.976311 5.14281C1.60143 4.51769 2.44928 4.1665 3.33333 4.1665H26.6667C27.5507 4.1665 28.3986 4.51769 29.0237 5.14281C29.6488 5.76794 30 6.61578 30 7.49984V22.4998Z" fill="#CCD6DD"/>
  <path d="M9.95797 14.6965L0.530469 24.124C0.507969 24.1473 0.499635 24.1765 0.480469 24.1998C0.763802 24.6748 1.1588 25.069 1.6338 25.3532C1.65797 25.334 1.6863 25.3257 1.7088 25.3032L11.1371 15.8748C11.2934 15.7184 11.3811 15.5064 11.3811 15.2854C11.381 15.0643 11.2931 14.8523 11.1367 14.6961C10.9804 14.5398 10.7683 14.4521 10.5473 14.4521C10.3262 14.4522 10.1142 14.5401 9.95797 14.6965ZM29.5188 24.1998C29.5013 24.1765 29.4913 24.1473 29.4688 24.1248L20.0421 14.6965C19.9648 14.6191 19.8729 14.5576 19.7718 14.5157C19.6707 14.4738 19.5623 14.4522 19.4528 14.4521C19.3434 14.4521 19.235 14.4736 19.1339 14.5155C19.0327 14.5573 18.9408 14.6187 18.8634 14.6961C18.786 14.7734 18.7245 14.8653 18.6826 14.9664C18.6407 15.0675 18.6191 15.1759 18.6191 15.2854C18.619 15.3948 18.6405 15.5032 18.6824 15.6043C18.7242 15.7055 18.7856 15.7974 18.863 15.8748L28.2905 25.3032C28.3121 25.3248 28.3421 25.334 28.3655 25.3532C28.84 25.0708 29.2364 24.6743 29.5188 24.1998Z" fill="#99AAB5"/>
  <path d="M26.6667 4.1665H3.33333C2.44928 4.1665 1.60143 4.51769 0.976311 5.14281C0.35119 5.76794 0 6.61578 0 7.49984L0 8.35817L12.1067 20.4382C12.8689 21.196 13.9001 21.6214 14.975 21.6214C16.0499 21.6214 17.0811 21.196 17.8433 20.4382L30 8.34067V7.49984C30 6.61578 29.6488 5.76794 29.0237 5.14281C28.3986 4.51769 27.5507 4.1665 26.6667 4.1665Z" fill="#99AAB5"/>
  <path d="M26.6671 4.1665H3.33372C2.70642 4.1679 2.0923 4.34664 1.56221 4.68208C1.03213 5.01753 0.607699 5.49602 0.337891 6.06234L12.6429 18.3682C12.9524 18.6777 13.3199 18.9233 13.7243 19.0908C14.1288 19.2583 14.5622 19.3445 15 19.3445C15.4377 19.3445 15.8712 19.2583 16.2756 19.0908C16.6801 18.9233 17.0475 18.6777 17.3571 18.3682L29.6629 6.06234C29.3932 5.49596 28.9687 5.01741 28.4387 4.68195C27.9086 4.3465 27.2944 4.1678 26.6671 4.1665Z" fill="url(#paint0_linear_4270_3144)"/>
  </g>
  <defs>
  <linearGradient id="paint0_linear_4270_3144" x1="15.0004" y1="4.1665" x2="15.0004" y2="18" gradientUnits="userSpaceOnUse">
  <stop stop-color="#D4DEE7"/>
  <stop offset="1" stop-color="#E1E8EE"/>
  </linearGradient>
  <clipPath id="clip0_4270_3144">
  <rect width="30" height="30" fill="white"/>
  </clipPath>
  </defs>
  </svg>
  