<svg width="26" height="28" viewBox="0 0 26 28" fill="none" xmlns="http://www.w3.org/2000/svg">
  <path d="M6.74892 10.6181H5.30447C5.2087 10.6181 5.11685 10.5801 5.04913 10.5123C4.9814 10.4446 4.94336 10.3528 4.94336 10.257V5.20144C4.94336 5.10567 4.9814 5.01382 5.04913 4.9461C5.11685 4.87838 5.2087 4.84033 5.30447 4.84033H6.74892C6.84469 4.84033 6.93654 4.87838 7.00426 4.9461C7.07198 5.01382 7.11003 5.10567 7.11003 5.20144V10.257C7.11003 10.3528 7.07198 10.4446 7.00426 10.5123C6.93654 10.5801 6.84469 10.6181 6.74892 10.6181Z" fill="#A0041E"/>
  <path d="M3.61133 11.5554L13.0002 2.1665L22.3891 11.5554V23.8332H3.61133V11.5554Z" fill="#FFE8B6"/>
  <path d="M13 11.5557H13.7222V23.1112H13V11.5557Z" fill="#FFCC4D"/>
  <path d="M22.3886 12.2778C22.2937 12.2779 22.1998 12.2593 22.1121 12.223C22.0245 12.1866 21.9449 12.1334 21.878 12.0662L12.9997 3.18793L4.1214 12.0662C4.05434 12.1333 3.97474 12.1864 3.88713 12.2227C3.79951 12.259 3.70561 12.2777 3.61079 12.2777C3.51596 12.2777 3.42206 12.259 3.33444 12.2227C3.24683 12.1864 3.16723 12.1333 3.10017 12.0662C3.03312 11.9991 2.97993 11.9195 2.94364 11.8319C2.90735 11.7443 2.88867 11.6504 2.88867 11.5556C2.88867 11.4608 2.90735 11.3669 2.94364 11.2793C2.97993 11.1916 3.03312 11.112 3.10017 11.045L12.4891 1.65609C12.5561 1.58896 12.6357 1.53571 12.7233 1.49937C12.8109 1.46304 12.9048 1.44434 12.9997 1.44434C13.0945 1.44434 13.1884 1.46304 13.2761 1.49937C13.3637 1.53571 13.4433 1.58896 13.5103 1.65609L22.8992 11.045C23.0005 11.1458 23.0696 11.2745 23.0976 11.4147C23.1257 11.5549 23.1115 11.7003 23.0567 11.8324C23.002 11.9645 22.9093 12.0774 22.7903 12.1567C22.6714 12.236 22.5315 12.2781 22.3886 12.2778Z" fill="#66757F"/>
  <path d="M13.0004 12.2779C12.8575 12.2783 12.7176 12.2361 12.5987 12.1568C12.4797 12.0775 12.387 11.9646 12.3323 11.8325C12.2775 11.7004 12.2633 11.5551 12.2914 11.4149C12.3194 11.2747 12.3885 11.146 12.4898 11.0451L17.1843 6.35066C17.2513 6.28361 17.3309 6.23042 17.4185 6.19413C17.5062 6.15784 17.6001 6.13916 17.6949 6.13916C17.7897 6.13916 17.8836 6.15784 17.9712 6.19413C18.0588 6.23042 18.1384 6.28361 18.2055 6.35066C18.2725 6.41772 18.3257 6.49732 18.362 6.58493C18.3983 6.67254 18.417 6.76644 18.417 6.86127C18.417 6.9561 18.3983 7.05 18.362 7.13761C18.3257 7.22523 18.2725 7.30483 18.2055 7.37188L13.511 12.0663C13.4441 12.1335 13.3645 12.1868 13.2769 12.2231C13.1892 12.2594 13.0953 12.278 13.0004 12.2779Z" fill="#66757F"/>
  <path d="M7.22266 18.7778H10.1115V23.1112H7.22266V18.7778Z" fill="#C1694F"/>
  <path d="M7.22266 12.2778H10.1115V15.1667H7.22266V12.2778ZM16.2504 12.2778H19.1393V15.1667H16.2504V12.2778ZM16.2504 18.7778H19.1393V21.6667H16.2504V18.7778Z" fill="#55ACEE"/>
  <path d="M24.1946 24.1947C24.1946 24.482 24.0804 24.7575 23.8773 24.9607C23.6741 25.1639 23.3985 25.278 23.1112 25.278H2.889C2.60168 25.278 2.32613 25.1639 2.12297 24.9607C1.9198 24.7575 1.80566 24.482 1.80566 24.1947C1.80566 23.9073 1.9198 23.6318 2.12297 23.4286C2.32613 23.2255 2.60168 23.1113 2.889 23.1113H23.1112C23.3985 23.1113 23.6741 23.2255 23.8773 23.4286C24.0804 23.6318 24.1946 23.9073 24.1946 24.1947Z" fill="#5C913B"/>
  </svg>
  