<svg width="26" height="26" viewBox="0 0 26 26" fill="none" xmlns="http://www.w3.org/2000/svg">
<g clip-path="url(#clip0_196_1164)">
<path d="M26.0001 25.9999V24.5555C26.0001 23.4062 25.5435 22.304 24.7309 21.4914C23.9182 20.6787 22.816 20.2222 21.6667 20.2222H10.1112C8.96189 20.2222 7.85969 20.6787 7.04704 21.4914C6.23438 22.304 5.77783 23.4062 5.77783 24.5555V25.9999H26.0001Z" fill="#CCD6DD"/>
<path d="M12.74 20.2496C12.74 22.305 19.0378 22.3888 19.0378 20.2496V17.542H12.74V20.2496Z" fill="#FFDC5D"/>
<path d="M12.7342 18.7581C13.6125 19.7504 14.7016 20.0191 15.886 20.0191C17.0697 20.0191 18.1581 19.7497 19.0371 18.7581V16.2368H12.7335V18.7581H12.7342Z" fill="#F9CA55"/>
<path d="M11.1539 11.5091C11.1539 12.5549 10.6238 13.4028 9.97022 13.4028C9.31661 13.4028 8.7865 12.5549 8.7865 11.5091C8.7865 10.4634 9.31661 9.61475 9.97022 9.61475C10.6238 9.61402 11.1539 10.4626 11.1539 11.5091ZM22.9904 11.5091C22.9904 12.5549 22.4611 13.4028 21.8067 13.4028C21.1531 13.4028 20.623 12.5549 20.623 11.5091C20.623 10.4634 21.1524 9.61475 21.8067 9.61475C22.4611 9.61402 22.9904 10.4626 22.9904 11.5091Z" fill="#FFDC5D"/>
<path d="M9.7334 12.2481C9.7334 8.21159 12.4894 4.93848 15.8889 4.93848C19.2884 4.93848 22.0437 8.21159 22.0437 12.2481C22.0437 16.2846 19.2884 19.5577 15.8889 19.5577C12.4901 19.5577 9.7334 16.2853 9.7334 12.2481Z" fill="#FFDC5D"/>
<path d="M15.8888 17.1901C13.8998 17.1901 13.2888 16.681 13.187 16.5777C13.142 16.5349 13.1058 16.4837 13.0805 16.4269C13.0553 16.3702 13.0414 16.309 13.0398 16.2469C13.0366 16.1215 13.0833 15.9999 13.1697 15.9089C13.2561 15.8179 13.3751 15.765 13.5005 15.7617C13.6259 15.7585 13.7475 15.8052 13.8385 15.8916C13.876 15.9183 14.3592 16.2433 15.8888 16.2433C17.4777 16.2433 17.9371 15.893 17.9414 15.8894C17.985 15.8461 18.0369 15.8121 18.0939 15.7891C18.1509 15.7662 18.2119 15.7549 18.2734 15.7559C18.3348 15.7569 18.3954 15.7702 18.4517 15.795C18.5079 15.8198 18.5586 15.8556 18.6008 15.9002C18.6883 15.9919 18.7363 16.1143 18.7344 16.241C18.7325 16.3678 18.6809 16.4887 18.5907 16.5777C18.4888 16.681 17.8778 17.1901 15.8888 17.1901Z" fill="#C1694F"/>
<path d="M15.8889 2.51318C19.9681 2.51318 22.5175 5.52341 22.5175 8.03168C22.5175 10.54 22.0076 11.5438 21.4977 10.54L20.4779 8.53363C20.4779 8.53363 17.4193 8.53363 16.3996 7.52974C16.3996 7.52974 17.9292 10.54 14.8699 7.52974C14.8699 7.52974 15.3798 9.53679 12.3204 7.02852C12.3204 7.02852 10.7908 8.03168 10.2809 10.54C10.1393 11.2362 9.26111 10.54 9.26111 8.03168C9.26039 5.52341 11.2999 2.51318 15.8889 2.51318Z" fill="#FFAC33"/>
<path d="M13.0001 12.278C12.6028 12.278 12.2778 11.953 12.2778 11.5558V10.8336C12.2778 10.4363 12.6028 10.1113 13.0001 10.1113C13.3973 10.1113 13.7223 10.4363 13.7223 10.8336V11.5558C13.7223 11.953 13.3973 12.278 13.0001 12.278ZM18.7778 12.278C18.3806 12.278 18.0556 11.953 18.0556 11.5558V10.8336C18.0556 10.4363 18.3806 10.1113 18.7778 10.1113C19.1751 10.1113 19.5001 10.4363 19.5001 10.8336V11.5558C19.5001 11.953 19.1751 12.278 18.7778 12.278Z" fill="#662113"/>
<path d="M16.4305 14.264H15.3472C15.0489 14.264 14.8055 14.0206 14.8055 13.7223C14.8055 13.4241 15.0489 13.1807 15.3472 13.1807H16.4305C16.7288 13.1807 16.9722 13.4241 16.9722 13.7223C16.9722 14.0206 16.7288 14.264 16.4305 14.264Z" fill="#C1694F"/>
<path d="M9.38892 20.2222H11.5556V25.9999H9.38892V20.2222ZM20.2222 20.2222H22.3889V25.9999H20.2222V20.2222Z" fill="#226699"/>
<path d="M21.6666 22.3887H10.1111L9.47913 25.9998H22.3888L21.6666 22.3887Z" fill="#226699"/>
<path d="M22.4293 6.86106C22.4293 7.81439 19.474 6.86106 15.9293 6.86106C12.3839 6.86106 9.42932 7.81439 9.42932 6.86106C9.42932 4.29933 10.1515 0.722168 15.9293 0.722168C20.9849 0.722168 22.4293 4.29933 22.4293 6.86106Z" fill="#3B88C3"/>
<path d="M9.46908 6.86133C9.46908 6.86133 9.10797 9.02799 10.5524 9.02799C11.2746 9.02799 12.358 7.58355 15.9691 7.58355C19.5802 7.58355 20.6635 9.02799 21.3857 9.02799C22.8302 9.02799 22.4691 6.86133 22.4691 6.86133C22.4691 6.86133 21.3857 7.22244 15.9691 7.22244C10.5524 7.22244 9.46908 6.86133 9.46908 6.86133Z" fill="#226699"/>
<path d="M9.42928 6.5C9.42928 6.5 9.06817 8.66667 10.5126 8.66667C11.2348 8.66667 12.3182 7.22222 15.9293 7.22222C19.5404 7.22222 20.6237 8.66667 21.346 8.66667C22.7904 8.66667 22.4293 6.5 22.4293 6.5C22.4293 6.5 21.346 6.86111 15.9293 6.86111C10.5126 6.86111 9.42928 6.5 9.42928 6.5Z" fill="#55ACEE"/>
<path d="M14.8459 1.08333C14.8459 1.08333 14.8459 0 15.9293 0C17.0126 0 17.0126 1.08333 17.0126 1.08333H14.8459Z" fill="#226699"/>
<path d="M20.0416 25.2777C20.9391 25.2777 21.6666 24.8735 21.6666 24.3749C21.6666 23.8764 20.9391 23.4722 20.0416 23.4722C19.1442 23.4722 18.4166 23.8764 18.4166 24.3749C18.4166 24.8735 19.1442 25.2777 20.0416 25.2777Z" fill="#F5F8FA"/>
<path d="M5.04834 14.0698L5.057 17.2541C5.057 17.6535 4.33045 17.9785 3.43272 17.9799C2.53572 17.9821 1.80772 17.66 1.807 17.2613L1.79978 14.0778C0.730891 14.6606 -0.00144231 15.7815 2.13292e-06 17.0851C0.0022981 17.9949 0.365789 18.8667 1.01057 19.5086C1.65535 20.1505 2.52865 20.5102 3.4385 20.5084C4.34847 20.5061 5.22029 20.1425 5.86225 19.4976C6.5042 18.8527 6.86375 17.9792 6.86184 17.0692C6.85822 15.7663 6.12084 14.6483 5.04834 14.0698Z" fill="#66757F"/>
<path d="M2.34717 19.7861H4.51383V26.0001H2.34717V19.7861Z" fill="#66757F"/>
</g>
<defs>
<clipPath id="clip0_196_1164">
<rect width="26" height="26" fill="white"/>
</clipPath>
</defs>
</svg>
