<svg width="26" height="26" viewBox="0 0 26 26" fill="none" xmlns="http://www.w3.org/2000/svg">
  <path d="M22.3893 23.1111C22.3893 23.8773 22.085 24.6121 21.5432 25.1539C21.0014 25.6956 20.2666 26 19.5004 26H3.61155C2.84536 26 2.11056 25.6956 1.56879 25.1539C1.02702 24.6121 0.722656 23.8773 0.722656 23.1111V2.88889C0.722656 2.12271 1.02702 1.38791 1.56879 0.846136C2.11056 0.304364 2.84536 0 3.61155 0L19.5004 0C20.2666 0 21.0014 0.304364 21.5432 0.846136C22.085 1.38791 22.3893 2.12271 22.3893 2.88889V23.1111Z" fill="#CCD6DD"/>
  <path d="M19.5002 17.3333C19.5002 17.5249 19.4241 17.7086 19.2887 17.844C19.1532 17.9795 18.9695 18.0555 18.778 18.0555H4.33355C4.14201 18.0555 3.95831 17.9795 3.82286 17.844C3.68742 17.7086 3.61133 17.5249 3.61133 17.3333C3.61133 17.1418 3.68742 16.9581 3.82286 16.8226C3.95831 16.6872 4.14201 16.6111 4.33355 16.6111H18.778C18.9695 16.6111 19.1532 16.6872 19.2887 16.8226C19.4241 16.9581 19.5002 17.1418 19.5002 17.3333ZM7.94466 20.2222C7.94466 20.4138 7.86857 20.5975 7.73313 20.7329C7.59768 20.8683 7.41398 20.9444 7.22244 20.9444H4.33355C4.14201 20.9444 3.95831 20.8683 3.82286 20.7329C3.68742 20.5975 3.61133 20.4138 3.61133 20.2222C3.61133 20.0307 3.68742 19.847 3.82286 19.7115C3.95831 19.5761 4.14201 19.5 4.33355 19.5H7.22244C7.41398 19.5 7.59768 19.5761 7.73313 19.7115C7.86857 19.847 7.94466 20.0307 7.94466 20.2222ZM19.5002 5.77776C19.5002 5.96931 19.4241 6.15301 19.2887 6.28845C19.1532 6.4239 18.9695 6.49999 18.778 6.49999H4.33355C4.14201 6.49999 3.95831 6.4239 3.82286 6.28845C3.68742 6.15301 3.61133 5.96931 3.61133 5.77776C3.61133 5.58622 3.68742 5.40252 3.82286 5.26708C3.95831 5.13163 4.14201 5.05554 4.33355 5.05554H18.778C18.9695 5.05554 19.1532 5.13163 19.2887 5.26708C19.4241 5.40252 19.5002 5.58622 19.5002 5.77776ZM19.5002 8.66665C19.5002 8.8582 19.4241 9.0419 19.2887 9.17734C19.1532 9.31278 18.9695 9.38888 18.778 9.38888H4.33355C4.14201 9.38888 3.95831 9.31278 3.82286 9.17734C3.68742 9.0419 3.61133 8.8582 3.61133 8.66665C3.61133 8.47511 3.68742 8.29141 3.82286 8.15597C3.95831 8.02052 4.14201 7.94443 4.33355 7.94443H18.778C18.9695 7.94443 19.1532 8.02052 19.2887 8.15597C19.4241 8.29141 19.5002 8.47511 19.5002 8.66665ZM19.5002 11.5555C19.5002 11.7471 19.4241 11.9308 19.2887 12.0662C19.1532 12.2017 18.9695 12.2778 18.778 12.2778H4.33355C4.14201 12.2778 3.95831 12.2017 3.82286 12.0662C3.68742 11.9308 3.61133 11.7471 3.61133 11.5555C3.61133 11.364 3.68742 11.1803 3.82286 11.0449C3.95831 10.9094 4.14201 10.8333 4.33355 10.8333H18.778C18.9695 10.8333 19.1532 10.9094 19.2887 11.0449C19.4241 11.1803 19.5002 11.364 19.5002 11.5555ZM19.5002 14.4444C19.5002 14.636 19.4241 14.8197 19.2887 14.9551C19.1532 15.0906 18.9695 15.1667 18.778 15.1667H4.33355C4.14201 15.1667 3.95831 15.0906 3.82286 14.9551C3.68742 14.8197 3.61133 14.636 3.61133 14.4444C3.61133 14.2529 3.68742 14.0692 3.82286 13.9337C3.95831 13.7983 4.14201 13.7222 4.33355 13.7222H18.778C18.9695 13.7222 19.1532 13.7983 19.2887 13.9337C19.4241 14.0692 19.5002 14.2529 19.5002 14.4444Z" fill="#99AAB5"/>
  <path d="M22.3887 4.52977C21.7914 4.14338 21.0619 4.1116 20.5679 4.51316L19.9959 4.97972L18.9242 5.85433L18.8519 5.9121L17.1359 7.31177L8.55739 14.3072C8.24178 14.565 7.98467 15.1876 7.71022 15.8051C7.43722 16.419 7.01039 17.8649 6.66806 18.9764C6.56117 19.1569 5.89889 20.3096 6.27011 20.748C6.64567 21.1922 7.95 20.7552 8.12478 20.6931C9.29911 20.5674 10.8194 20.4237 11.4817 20.2742C12.149 20.1218 12.8207 19.9889 13.1363 19.7311C13.1421 19.7268 13.1435 19.7181 13.1486 19.7145L21.7127 12.7335L22.2847 12.2669L22.3887 12.1817V4.52977Z" fill="#66757F"/>
  <path d="M13.1048 16.2688C13.1048 16.2688 12.1847 14.9103 11.5759 14.425C11.0906 13.8161 9.73496 12.8967 9.73496 12.8967C9.41141 12.5746 8.87479 12.5501 8.55846 12.8657C8.24285 13.182 7.98574 13.8522 7.71129 14.5203C7.3704 15.348 6.78974 17.5204 6.43441 18.6745C6.37446 18.871 6.80779 18.3495 6.79768 18.5228C6.79046 18.6579 6.81718 18.8074 6.85113 18.9425L6.74568 19.0573L6.89591 19.1057C6.91396 19.1649 6.93202 19.2169 6.94502 19.2573L7.05985 19.1519C7.1949 19.1858 7.3444 19.2126 7.47874 19.2053C7.65207 19.1952 7.12991 19.6293 7.32707 19.5686C8.48118 19.2126 10.6543 18.6326 11.4813 18.2917C12.1486 18.0166 12.8203 17.7602 13.1359 17.4438C13.453 17.1297 13.4291 16.5931 13.1048 16.2688Z" fill="#D99E82"/>
  <path d="M18.2811 3.14239C18.1307 3.29252 18.0114 3.47084 17.93 3.66714C17.8485 3.86344 17.8066 4.07387 17.8066 4.28639C17.8066 4.4989 17.8485 4.70934 17.93 4.90564C18.0114 5.10194 18.1307 5.28026 18.2811 5.43039L20.5684 7.71839C20.872 8.02146 21.2834 8.19168 21.7124 8.19168C22.1414 8.19168 22.5528 8.02146 22.8564 7.71839L25.1451 5.43039C25.4482 5.1268 25.6184 4.71536 25.6184 4.28639C25.6184 3.85741 25.4482 3.44597 25.1451 3.14239L22.8564 0.854388C22.7062 0.704146 22.5278 0.584966 22.3315 0.503655C22.1353 0.422344 21.9249 0.380493 21.7124 0.380493C21.4999 0.380493 21.2896 0.422344 21.0933 0.503655C20.897 0.584966 20.7186 0.704146 20.5684 0.854388L18.2811 3.14239Z" fill="#EA596E"/>
  <path d="M8.55762 12.8664L10.8471 15.1558L13.1329 17.4424L21.7136 8.86311L17.1369 4.28711L8.55762 12.8664Z" fill="#FFCC4D"/>
  <path d="M8.15938 19.3137C8.15938 19.3137 6.6716 20.132 6.27004 19.7297C5.86777 19.3267 6.68965 17.844 6.68965 17.844C6.68965 17.844 8.09871 17.87 8.15938 19.3137Z" fill="#292F33"/>
  <path d="M17.1367 4.28639L19.9967 1.42639L24.5727 6.00311L21.7127 8.86311L17.1367 4.28639Z" fill="#CCD6DD"/>
  <path d="M18.8523 2.56968L19.4243 1.99768L24.0003 6.57296L23.4283 7.14496L18.8523 2.56968ZM17.709 3.71368L18.2803 3.1424L22.8563 7.71768L22.2843 8.28968L17.709 3.71368Z" fill="#99AAB5"/>
  </svg>
  