<svg width="26" height="26" viewBox="0 0 26 26" fill="none" xmlns="http://www.w3.org/2000/svg">
  <g clip-path="url(#clip0_5280_3052)">
  <path d="M26 23.1111C26 23.8773 25.6956 24.6121 25.1539 25.1539C24.6121 25.6956 23.8773 26 23.1111 26H2.88889C2.12271 26 1.38791 25.6956 0.846136 25.1539C0.304364 24.6121 0 23.8773 0 23.1111V2.88889C0 2.12271 0.304364 1.38791 0.846136 0.846136C1.38791 0.304364 2.12271 0 2.88889 0L23.1111 0C23.8773 0 24.6121 0.304364 25.1539 0.846136C25.6956 1.38791 26 2.12271 26 2.88889V23.1111Z" fill="#88C9F9"/>
  <path d="M13.9689 25.6064C13.7098 25.8586 13.3624 25.9997 13.0008 25.9997C12.6392 25.9997 12.2918 25.8586 12.0327 25.6064L7.24216 20.891C6.70989 20.3667 6.56905 19.4234 6.92872 18.7937L12.3454 5.47082C12.7058 4.84176 13.2951 4.84176 13.6548 5.47082L19.0714 18.7937C19.4311 19.4227 19.2903 20.3667 18.758 20.8903L13.9689 25.6064Z" fill="#DD2E44"/>
  <path d="M12.9997 10.5935C13.6851 10.5935 14.4471 9.90598 15.0934 9.01115L13.6541 5.47082C13.2937 4.84176 12.7043 4.84176 12.3447 5.47082L10.9053 9.01115C11.5531 9.90598 12.3143 10.5935 12.9997 10.5935Z" fill="#A0041E"/>
  <path d="M16.6109 4.17284C16.6109 5.59128 14.5952 9.30928 12.9998 9.30928C11.4044 9.30928 9.38867 5.59128 9.38867 4.17284C9.38867 2.88511 11.4044 2.1665 12.9998 2.1665C14.5952 2.1665 16.6109 2.88511 16.6109 4.17284Z" fill="#DD2E44"/>
  <path d="M0 2.88889V4.51678C1.49789 6.51733 4.89594 10.1147 5.77778 10.1147C7.37317 10.1147 13.7222 2.31761 13.7222 0.722222C13.7222 0 13 0 12.2778 0H2.88889C2.12271 0 1.38791 0.304364 0.846136 0.846136C0.304364 1.38791 0 2.12271 0 2.88889H0Z" fill="#4CA0D3"/>
  <path d="M12.2773 0.722222C12.2773 2.31761 18.6264 10.1147 20.2218 10.1147C21.1036 10.1147 24.5017 6.51733 25.9996 4.51678V2.88889C25.9996 2.12271 25.6952 1.38791 25.1534 0.846136C24.6117 0.304364 23.8769 0 23.1107 0L13.7218 0C12.9996 0 12.2773 0 12.2773 0.722222Z" fill="#4CA0D3"/>
  <path d="M2.88904 0C2.6962 0 2.50915 0.0209444 2.32715 0.0570556C3.18154 1.25378 7.62826 2.16667 13.0001 2.16667C18.372 2.16667 22.8188 1.25378 23.6731 0.0570556C23.4882 0.0196661 23.3 0.000555604 23.1113 0L2.88904 0Z" fill="#226699"/>
  </g>
  <defs>
  <clipPath id="clip0_5280_3052">
  <rect width="26" height="26" fill="white"/>
  </clipPath>
  </defs>
  </svg>
  