<svg width="30" height="30" viewBox="0 0 30 30" fill="none" xmlns="http://www.w3.org/2000/svg">
  <g clip-path="url(#clip0_4425_2659)">
  <path d="M26.6667 5.8335H3.33333C2.44928 5.8335 1.60143 6.18469 0.976311 6.80981C0.35119 7.43493 0 8.28277 0 9.16683L0 21.6668C0 22.5509 0.35119 23.3987 0.976311 24.0239C1.60143 24.649 2.44928 25.0002 3.33333 25.0002H12.8467C13.28 25.4968 14.0775 25.8335 15 25.8335C15.9225 25.8335 16.7208 25.4968 17.1533 25.0002H26.6667C27.5507 25.0002 28.3986 24.649 29.0237 24.0239C29.6488 23.3987 30 22.5509 30 21.6668V9.16683C30 8.28277 29.6488 7.43493 29.0237 6.80981C28.3986 6.18469 27.5507 5.8335 26.6667 5.8335Z" fill="#226699"/>
  <path d="M16.6668 22.5002C16.6668 22.9422 16.4912 23.3661 16.1787 23.6787C15.8661 23.9912 15.4422 24.1668 15.0002 24.1668C14.5581 24.1668 14.1342 23.9912 13.8217 23.6787C13.5091 23.3661 13.3335 22.9422 13.3335 22.5002V7.50016C13.3335 7.05814 13.5091 6.63421 13.8217 6.32165C14.1342 6.00909 14.5581 5.8335 15.0002 5.8335C15.4422 5.8335 15.8661 6.00909 16.1787 6.32165C16.4912 6.63421 16.6668 7.05814 16.6668 7.50016V22.5002Z" fill="#292F33"/>
  <path d="M14.9998 21.6667C14.9998 22.1087 14.8242 22.5326 14.5117 22.8452C14.1991 23.1577 13.7752 23.3333 13.3332 23.3333H3.33317C2.89114 23.3333 2.46722 23.1577 2.15466 22.8452C1.8421 22.5326 1.6665 22.1087 1.6665 21.6667V6.66667C1.6665 6.22464 1.8421 5.80072 2.15466 5.48816C2.46722 5.17559 2.89114 5 3.33317 5H13.3332C13.7752 5 14.1991 5.17559 14.5117 5.48816C14.8242 5.80072 14.9998 6.22464 14.9998 6.66667V21.6667Z" fill="#99AAB5"/>
  <path d="M15.0002 21.6668C14.1677 20.0018 11.9527 20.0002 11.6668 20.0002C10.0002 20.0002 7.50016 21.6668 5.00016 21.6668C4.16683 21.6668 3.3335 20.9202 3.3335 20.0002V6.66683C3.3335 5.74683 4.16683 5.00016 5.00016 5.00016C7.71266 5.00016 10.0002 3.3335 11.6668 3.3335C14.1668 3.3335 15.0002 4.9135 15.0002 5.8335V21.6668Z" fill="#E1E8ED"/>
  <path d="M28.3333 21.6667C28.3333 22.1087 28.1577 22.5326 27.8452 22.8452C27.5326 23.1577 27.1087 23.3333 26.6667 23.3333H16.6667C16.2246 23.3333 15.8007 23.1577 15.4882 22.8452C15.1756 22.5326 15 22.1087 15 21.6667V6.66667C15 6.22464 15.1756 5.80072 15.4882 5.48816C15.8007 5.17559 16.2246 5 16.6667 5H26.6667C27.1087 5 27.5326 5.17559 27.8452 5.48816C28.1577 5.80072 28.3333 6.22464 28.3333 6.66667V21.6667Z" fill="#99AAB5"/>
  <path d="M15 21.6668C15.8325 20.0018 18.0475 20.0002 18.3333 20.0002C20 20.0002 22.5 21.6668 25 21.6668C25.8333 21.6668 26.6667 20.9202 26.6667 20.0002V6.66683C26.6667 5.74683 25.8333 5.00016 25 5.00016C22.2867 5.00016 20 3.3335 18.3333 3.3335C15.8333 3.3335 15 4.9135 15 5.8335V21.6668Z" fill="#CCD6DD"/>
  </g>
  <defs>
  <clipPath id="clip0_4425_2659">
  <rect width="30" height="30" fill="white"/>
  </clipPath>
  </defs>
  </svg>
  