<svg width="26" height="26" viewBox="0 0 26 26" fill="none" xmlns="http://www.w3.org/2000/svg">
  <g clip-path="url(#clip0_5067_2767)">
  <path d="M0 20.9445C0 21.7107 0.304364 22.4455 0.846136 22.9873C1.38791 23.5291 2.12271 23.8334 2.88889 23.8334H20.2222C20.9884 23.8334 21.7232 23.5291 22.265 22.9873C22.8067 22.4455 23.1111 21.7107 23.1111 20.9445V8.66675C23.1111 7.90057 22.8067 7.16577 22.265 6.624C21.7232 6.08222 20.9884 5.77786 20.2222 5.77786H13.7222C11.1497 5.77786 11.5556 2.16675 7.62811 2.16675H2.88889C2.12271 2.16675 1.38791 2.47111 0.846136 3.01288C0.304364 3.55466 0 4.28946 0 5.05564L0 20.9445Z" fill="#DADCDE"/>
  <path d="M23.3538 8.66675H18.6146C14.6871 8.66675 14.7268 12.2779 12.1543 12.2779H5.65428C4.05889 12.2779 2.63394 13.5714 2.47217 15.1667L2.11611 17.9646L1.73767 20.9445L1.72322 20.9431C1.63944 21.3815 1.23789 21.6646 0.784333 21.6646C0.319944 21.6646 -0.0144444 21.2984 0.00866667 20.8384C0.00722222 20.8745 0 20.9084 0 20.9445C0.00108501 21.6341 0.249481 22.3004 0.700065 22.8224C1.15065 23.3445 1.77353 23.6875 2.45556 23.7894C2.58339 23.8168 2.7235 23.8334 2.88889 23.8334H21.6667C23.2621 23.8334 24.687 22.5399 24.8488 20.9445L25.9487 11.5556C26.1112 9.96025 24.9492 8.66675 23.3538 8.66675Z" fill="#C3C2C7"/>
  </g>
  <defs>
  <clipPath id="clip0_5067_2767">
  <rect width="26" height="26" fill="white"/>
  </clipPath>
  </defs>
  </svg>
  