<svg width="16" height="16" viewBox="0 0 16 16" fill="none" xmlns="http://www.w3.org/2000/svg">
  <path d="M10.5117 10.3542L5.64551 5.48796L9.81706 2.01196L13.9882 6.18307L10.5117 10.3542Z" fill="#BE1931"/>
  <path d="M15.3775 6.18315C15.1951 6.36585 14.9784 6.51078 14.7399 6.60967C14.5014 6.70856 14.2457 6.75945 13.9875 6.75945C13.7294 6.75945 13.4737 6.70856 13.2352 6.60967C12.9967 6.51078 12.78 6.36585 12.5975 6.18315L9.81666 3.40271C9.46235 3.031 9.26745 2.53547 9.27358 2.02199C9.27971 1.50851 9.4864 1.01778 9.84948 0.654634C10.2126 0.291491 10.7033 0.0847278 11.2167 0.0785134C11.7302 0.0722989 12.2258 0.267126 12.5975 0.621376L15.3775 3.40271C15.5601 3.58526 15.705 3.80199 15.8038 4.04052C15.9027 4.27906 15.9535 4.53473 15.9535 4.79293C15.9535 5.05113 15.9027 5.3068 15.8038 5.54534C15.705 5.78387 15.5601 6.00061 15.3775 6.18315Z" fill="#DD2E44"/>
  <path d="M6.22243 7.92139C6.22243 7.92139 -0.263347 15.5685 0.0837642 15.9169C0.43132 16.2649 8.07888 9.77783 8.07888 9.77783L6.22243 7.92139Z" fill="#99AAB5"/>
  <path d="M11.2064 12.4404C11.0239 12.6231 10.8071 12.7681 10.5685 12.867C10.3298 12.9659 10.0741 13.0168 9.81577 13.0168C9.55746 13.0168 9.30169 12.9659 9.06307 12.867C8.82445 12.7681 8.60766 12.6231 8.4251 12.4404L3.55932 7.57372C3.20085 7.2028 3.00246 6.70589 3.00691 6.19008C3.01135 5.67427 3.21827 5.18085 3.58308 4.81616C3.94789 4.45147 4.44137 4.2447 4.95719 4.24042C5.473 4.23614 5.96985 4.43469 6.34066 4.79328L11.2064 9.6595C11.389 9.84209 11.5339 10.0589 11.6327 10.2974C11.7316 10.536 11.7824 10.7917 11.7824 11.0499C11.7824 11.3082 11.7316 11.5639 11.6327 11.8025C11.5339 12.041 11.389 12.2578 11.2064 12.4404Z" fill="#DD2E44"/>
  </svg>
  