<svg width="22" height="22" viewBox="0 0 22 22" fill="none" xmlns="http://www.w3.org/2000/svg">
<path d="M22 19.5556C22 20.2039 21.7425 20.8256 21.284 21.284C20.8256 21.7425 20.2039 22 19.5556 22H2.44444C1.79614 22 1.17438 21.7425 0.715961 21.284C0.257539 20.8256 0 20.2039 0 19.5556V2.44444C0 1.79614 0.257539 1.17438 0.715961 0.715961C1.17438 0.257539 1.79614 0 2.44444 0L19.5556 0C20.2039 0 20.8256 0.257539 21.284 0.715961C21.7425 1.17438 22 1.79614 22 2.44444V19.5556Z" fill="#3B88C3"/>
<path d="M18.4557 6.11112L14.0557 2.44446V4.8889H9.16678C5.79161 4.8889 3.05566 7.62485 3.05566 11C3.05566 11.8641 3.23716 12.6855 3.56105 13.431L5.57772 11.7505C5.46614 11.2168 5.47496 10.665 5.60355 10.1352C5.73214 9.60537 5.97726 9.1109 6.32107 8.68778C6.66487 8.26466 7.0987 7.92353 7.59098 7.68922C8.08325 7.45492 8.62158 7.33335 9.16678 7.33335H14.0557V9.77779L18.4557 6.11112ZM18.4398 8.56962L16.4225 10.2502C16.534 10.7838 16.5251 11.3355 16.3964 11.8653C16.2678 12.395 16.0227 12.8894 15.6789 13.3124C15.3351 13.7355 14.9013 14.0766 14.4091 14.3108C13.9168 14.5451 13.3786 14.6667 12.8334 14.6667H7.94455V12.2222L3.54455 15.8889L7.94455 19.5556V17.1111H12.8334C16.208 17.1111 18.9446 14.3746 18.9446 11C18.9449 10.1638 18.7731 9.33651 18.4398 8.56962Z" fill="white"/>
</svg>
