<svg width="26" height="26" viewBox="0 0 26 26" fill="none" xmlns="http://www.w3.org/2000/svg">
  <g clip-path="url(#clip0_4270_3366)">
  <path d="M13.9251 4.61647C13.9251 4.90897 12.2134 4.90897 12.2134 4.61647C12.2134 3.96647 1.44434 -2.53281 1.44434 2.66647V12.4158C1.44434 14.2119 3.95478 13.8219 6.63928 12.6765C5.60722 15.2223 3.39072 19.6676 1.54761 22.7399C1.46711 22.874 1.43229 23.0306 1.44839 23.1861C1.46449 23.3416 1.53065 23.4878 1.63691 23.6025C1.74317 23.7172 1.88379 23.7944 2.03765 23.8223C2.19151 23.8503 2.35028 23.8275 2.49011 23.7575L6.28756 21.8588C6.60606 22.3831 6.95995 23.2079 7.28134 23.9576C7.52184 24.5195 7.771 25.1001 8.02089 25.6006C8.08103 25.7204 8.17322 25.8212 8.28721 25.8917C8.4012 25.9622 8.53252 25.9997 8.66656 26C8.85809 26 9.04176 25.9239 9.17717 25.7884C10.2027 24.7636 11.6537 19.7254 12.6388 15.6101C13.6239 19.7254 15.0748 24.7636 16.1004 25.7884C16.1812 25.8696 16.2801 25.9303 16.389 25.9656C16.498 26.0009 16.6137 26.0097 16.7267 25.9913C16.8397 25.973 16.9468 25.928 17.0389 25.86C17.1311 25.7921 17.2057 25.7032 17.2567 25.6006C17.5073 25.1001 17.7557 24.5195 17.9962 23.9576C18.3176 23.2079 18.6715 22.3824 18.99 21.8588L22.7874 23.7575C22.9273 23.8264 23.0856 23.8482 23.2388 23.8198C23.3921 23.7914 23.5321 23.7143 23.638 23.6C23.7439 23.4857 23.81 23.3402 23.8266 23.1852C23.8432 23.0302 23.8093 22.8741 23.7299 22.7399C21.7547 19.448 19.3526 14.5817 18.4375 12.1644C21.4152 13.6739 24.5554 14.4589 24.5554 12.415V2.66575C24.5554 -2.53281 13.9251 3.96647 13.9251 4.61647Z" fill="#DD2E44"/>
  <path d="M1.52637 12.9054C2.37642 15.2158 9.80881 11.6148 12.2586 9.165C12.4825 8.94112 12.6551 8.73023 12.806 8.52584C5.2617 8.70784 2.30348 11.3114 1.52637 12.9054ZM13.43 8.52295C13.5831 8.72878 13.7572 8.94039 13.9825 9.16573C16.5825 11.7657 24.5551 15.665 24.5551 12.4157V12.2648C23.3483 10.6766 20.1951 8.63778 13.43 8.52295Z" fill="#A0041E"/>
  <path d="M15.8887 8.23311C15.8887 8.92255 15.6148 9.58376 15.1274 10.0713C14.64 10.5589 13.9788 10.8329 13.2894 10.8331H11.988C11.2985 10.8329 10.6374 10.5589 10.1499 10.0713C9.6625 9.58376 9.38867 8.92255 9.38867 8.23311V5.48867C9.38867 4.79923 9.6625 4.13802 10.1499 3.65045C10.6374 3.16288 11.2985 2.88886 11.988 2.88867H13.2894C13.9788 2.88886 14.64 3.16288 15.1274 3.65045C15.6148 4.13802 15.8887 4.79923 15.8887 5.48867V8.23311Z" fill="#EA596E"/>
  </g>
  <defs>
  <clipPath id="clip0_4270_3366">
  <rect width="26" height="26" fill="white"/>
  </clipPath>
  </defs>
  </svg>
  