<svg width="26" height="26" viewBox="0 0 26 26" fill="none" xmlns="http://www.w3.org/2000/svg">
  <path d="M12.9912 1.57733C10.8332 1.57733 9.1569 0.788667 8.39062 0V11.0442H17.5925V0C16.8255 0.788667 15.1665 1.57733 12.9912 1.57733Z" fill="#994308"/>
  <path d="M20.8792 5.74744V2.288C20.8792 1.50583 20.3924 0.824778 19.6983 0.634833L17.3735 0L12.9918 10.5365L8.61005 0L6.28521 0.634833C5.59116 0.824778 5.10438 1.50656 5.10438 2.288V5.74672C5.10438 8.39222 3.14282 10.5365 0.722656 10.5365V24.2847C0.722656 25.1557 1.40949 25.8628 2.25593 25.8628H10.8005C12.0103 25.8628 12.9918 24.7903 12.9918 23.4679C12.9918 24.7903 13.9725 25.8628 15.183 25.8628H23.7276C24.5748 25.8628 25.2616 25.1564 25.2616 24.2847V10.5365C22.8407 10.5365 20.8792 8.39222 20.8792 5.74744Z" fill="#EB7421"/>
  <path d="M0.722656 20.9445H12.9918V23.1111H0.722656V20.9445ZM25.2609 23.1111H12.9918V20.9445H25.2609V23.1111ZM0.722656 15.8889H12.9918V18.0556H0.722656V15.8889ZM25.2609 18.0556H12.9918V15.8889H25.2609V18.0556Z" fill="#FCFB65"/>
  <path d="M8.66667 16.6111V0.137222L8.60961 0L6.5 0.576333V16.6111H8.66667ZM19.5 16.6111V0.581389L17.3731 0L17.3333 0.0960556V16.6111H19.5Z" fill="#FCFB65"/>
  <path d="M12.2246 7.94446V25.2742C12.4689 25.0414 12.663 24.761 12.7949 24.4504C12.9268 24.1397 12.9937 23.8054 12.9916 23.4679C12.9916 24.175 13.2769 24.8033 13.7225 25.2417V7.94446H12.2246Z" fill="#994308"/>
  </svg>
  