<svg width="26" height="26" viewBox="0 0 26 26" fill="none" xmlns="http://www.w3.org/2000/svg">
  <g clip-path="url(#clip0_4270_3180)">
  <path d="M23.1111 0H7.22222C6.45604 0 5.72124 0.304364 5.17947 0.846136C4.6377 1.38791 4.33333 2.12271 4.33333 2.88889V20.2222H2.88889C2.12271 20.2222 1.38791 20.5266 0.846136 21.0684C0.304364 21.6101 0 22.3449 0 23.1111C0 23.8773 0.304364 24.6121 0.846136 25.1539C1.38791 25.6956 2.12271 26 2.88889 26H20.2222C20.9884 26 21.7232 25.6956 22.265 25.1539C22.8067 24.6121 23.1111 23.8773 23.1111 23.1111V5.77778C23.8773 5.77778 24.6121 5.47341 25.1539 4.93164C25.6956 4.38987 26 3.65507 26 2.88889C26 2.12271 25.6956 1.38791 25.1539 0.846136C24.6121 0.304364 23.8773 0 23.1111 0V0Z" fill="#FFD983"/>
  <path d="M5.77734 7.22233H23.1107V5.77789H7.22179L5.77734 5.05566V7.22233Z" fill="#E39F3D"/>
  <path d="M7.22222 0C6.45604 0 5.72124 0.304364 5.17947 0.846136C4.6377 1.38791 4.33333 2.12271 4.33333 2.88889V20.6231C3.89612 20.3632 3.39747 20.2249 2.88889 20.2222C2.31752 20.2222 1.75898 20.3917 1.28391 20.7091C0.808834 21.0265 0.438558 21.4777 0.219905 22.0056C0.0012517 22.5335 -0.0559579 23.1143 0.0555105 23.6747C0.166979 24.2351 0.442119 24.7498 0.846137 25.1539C1.25016 25.5579 1.76491 25.833 2.3253 25.9445C2.88569 26.056 3.46654 25.9988 3.99442 25.7801C4.5223 25.5614 4.97348 25.1912 5.29091 24.7161C5.60835 24.241 5.77778 23.6825 5.77778 23.1111V5.37695C6.20389 5.62539 6.69356 5.77778 7.22222 5.77778C7.98841 5.77778 8.72321 5.47341 9.26498 4.93164C9.80675 4.38987 10.1111 3.65507 10.1111 2.88889C10.1111 2.12271 9.80675 1.38791 9.26498 0.846136C8.72321 0.304364 7.98841 0 7.22222 0V0Z" fill="#FFE8B6"/>
  <path d="M8.6663 2.88901C8.66626 3.07875 8.62884 3.26662 8.55619 3.44189C8.48353 3.61716 8.37707 3.77641 8.24287 3.91054C8.10868 4.04467 7.94938 4.15105 7.77407 4.22362C7.59876 4.29618 7.41087 4.33351 7.22114 4.33346C7.0314 4.33341 6.84353 4.29599 6.66826 4.22334C6.49299 4.15069 6.33374 4.04423 6.19961 3.91003C6.06548 3.77583 5.9591 3.61653 5.88653 3.44122C5.81397 3.26591 5.77664 3.07803 5.77669 2.88829C5.77679 2.50511 5.9291 2.13765 6.20012 1.86677C6.47114 1.59588 6.83867 1.44375 7.22186 1.44385C7.60504 1.44394 7.9725 1.59626 8.24338 1.86728C8.51427 2.1383 8.6664 2.50583 8.6663 2.88901ZM4.33297 23.1112C4.33292 23.301 4.2955 23.4888 4.22285 23.6641C4.1502 23.8394 4.04374 23.9986 3.90954 24.1328C3.77534 24.2669 3.61604 24.3733 3.44073 24.4458C3.26542 24.5184 3.07754 24.5557 2.8878 24.5557C2.69807 24.5556 2.5102 24.5182 2.33493 24.4456C2.15965 24.3729 2.00041 24.2665 1.86628 24.1323C1.73215 23.9981 1.62577 23.8388 1.5532 23.6634C1.48064 23.4881 1.44331 23.3003 1.44336 23.1105C1.44346 22.7273 1.59577 22.3599 1.86679 22.089C2.13781 21.8181 2.50534 21.666 2.88853 21.6661C3.27171 21.6662 3.63917 21.8185 3.91005 22.0895C4.18094 22.3605 4.33307 22.7281 4.33297 23.1112ZM21.6663 10.8335C21.6663 11.025 21.5902 11.2087 21.4548 11.3441C21.3193 11.4796 21.1356 11.5557 20.9441 11.5557H7.94408C7.75254 11.5557 7.56884 11.4796 7.43339 11.3441C7.29795 11.2087 7.22186 11.025 7.22186 10.8335C7.22186 10.6419 7.29795 10.4582 7.43339 10.3228C7.56884 10.1873 7.75254 10.1112 7.94408 10.1112H20.9441C21.1356 10.1112 21.3193 10.1873 21.4548 10.3228C21.5902 10.4582 21.6663 10.6419 21.6663 10.8335ZM21.6663 13.7223C21.6663 13.9139 21.5902 14.0976 21.4548 14.233C21.3193 14.3685 21.1356 14.4446 20.9441 14.4446H7.94408C7.75254 14.4446 7.56884 14.3685 7.43339 14.233C7.29795 14.0976 7.22186 13.9139 7.22186 13.7223C7.22186 13.5308 7.29795 13.3471 7.43339 13.2117C7.56884 13.0762 7.75254 13.0001 7.94408 13.0001H20.9441C21.1356 13.0001 21.3193 13.0762 21.4548 13.2117C21.5902 13.3471 21.6663 13.5308 21.6663 13.7223ZM21.6663 16.6112C21.6663 16.8028 21.5902 16.9865 21.4548 17.1219C21.3193 17.2574 21.1356 17.3335 20.9441 17.3335H7.94408C7.75254 17.3335 7.56884 17.2574 7.43339 17.1219C7.29795 16.9865 7.22186 16.8028 7.22186 16.6112C7.22186 16.4197 7.29795 16.236 7.43339 16.1005C7.56884 15.9651 7.75254 15.889 7.94408 15.889H20.9441C21.1356 15.889 21.3193 15.9651 21.4548 16.1005C21.5902 16.236 21.6663 16.4197 21.6663 16.6112ZM21.6663 19.5001C21.6663 19.6917 21.5902 19.8754 21.4548 20.0108C21.3193 20.1463 21.1356 20.2223 20.9441 20.2223H7.94408C7.75254 20.2223 7.56884 20.1463 7.43339 20.0108C7.29795 19.8754 7.22186 19.6917 7.22186 19.5001C7.22186 19.3086 7.29795 19.1249 7.43339 18.9894C7.56884 18.854 7.75254 18.7779 7.94408 18.7779H20.9441C21.1356 18.7779 21.3193 18.854 21.4548 18.9894C21.5902 19.1249 21.6663 19.3086 21.6663 19.5001Z" fill="#C1694F"/>
  </g>
  <defs>
  <clipPath id="clip0_4270_3180">
  <rect width="26" height="26" fill="white"/>
  </clipPath>
  </defs>
  </svg>
  