<svg width="26" height="26" viewBox="0 0 26 26" fill="none" xmlns="http://www.w3.org/2000/svg">
  <path d="M23.8338 2.16667C18.7782 0 13.0005 0 13.0005 0C13.0005 0 7.22268 0 2.16713 2.16667C0.000458717 13 2.16713 22.3889 13.0005 26C23.8338 22.3889 26.0005 13 23.8338 2.16667Z" fill="#CCD6DD"/>
  <path d="M12.9997 24.4718C4.63059 21.471 1.41598 14.3224 3.43748 3.20957C7.98965 1.4654 12.9477 1.44446 12.9997 1.44446C13.051 1.44446 18.0249 1.47335 22.5619 3.20957C24.5834 14.3224 21.3688 21.471 12.9997 24.4718Z" fill="#55ACEE"/>
  <path d="M22.5622 3.20957C18.0252 1.47335 13.0513 1.44446 13 1.44446V24.4718C21.3691 21.471 24.5837 14.3224 22.5622 3.20957Z" fill="#226699"/>
  </svg>
  