<svg width="24" height="24" viewBox="0 0 24 24" fill="none" xmlns="http://www.w3.org/2000/svg">
  <path d="M24 21.3333C24 22.0406 23.719 22.7189 23.219 23.219C22.7189 23.719 22.0406 24 21.3333 24H2.66667C1.95942 24 1.28115 23.719 0.781049 23.219C0.280952 22.7189 0 22.0406 0 21.3333V2.66667C0 1.95942 0.280952 1.28115 0.781049 0.781049C1.28115 0.280952 1.95942 0 2.66667 0L21.3333 0C22.0406 0 22.7189 0.280952 23.219 0.781049C23.719 1.28115 24 1.95942 24 2.66667V21.3333Z" fill="#226699"/>
  <path d="M7.33301 6.00018C7.33301 6.00018 12.193 2.96218 21.333 2.68751C21.7677 2.67418 22.6663 2.66685 22.6663 3.33351C18.6663 9.33351 16.6663 18.6668 16.6663 18.6668L7.33301 6.00018Z" fill="#F4900C"/>
  <path d="M8 10.6668C8 10.6668 16 3.33349 21.3333 2.68749C21.7647 2.63482 22.6667 2.66682 22.6667 3.33349C18 6.00016 14.6667 16.0002 14.6667 16.0002L8 10.6668Z" fill="#FFAC33"/>
  <path d="M10.1038 8.2921C10.6545 8.77677 11.6958 9.0681 12.4178 8.9401L15.6792 8.36277C16.4018 8.23477 16.7545 8.68143 16.4645 9.35477L15.1525 12.3968C14.8618 13.0701 14.9065 14.1501 15.2512 14.7981L16.8078 17.7208C17.1532 18.3688 16.8372 18.8421 16.1072 18.7741L12.8092 18.4654C12.0792 18.3974 11.0652 18.7734 10.5565 19.3014L8.2565 21.6861C7.74784 22.2141 7.19984 22.0608 7.0385 21.3448L6.3125 18.1134C6.15184 17.3981 5.4805 16.5501 4.82117 16.2288L1.84317 14.7788C1.18384 14.4581 1.1605 13.8888 1.79117 13.5148L4.6405 11.8254C5.27117 11.4514 5.8705 10.5514 5.97184 9.82477L6.43117 6.54477C6.5325 5.8181 7.0665 5.6201 7.61717 6.10477L10.1038 8.2921Z" fill="#FFD983"/>
  </svg>
  