<svg width="26" height="26" viewBox="0 0 26 26" fill="none" xmlns="http://www.w3.org/2000/svg">
  <g clip-path="url(#clip0_5280_2970)">
  <path d="M7.94477 0C6.41241 0 4.94281 0.608729 3.85926 1.69227C2.77572 2.77582 2.16699 4.24542 2.16699 5.77778V11.5556H3.61144V5.77778C3.61144 4.62851 4.06798 3.52631 4.88064 2.71365C5.6933 1.90099 6.7955 1.44444 7.94477 1.44444C9.09404 1.44444 10.1962 1.90099 11.0089 2.71365C11.8216 3.52631 12.2781 4.62851 12.2781 5.77778V11.5556H13.7225V5.77778C13.7225 4.24542 13.1138 2.77582 12.0303 1.69227C10.9467 0.608729 9.47713 0 7.94477 0V0Z" fill="#F4900C"/>
  <path d="M0.722656 5.77783L2.1671 7.22228L3.61155 5.77783L5.05599 7.22228L6.50044 5.77783L7.94488 7.22228L9.38933 5.77783L10.8338 7.22228L12.2782 5.77783L13.7227 7.22228L15.1671 5.77783V22.3889H0.722656V5.77783Z" fill="#DD2E44"/>
  <path d="M18.0551 3.61133C16.5228 3.61133 15.0532 4.22006 13.9696 5.3036C12.8861 6.38714 12.2773 7.85674 12.2773 9.3891V15.1669H13.7218V9.3891C13.7218 8.23983 14.1783 7.13763 14.991 6.32498C15.8037 5.51232 16.9059 5.05577 18.0551 5.05577C19.2044 5.05577 20.3066 5.51232 21.1193 6.32498C21.9319 7.13763 22.3885 8.23983 22.3885 9.3891V15.1669H23.8329V9.3891C23.8329 7.85674 23.2242 6.38714 22.1406 5.3036C21.0571 4.22006 19.5875 3.61133 18.0551 3.61133Z" fill="#FFCC4D"/>
  <path d="M10.833 9.38867L12.2775 10.8331L13.7219 9.38867L15.1663 10.8331L16.6108 9.38867L18.0552 10.8331L19.4997 9.38867L20.9441 10.8331L22.3886 9.38867L23.833 10.8331L25.2775 9.38867V25.9998H10.833V9.38867Z" fill="#744EAA"/>
  </g>
  <defs>
  <clipPath id="clip0_5280_2970">
  <rect width="26" height="26" fill="white"/>
  </clipPath>
  </defs>
  </svg>
  