<svg width="30" height="30" viewBox="0 0 30 30" fill="none" xmlns="http://www.w3.org/2000/svg">
  <path d="M15.8332 22.9883V7.0125L19.8565 2.98833C19.8565 2.98833 20.4457 2.39917 19.8565 1.80917C19.2674 1.22 18.6782 1.80917 18.6782 1.80917L15.8332 4.655V0.833333C15.8332 0.833333 15.8332 0 14.9999 0C14.1665 0 14.1665 0.833333 14.1665 0.833333V4.655L11.3215 1.80917C11.3215 1.80917 10.7324 1.22 10.1432 1.80917C9.55403 2.39917 10.1432 2.98833 10.1432 2.98833L14.1665 7.0125V22.9883L10.1432 27.0117C10.1432 27.0117 9.55403 27.6008 10.1432 28.19C10.7324 28.7792 11.3215 28.19 11.3215 28.19L14.1665 25.345V29.1667C14.1665 29.1667 14.1665 30 14.9999 30C15.8332 30 15.8332 29.1667 15.8332 29.1667V25.345L18.6782 28.19C18.6782 28.19 19.2674 28.7792 19.8565 28.19C20.4457 27.6008 19.8565 27.0117 19.8565 27.0117L15.8332 22.9883Z" fill="#88C9F9"/>
  <path d="M28.8517 17.3884C28.6358 16.5834 27.8308 16.7992 27.8308 16.7992L22.335 18.2717L8.49916 10.2834L7.02665 4.78755C7.02665 4.78755 6.81082 3.98255 6.00582 4.19838C5.19999 4.41422 5.41665 5.21922 5.41665 5.21922L6.45832 9.10588L3.14832 7.19422C3.14832 7.19422 2.42665 6.77755 2.00999 7.49922C1.59332 8.22088 2.31499 8.63755 2.31499 8.63755L5.62415 10.5484L1.73749 11.5892C1.73749 11.5892 0.931654 11.8051 1.14832 12.6101C1.36415 13.4159 2.16915 13.2001 2.16915 13.2001L7.66582 11.7276L21.5017 19.7159L22.9742 25.2126C22.9742 25.2126 23.19 26.0176 23.995 25.8017C24.8 25.5851 24.5842 24.7809 24.5842 24.7809L23.5425 20.8942L26.8525 22.805C26.8525 22.805 27.575 23.2217 27.9917 22.5009C28.4083 21.7784 27.6858 21.3617 27.6858 21.3617L24.3767 19.4509L28.2625 18.4101C28.2625 18.4092 29.0675 18.1934 28.8517 17.3884Z" fill="#88C9F9"/>
  <path d="M28.2626 11.5893L24.376 10.5476L27.686 8.63678C27.686 8.63678 28.4085 8.21927 27.9918 7.49761C27.5743 6.77511 26.8526 7.19261 26.8526 7.19261L23.5435 9.10261L24.5843 5.21678C24.5843 5.21678 24.8001 4.41178 23.9951 4.19594C23.1901 3.98011 22.9743 4.78511 22.9743 4.78511L21.5018 10.2809L7.66513 18.2718L2.17013 16.7984C2.17013 16.7984 1.36513 16.5826 1.1493 17.3876C0.932631 18.1934 1.73846 18.4084 1.73846 18.4084L5.6243 19.4493L2.31513 21.3601C2.31513 21.3601 1.5943 21.7776 2.01096 22.4993C2.42763 23.2201 3.14846 22.8034 3.14846 22.8034L6.45846 20.8926L5.4168 24.7784C5.4168 24.7784 5.20096 25.5843 6.00596 25.7993C6.8118 26.0159 7.02763 25.2109 7.02763 25.2109L8.50096 19.7134L22.3376 11.7259L27.8335 13.1993C27.8335 13.1993 28.6385 13.4151 28.8543 12.6101C29.0668 11.8043 28.2626 11.5893 28.2626 11.5893Z" fill="#88C9F9"/>
  </svg>
  