<svg width="26" height="26" viewBox="0 0 26 26" fill="none" xmlns="http://www.w3.org/2000/svg">
  <path d="M13 0.722168C5.82039 0.722168 0 5.24906 0 10.8333C0 13.9879 1.859 16.8046 4.76956 18.6586C4.39111 20.3262 3.50928 22.7998 1.44444 25.2777C5.603 24.5844 8.2615 22.5614 9.906 20.6439C10.8998 20.8332 11.9318 20.9444 13 20.9444C20.1796 20.9444 26 16.4175 26 10.8333C26 5.24906 20.1796 0.722168 13 0.722168Z" fill="#BDDDF4"/>
  <path d="M13.0001 12.2776C13.7979 12.2776 14.4446 11.6309 14.4446 10.8331C14.4446 10.0354 13.7979 9.38867 13.0001 9.38867C12.2024 9.38867 11.5557 10.0354 11.5557 10.8331C11.5557 11.6309 12.2024 12.2776 13.0001 12.2776Z" fill="#2A6797"/>
  <path d="M18.7775 12.2776C19.5752 12.2776 20.2219 11.6309 20.2219 10.8331C20.2219 10.0354 19.5752 9.38867 18.7775 9.38867C17.9797 9.38867 17.333 10.0354 17.333 10.8331C17.333 11.6309 17.9797 12.2776 18.7775 12.2776Z" fill="#2A6797"/>
  <path d="M7.22179 12.2776C8.01953 12.2776 8.66623 11.6309 8.66623 10.8331C8.66623 10.0354 8.01953 9.38867 7.22179 9.38867C6.42404 9.38867 5.77734 10.0354 5.77734 10.8331C5.77734 11.6309 6.42404 12.2776 7.22179 12.2776Z" fill="#2A6797"/>
  </svg>
  