<svg width="30" height="30" viewBox="0 0 30 30" fill="none" xmlns="http://www.w3.org/2000/svg">
  <path d="M30 9.5835C30 7.05183 27.5 3.3335 15 3.3335C2.5 3.3335 0 7.05183 0 9.5835C0 9.621 0.0158333 9.64683 0.0183333 9.68266C0.00833333 9.846 0 10.0177 0 10.2085C0 12.3943 1.86583 13.3335 4.16667 13.3335C6.4675 13.3335 8.33333 12.3943 8.33333 10.2085C8.33279 10.0418 8.31857 9.87539 8.29083 9.711C10.3117 9.4185 12.585 9.16683 15 9.16683C17.415 9.16683 19.6883 9.4185 21.7092 9.711C21.6814 9.87539 21.6672 10.0418 21.6667 10.2085C21.6667 12.3943 23.5317 13.3335 25.8333 13.3335C28.135 13.3335 30 12.3943 30 10.2085C30 10.021 29.9925 9.851 29.98 9.691C29.9833 9.65266 30 9.62433 30 9.5835Z" fill="#BE1931"/>
  <path d="M29.1117 19.1668C28.71 18.3077 27.1867 15.6752 25.805 13.3277C24.5067 11.1218 22.5 9.16683 20.8333 9.16683V7.50016C20.8333 7.05814 20.6577 6.63421 20.3452 6.32165C20.0326 6.00909 19.6087 5.8335 19.1667 5.8335C18.7246 5.8335 18.3007 6.00909 17.9882 6.32165C17.6756 6.63421 17.5 7.05814 17.5 7.50016V9.16683H12.5V7.50016C12.5 7.05814 12.3244 6.63421 12.0118 6.32165C11.6993 6.00909 11.2754 5.8335 10.8333 5.8335C10.3913 5.8335 9.96738 6.00909 9.65482 6.32165C9.34226 6.63421 9.16667 7.05814 9.16667 7.50016V9.16683C7.5 9.16683 5.49167 11.126 4.19167 13.3335C2.81083 15.6793 1.28917 18.3085 0.888333 19.1668C0.406667 20.1993 0 20.8335 0 22.5002C0 24.1668 1.4925 26.6668 3.33333 26.6668H26.6667C28.5075 26.6668 30 24.1668 30 22.5002C30 20.8335 29.6267 20.2702 29.1117 19.1668Z" fill="#DD2E44"/>
  <path d="M16.7051 12.3482C16.7051 12.7248 15.9417 13.0298 15.0001 13.0298C14.0584 13.0298 13.2959 12.7248 13.2959 12.3482C13.2959 11.9715 14.0584 11.6665 15.0001 11.6665C15.9417 11.6665 16.7051 11.9715 16.7051 12.3482ZM12.6134 12.3482C12.6134 12.7248 11.8509 13.0298 10.9092 13.0298C9.96755 13.0298 9.20505 12.7248 9.20505 12.3482C9.20505 11.9715 9.96838 11.6665 10.9092 11.6665C11.8501 11.6665 12.6134 11.9715 12.6134 12.3482ZM20.7951 12.3482C20.7951 12.7248 20.0326 13.0298 19.0909 13.0298C18.1492 13.0298 17.3859 12.7248 17.3859 12.3482C17.3859 11.9715 18.1492 11.6665 19.0909 11.6665C20.0326 11.6665 20.7951 11.9715 20.7951 12.3482ZM17.0451 14.7348C17.0451 15.3007 16.1292 15.7582 15.0001 15.7582C13.8709 15.7582 12.9542 15.3007 12.9542 14.7348C12.9542 14.1707 13.8701 13.7123 15.0001 13.7123C16.1301 13.7123 17.0451 14.1698 17.0451 14.7348ZM21.8184 14.7348C21.8184 15.3007 20.9017 15.7582 19.7734 15.7582C18.6442 15.7582 17.7276 15.3007 17.7276 14.7348C17.7276 14.1707 18.6442 13.7123 19.7734 13.7123C20.9017 13.7123 21.8184 14.1698 21.8184 14.7348ZM12.2726 14.7348C12.2726 15.3007 11.3567 15.7582 10.2276 15.7582C9.09839 15.7582 8.18172 15.3007 8.18172 14.7348C8.18172 14.1707 9.09755 13.7123 10.2276 13.7123C11.3567 13.7123 12.2726 14.1698 12.2726 14.7348ZM17.7267 17.8023C17.7267 18.5573 16.5059 19.1665 15.0001 19.1665C13.4942 19.1665 12.2726 18.5573 12.2726 17.8023C12.2726 17.0498 13.4942 16.439 15.0001 16.439C16.5059 16.4398 17.7267 17.0498 17.7267 17.8023ZM23.8642 17.8023C23.8642 18.5565 22.6417 19.1665 21.1367 19.1665C19.6309 19.1665 18.4092 18.5573 18.4092 17.8023C18.4092 17.0498 19.6309 16.439 21.1367 16.439C22.6417 16.4398 23.8642 17.0498 23.8642 17.8023ZM11.5909 17.8023C11.5909 18.5565 10.3692 19.1665 8.86338 19.1665C7.35755 19.1665 6.13672 18.5573 6.13672 17.8023C6.13672 17.0498 7.35755 16.439 8.86338 16.439C10.3692 16.4398 11.5909 17.0498 11.5909 17.8023Z" fill="white"/>
  </svg>
  