<svg width="26" height="26" viewBox="0 0 26 26" fill="none" xmlns="http://www.w3.org/2000/svg">
  <path d="M25.1101 7.81022L23.1341 5.8335L20.1672 2.86805L18.1898 0.890611C17.0978 -0.201389 15.3276 -0.201389 14.266 0.860999L9.99763 5.13006C10.0569 5.34744 10.111 5.55544 10.111 5.77789C10.111 6.16098 9.95884 6.52838 9.68795 6.79926C9.41706 7.07015 9.04967 7.22233 8.66657 7.22233C8.44413 7.22233 8.23613 7.16817 8.04763 7.07789L0.890408 14.2358C0.630717 14.4955 0.424717 14.8038 0.284172 15.1431C0.143627 15.4824 0.0712891 15.846 0.0712891 16.2133C0.0712891 16.5805 0.143627 16.9442 0.284172 17.2835C0.424717 17.6228 0.630717 17.931 0.890408 18.1907L2.86785 20.1674L5.8333 23.1336L7.81002 25.1103C8.0697 25.37 8.37798 25.576 8.71727 25.7166C9.05656 25.8571 9.42022 25.9295 9.78746 25.9295C10.1547 25.9295 10.5184 25.8571 10.8577 25.7166C11.1969 25.576 11.5052 25.37 11.7649 25.1103L18.9229 17.9531C18.8282 17.7602 18.7785 17.5483 18.7777 17.3334C18.7777 16.9504 18.9299 16.583 19.2008 16.3121C19.4716 16.0412 19.839 15.889 20.2221 15.889C20.4446 15.889 20.6533 15.9432 20.8411 16.0334L25.1094 11.7644C25.6338 11.2401 25.9284 10.529 25.9285 9.78745C25.9287 9.04594 25.6343 8.33473 25.1101 7.81022ZM11.5555 10.1112C11.3657 10.1112 11.1779 10.0738 11.0026 10.0011C10.8273 9.92845 10.6681 9.82199 10.5339 9.68779C10.3998 9.5536 10.2934 9.39429 10.2209 9.21899C10.1483 9.04368 10.111 8.85579 10.111 8.66605C10.1111 8.47632 10.1485 8.28845 10.2211 8.11318C10.2938 7.9379 10.4003 7.77866 10.5344 7.64453C10.6686 7.5104 10.8279 7.40402 11.0033 7.33145C11.1786 7.25889 11.3665 7.22156 11.5562 7.22161C11.9394 7.22171 12.3068 7.37402 12.5777 7.64504C12.8486 7.91606 13.0007 8.28359 13.0006 8.66678C13.0005 9.04996 12.8482 9.41742 12.5772 9.6883C12.3062 9.95919 11.9387 10.1113 11.5555 10.1112ZM14.4444 13.0001C14.2546 13.0001 14.0668 12.9626 13.8915 12.89C13.7162 12.8173 13.557 12.7109 13.4228 12.5767C13.2887 12.4425 13.1823 12.2832 13.1097 12.1079C13.0372 11.9326 12.9999 11.7447 12.9999 11.5549C13 11.3652 13.0374 11.1773 13.11 11.0021C13.1827 10.8268 13.2891 10.6675 13.4233 10.5334C13.5575 10.3993 13.7168 10.2929 13.8921 10.2203C14.0675 10.1478 14.2553 10.1105 14.4451 10.1105C14.8283 10.1106 15.1957 10.2629 15.4666 10.5339C15.7375 10.8049 15.8896 11.1725 15.8895 11.5557C15.8894 11.9389 15.7371 12.3063 15.4661 12.5772C15.1951 12.8481 14.8275 13.0002 14.4444 13.0001ZM17.3332 15.889C17.1435 15.889 16.9556 15.8515 16.7804 15.7789C16.6051 15.7062 16.4458 15.5998 16.3117 15.4656C16.1776 15.3314 16.0712 15.1721 15.9986 14.9968C15.9261 14.8215 15.8887 14.6336 15.8888 14.4438C15.8888 14.2541 15.9263 14.0662 15.9989 13.891C16.0716 13.7157 16.178 13.5564 16.3122 13.4223C16.4464 13.2882 16.6057 13.1818 16.781 13.1092C16.9563 13.0367 17.1442 12.9993 17.334 12.9994C17.7171 12.9995 18.0846 13.1518 18.3555 13.4228C18.6264 13.6938 18.7785 14.0614 18.7784 14.4446C18.7783 14.8277 18.626 15.1952 18.355 15.4661C18.084 15.737 17.7164 15.8891 17.3332 15.889Z" fill="#CCD6DD"/>
  <path d="M7.94412 21.6667C7.80115 21.667 7.6613 21.6248 7.54234 21.5455C7.42337 21.4662 7.33065 21.3533 7.27594 21.2212C7.22123 21.0892 7.207 20.9438 7.23505 20.8036C7.26311 20.6634 7.33218 20.5347 7.43351 20.4338L10.3224 17.5449C10.3895 17.4779 10.4691 17.4247 10.5567 17.3884C10.6443 17.3521 10.7382 17.3334 10.833 17.3334C10.9278 17.3334 11.0217 17.3521 11.1094 17.3884C11.197 17.4247 11.2766 17.4779 11.3436 17.5449C11.4107 17.612 11.4639 17.6916 11.5002 17.7792C11.5364 17.8668 11.5551 17.9607 11.5551 18.0556C11.5551 18.1504 11.5364 18.2443 11.5002 18.3319C11.4639 18.4195 11.4107 18.4991 11.3436 18.5662L8.45473 21.4551C8.38776 21.5222 8.30817 21.5755 8.22054 21.6118C8.13291 21.6481 8.03898 21.6668 7.94412 21.6667ZM5.77746 19.5C5.63448 19.5003 5.49464 19.4581 5.37567 19.3788C5.25671 19.2995 5.16398 19.1867 5.10927 19.0546C5.05456 18.9225 5.04033 18.7771 5.06839 18.6369C5.09644 18.4967 5.16552 18.368 5.26684 18.2672L10.3224 13.2116C10.3895 13.1446 10.4691 13.0914 10.5567 13.0551C10.6443 13.0188 10.7382 13.0001 10.833 13.0001C10.9278 13.0001 11.0217 13.0188 11.1094 13.0551C11.197 13.0914 11.2766 13.1446 11.3436 13.2116C11.4107 13.2787 11.4639 13.3583 11.5002 13.4459C11.5364 13.5335 11.5551 13.6274 11.5551 13.7222C11.5551 13.817 11.5364 13.9109 11.5002 13.9986C11.4639 14.0862 11.4107 14.1658 11.3436 14.2328L6.28807 19.2884C6.22109 19.3556 6.1415 19.4088 6.05387 19.4451C5.96625 19.4814 5.87231 19.5001 5.77746 19.5ZM3.61079 17.3333C3.46782 17.3336 3.32797 17.2915 3.209 17.2122C3.09004 17.1329 2.99732 17.02 2.94261 16.8879C2.8879 16.7558 2.87367 16.6105 2.90172 16.4703C2.92978 16.3301 2.99885 16.2014 3.10018 16.1005L8.15573 11.0449C8.22279 10.9779 8.30239 10.9247 8.39 10.8884C8.47761 10.8521 8.57152 10.8334 8.66634 10.8334C8.76117 10.8334 8.85507 10.8521 8.94269 10.8884C9.0303 10.9247 9.1099 10.9779 9.17696 11.0449C9.24401 11.112 9.2972 11.1916 9.33349 11.2792C9.36978 11.3668 9.38846 11.4607 9.38846 11.5556C9.38846 11.6504 9.36978 11.7443 9.33349 11.8319C9.2972 11.9195 9.24401 11.9991 9.17696 12.0662L4.1214 17.1217C4.05442 17.1889 3.97483 17.2422 3.88721 17.2785C3.79958 17.3148 3.70564 17.3334 3.61079 17.3333ZM14.7308 4.89883C14.5539 4.51316 14.5655 4.04733 14.8782 3.73533C15.2032 3.41033 15.643 3.39805 16.041 3.588L20.5743 5.71927C20.7087 5.77994 20.8069 5.85433 20.8495 5.89694C21.0886 6.136 21.0582 6.49783 20.8315 6.72461C20.5751 6.98172 20.3107 6.97594 20.0659 6.85316L19.3068 6.461L17.6046 8.16327L17.9902 8.91655C18.1195 9.16716 18.1253 9.43077 17.874 9.68211C17.6284 9.92694 17.2362 9.9515 16.9914 9.70666C16.8932 9.60844 16.8513 9.50444 16.8325 9.46183L14.7308 4.89883ZM17.0217 7.05466L18.1852 5.89116L15.8395 4.68433L15.8272 4.69661L17.0217 7.05466Z" fill="#99AAB5"/>
  </svg>
  