<svg width="30" height="30" viewBox="0 0 30 30" fill="none" xmlns="http://www.w3.org/2000/svg">
  <path d="M24.1667 14.9998H13.3333C10.2767 14.9998 9.16667 12.5082 9.16667 10.8332V9.1665H5.83333C3.33333 9.1665 3.33333 11.6665 3.33333 11.6665C3.33333 11.6665 1.66667 10.8332 0.833333 10.8332C0 10.8332 0 11.6665 0 11.6665V19.9998C0 19.9998 0 20.8332 0.833333 20.8332C1.66667 20.8332 3.33333 19.9998 3.33333 19.9998V25.8332C3.33333 29.1665 6.66667 29.1665 6.66667 29.1665H21.6667C25 29.1665 25 25.8332 25 25.8332V14.9115C24.7257 14.9679 24.4467 14.9975 24.1667 14.9998Z" fill="#31373D"/>
  <path d="M29.1667 5C28.7008 5 27.4583 5.77833 26.45 6.46667C26.1775 5.77833 25.5617 5 24.1667 5H15C15 5 10.8333 5 10.8333 9.16667V10.8333C10.8333 10.8333 10.8333 13.3333 13.3333 13.3333H24.1667C24.1667 13.3333 25.8958 13.3283 26.4758 11.8842C27.48 12.5683 28.705 13.3333 29.1667 13.3333C30 13.3333 30 12.5 30 12.5V5.83333C30 5.83333 30 5 29.1667 5ZM7.5 29.1667V21.6667C7.5 21.6667 7.5 19.1667 9.79167 19.1667H18.3333C18.3333 19.1667 20.8333 19.1667 20.8333 21.6667V29.1667H19.1667V21.6667C19.1667 21.6667 19.1667 20.8333 18.3333 20.8333H10C10 20.8333 9.16667 20.8333 9.16667 21.6667V29.1667H7.5Z" fill="#66757F"/>
  </svg>
  