<svg width="23" height="24" viewBox="0 0 23 24" fill="none" xmlns="http://www.w3.org/2000/svg">
  <g clip-path="url(#clip0_9449_1093)">
  <path d="M2.12116 21.3888C0.995493 21.3888 0.49927 20.5712 1.01749 19.572L10.5563 1.20506C11.0752 0.205897 11.924 0.205897 12.4428 1.20506L21.9817 19.5726C22.5011 20.5712 22.0043 21.3888 20.8786 21.3888H2.12116Z" fill="#FFC228"/>
  <path d="M10.0229 17.6935C10.0234 17.3016 10.1794 16.926 10.4565 16.6489C10.7336 16.3719 11.1094 16.2161 11.5012 16.2158C11.893 16.2163 12.2685 16.3721 12.5456 16.6491C12.8226 16.9262 12.9784 17.3017 12.9789 17.6935C12.9784 18.0853 12.8226 18.4609 12.5456 18.738C12.2686 19.0151 11.893 19.1711 11.5012 19.1717C11.1093 19.1713 10.7336 19.0154 10.4565 18.7382C10.1793 18.4611 10.0234 18.0854 10.0229 17.6935ZM10.1366 6.51442C10.1366 5.71875 10.7239 5.2262 11.5006 5.2262C12.259 5.2262 12.8652 5.7377 12.8652 6.51442V13.8099C12.8652 14.5866 12.259 15.0981 11.5006 15.0981C10.7239 15.0981 10.1366 14.6049 10.1366 13.8099V6.51442Z" fill="#231F20"/>
  </g>
  <defs>
  <clipPath id="clip0_9449_1093">
  <rect width="22" height="24" fill="white" transform="translate(0.5)"/>
  </clipPath>
  </defs>
  </svg>
  