<svg width="28" height="28" viewBox="0 0 28 28" fill="none" xmlns="http://www.w3.org/2000/svg">
  <path d="M11.1719 27.5156C11.8438 27.5156 12.375 27.2188 12.75 26.6406L27.5156 3.39062C27.7969 2.9375 27.9062 2.59375 27.9062 2.23438C27.9062 1.375 27.3438 0.8125 26.4844 0.8125C25.8594 0.8125 25.5156 1.01562 25.1406 1.60938L11.1094 23.9688L3.82812 14.4375C3.4375 13.8906 3.04688 13.6719 2.48438 13.6719C1.59375 13.6719 0.984375 14.2812 0.984375 15.1406C0.984375 15.5 1.14062 15.9062 1.4375 16.2812L9.54688 26.6094C10.0156 27.2188 10.5 27.5156 11.1719 27.5156Z" fill="#03CEA4"/>
  </svg>
  