<svg width="94" height="94" viewBox="0 0 94 94" fill="none" xmlns="http://www.w3.org/2000/svg">
  <path d="M47 85.1875V32.3125" stroke="#AC79FF" stroke-width="3" stroke-linecap="round" stroke-linejoin="round"/>
  <path d="M48.6528 66.5341C51.3479 68.3697 54.3954 69.6244 57.6017 70.2183C60.8079 70.8122 64.1027 70.7323 67.2764 69.9837C70.4501 69.2352 73.4334 67.8343 76.0363 65.8703C78.6392 63.9062 80.805 61.422 82.3957 58.5755C83.9865 55.7291 84.9674 52.5827 85.2762 49.3366C85.5849 46.0904 85.2148 42.8155 84.1892 39.7202C83.1636 36.6249 81.5051 33.7769 79.3191 31.3573C77.1331 28.9377 74.4675 26.9996 71.4919 25.6661C70.8385 25.3376 70.3193 24.7926 70.0231 24.1239C68.1195 19.589 64.919 15.7173 60.8232 12.9946C56.7274 10.2718 51.9187 8.81934 47.0005 8.81934C42.0822 8.81934 37.2735 10.2718 33.1777 12.9946C29.0819 15.7173 25.8814 19.589 23.9778 24.1239C23.6816 24.7926 23.1624 25.3376 22.509 25.6661C19.5334 26.9996 16.8678 28.9377 14.6818 31.3573C12.4958 33.7769 10.8373 36.6249 9.81171 39.7202C8.78614 42.8155 8.41597 46.0904 8.72474 49.3366C9.0335 52.5827 10.0145 55.7291 11.6052 58.5755C13.1959 61.422 15.3617 63.9062 17.9646 65.8703C20.5676 67.8343 23.5508 69.2352 26.7245 69.9837C29.8982 70.7323 33.193 70.8122 36.3992 70.2183C39.6055 69.6244 42.6531 68.3697 45.3481 66.5341C45.839 66.2119 46.4133 66.0402 47.0005 66.0402C47.5876 66.0402 48.162 66.2119 48.6528 66.5341Z" stroke="#AC79FF" stroke-width="3" stroke-linecap="round" stroke-linejoin="round"/>
  <path d="M47 55.8125L29.375 47" stroke="#AC79FF" stroke-width="3" stroke-linecap="round" stroke-linejoin="round"/>
  <path d="M47 47L64.625 38.1875" stroke="#AC79FF" stroke-width="3" stroke-linecap="round" stroke-linejoin="round"/>
  </svg>
  