<svg width="16" height="17" viewBox="0 0 16 17" fill="none" xmlns="http://www.w3.org/2000/svg">
  <path d="M8 15.5C11.8294 15.5 15 12.3225 15 8.5C15 4.67059 11.8225 1.5 7.99314 1.5C4.17059 1.5 1 4.67059 1 8.5C1 12.3225 4.17745 15.5 8 15.5ZM4.65098 8.50686C4.65098 8.15 4.89804 7.90294 5.2549 7.90294H7.40294V5.7549C7.40294 5.39804 7.64314 5.14412 7.99314 5.14412C8.35 5.14412 8.59706 5.39804 8.59706 5.7549V7.90294H10.752C11.102 7.90294 11.3559 8.15 11.3559 8.50686C11.3559 8.85686 11.102 9.0902 10.752 9.0902H8.59706V11.2451C8.59706 11.602 8.35 11.849 7.99314 11.849C7.64314 11.849 7.40294 11.5951 7.40294 11.2451V9.0902H5.2549C4.89804 9.0902 4.65098 8.85686 4.65098 8.50686Z" fill="#F9F9F9" />
</svg>
  