<svg width="40" height="40" viewBox="0 0 40 40" fill="none" xmlns="http://www.w3.org/2000/svg">
  <path fill-rule="evenodd" clip-rule="evenodd" d="M9.1837 36C13.4743 36 17.1096 32.3959 17.1096 28.0741C17.1096 23.7211 13.5211 20.1482 9.1837 20.1482C4.8307 20.1482 1.25781 23.7211 1.25781 28.0741C1.25781 32.4271 4.8307 36 9.1837 36ZM8.21637 32.0839C8.21637 32.6455 8.60642 33.0356 9.1837 33.0356C9.76098 33.0356 10.1354 32.6455 10.1354 32.0839V29.0258H13.1779C13.7551 29.0258 14.1452 28.6514 14.1452 28.0741C14.1452 27.4968 13.7551 27.1224 13.1779 27.1224H10.1354V24.0644C10.1354 23.5027 9.76098 23.1126 9.1837 23.1126C8.60642 23.1126 8.21637 23.5027 8.21637 24.0644V27.1224H5.17395C4.59667 27.1224 4.22222 27.4968 4.22222 28.0741C4.22222 28.6514 4.59667 29.0258 5.17395 29.0258H8.21637V32.0839Z" fill="#F9F9F9" />
  <path fill-rule="evenodd" clip-rule="evenodd" d="M38.9994 19.9142C38.9994 28.6202 31.7912 35.8284 23.0852 35.8284C20.8898 35.8284 18.7879 35.3683 16.8725 34.5403C18.3596 32.7829 19.2663 30.5224 19.2663 28.0742C19.2663 27.7799 19.2535 27.4884 19.2283 27.2004H30.2622C31.9472 27.2004 32.821 26.3579 32.821 24.6884V16.1853C32.821 14.4846 31.9472 13.6577 30.2622 13.6577H28.1871C27.563 13.6577 27.3446 13.5329 26.9857 13.1273L26.3305 12.394C25.9404 11.9415 25.5191 11.7075 24.6766 11.7075H21.4314C20.6045 11.7075 20.1832 11.9415 19.7776 12.394L19.1067 13.1273C18.7478 13.5017 18.5606 13.6577 17.9365 13.6577H15.9082C14.2076 13.6577 13.3495 14.4846 13.3495 16.1853V18.9014C12.0765 18.3174 10.6649 17.9914 9.18355 17.9914C8.52904 17.9914 7.88855 18.0547 7.26789 18.1754C8.15137 10.2811 14.9661 4 23.0696 4C31.7756 4 38.9994 11.2238 38.9994 19.9142ZM17.1093 28.1269C17.0951 30.1972 16.2472 32.0997 14.8945 33.5157C14.8907 33.5135 14.887 33.5112 14.8832 33.5089C16.2385 32.0959 17.0901 30.1958 17.1093 28.1269ZM27.9063 20.351C27.9063 23.097 25.7688 25.1721 23.1008 25.1721C20.4328 25.1721 18.2798 23.0502 18.2798 20.351C18.2798 17.6831 20.4328 15.53 23.1008 15.53C25.7688 15.53 27.9063 17.6831 27.9063 20.351ZM19.6527 20.351C19.6527 22.2545 21.1974 23.7835 23.0852 23.7835C24.9731 23.7835 26.5177 22.2545 26.5177 20.351C26.5177 18.4632 24.9731 16.9186 23.0852 16.9186C21.1974 16.9186 19.6527 18.4476 19.6527 20.351ZM29.5289 18.0419C30.1218 18.0419 30.621 17.5583 30.6054 16.9498C30.6054 16.3413 30.1218 15.8576 29.5289 15.8576C28.9204 15.8576 28.4211 16.3413 28.4211 16.9498C28.4211 17.5583 28.9204 18.0419 29.5289 18.0419Z" fill="#F9F9F9" />
</svg>
  