<svg width="19" height="12" viewBox="0 0 19 12" fill="none" xmlns="http://www.w3.org/2000/svg">
  <path d="M2.90142 11.965H10.7923C12.2691 11.965 13.1507 11.1128 13.1507 9.63598V2.35491C13.1507 0.885477 12.3426 0.0332031 10.8658 0.0332031H2.90142C1.49076 0.0332031 0.542969 0.885477 0.542969 2.35491V9.63598C0.542969 11.1128 1.42463 11.965 2.90142 11.965ZM14.15 8.16654L16.8243 10.4809C17.0741 10.7013 17.368 10.8409 17.6325 10.8409C18.2056 10.8409 18.5803 10.4221 18.5803 9.81966V2.17858C18.5803 1.57611 18.2056 1.15732 17.6325 1.15732C17.368 1.15732 17.0741 1.29692 16.8243 1.51734L14.15 3.82435V8.16654Z" fill="#F9F9F9" />
</svg>
  