<svg width="20" height="17" viewBox="0 0 20 17" fill="none" xmlns="http://www.w3.org/2000/svg">
  <path d="M1.39464 16.1043H2.35347C2.96811 16.1043 3.44342 15.629 3.44342 15.0226V13.654C5.26274 13.7687 7.89338 13.8507 9.99953 13.8507C12.1057 13.8507 14.7445 13.7687 16.5638 13.654V15.0226C16.5638 15.629 17.031 16.1043 17.6456 16.1043H18.6126C19.2273 16.1043 19.6944 15.629 19.6944 15.0226V10.3022C19.6944 8.91719 19.4157 8.14684 18.6618 7.16343L17.9652 6.27016C17.6702 4.79503 17.1211 3.24615 16.8425 2.63971C16.3999 1.71366 15.5558 1.16459 14.4659 1.01708C13.9168 0.943319 12.1221 0.902344 9.99953 0.902344C7.88519 0.902344 6.09045 0.951515 5.54138 1.01708C4.45143 1.1482 3.59913 1.71366 3.16479 2.63971C2.87796 3.24615 2.33708 4.79503 2.03386 6.27016L1.34547 7.16343C0.583322 8.14684 0.304688 8.91719 0.304688 10.3022V15.0226C0.304688 15.629 0.780005 16.1043 1.39464 16.1043ZM3.68928 5.58177C3.87777 4.6885 4.27933 3.51659 4.54977 3.04127C4.77104 2.6561 5.0087 2.484 5.45123 2.42664C6.07406 2.34469 7.46724 2.28732 9.99953 2.28732C12.54 2.28732 13.9332 2.3283 14.5478 2.42664C14.9904 2.4922 15.2198 2.6561 15.4493 3.04127C15.7279 3.5084 16.1049 4.6885 16.318 5.58177C16.3917 5.88499 16.2606 5.99972 15.9492 5.98333C14.5888 5.89318 12.9662 5.81123 9.99953 5.81123C7.04109 5.81123 5.41845 5.89318 4.05806 5.98333C3.73845 5.99972 3.61552 5.88499 3.68928 5.58177ZM4.09084 11.638C3.34508 11.638 2.77142 11.0643 2.77142 10.3186C2.77142 9.5646 3.34508 8.99914 4.09084 8.99914C4.8366 8.99914 5.41026 9.5646 5.41026 10.3186C5.41026 11.0643 4.8366 11.638 4.09084 11.638ZM15.9082 11.638C15.1625 11.638 14.597 11.0643 14.597 10.3186C14.597 9.5646 15.1625 8.99914 15.9082 8.99914C16.6622 8.99914 17.2276 9.5646 17.2276 10.3186C17.2276 11.0643 16.6622 11.638 15.9082 11.638ZM7.83602 11.3102C7.27055 11.3102 6.88538 10.925 6.88538 10.3595C6.88538 9.80226 7.27055 9.41709 7.83602 9.41709H12.1712C12.7285 9.41709 13.1137 9.80226 13.1137 10.3595C13.1137 10.925 12.7285 11.3102 12.1712 11.3102H7.83602Z" fill="#F9F9F9" />
</svg>
  