<svg width="32" height="32" viewBox="0 0 32 32" fill="none" xmlns="http://www.w3.org/2000/svg">
  <rect width="32" height="32" rx="8" fill="#34D1BF" />
  <path d="M23.3259 8.73242H8.67207C6.89353 8.73242 6 9.61744 6 11.3704V12.1619H25.9979V11.3704C25.9979 9.61744 25.1129 8.73242 23.3259 8.73242ZM9.48049 20.6291C8.97842 20.6291 8.64654 20.2887 8.64654 19.8121V18.2378C8.64654 17.7528 8.97842 17.4209 9.48049 17.4209H11.5654C12.0675 17.4209 12.3993 17.7528 12.3993 18.2378V19.8121C12.3993 20.2887 12.0675 20.6291 11.5654 20.6291H9.48049ZM8.67207 23.2671H23.3259C25.1129 23.2671 25.9979 22.3906 25.9979 20.6376V14.0936H6V20.6376C6 22.3906 6.89353 23.2671 8.67207 23.2671Z" fill="#F9F9F9" />
</svg>
  