<svg width="21" height="19" viewBox="0 0 21 19" fill="none" xmlns="http://www.w3.org/2000/svg">
  <path d="M8.50151 5.09066C8.60987 5.09066 8.66405 5.02745 8.68211 4.92812C8.98914 3.48327 8.97108 3.42909 10.4882 3.12206C10.5875 3.10399 10.6598 3.04078 10.6598 2.94145C10.6598 2.83309 10.5875 2.76987 10.4882 2.75181C8.97108 2.44478 8.98914 2.3906 8.68211 0.954779C8.66405 0.855446 8.60987 0.783203 8.50151 0.783203C8.39314 0.783203 8.33896 0.855446 8.3209 0.954779C8.01387 2.3906 8.03193 2.44478 6.51484 2.75181C6.4155 2.76987 6.34326 2.83309 6.34326 2.94145C6.34326 3.04078 6.4155 3.10399 6.51484 3.12206C8.03193 3.42909 8.01387 3.48327 8.3209 4.92812C8.33896 5.02745 8.39314 5.09066 8.50151 5.09066ZM15.9605 8.27837C16.087 8.27837 16.1592 8.19709 16.1863 8.0797C16.4933 6.36394 16.5024 6.25558 18.3175 5.93951C18.4439 5.92145 18.5252 5.84018 18.5252 5.71376C18.5252 5.58733 18.4439 5.51509 18.3175 5.488C16.5024 5.18097 16.4933 5.0726 16.1863 3.35684C16.1592 3.23945 16.087 3.14915 15.9605 3.14915C15.8341 3.14915 15.7619 3.23945 15.7348 3.35684C15.4278 5.0726 15.4187 5.18097 13.6036 5.488C13.4862 5.51509 13.3959 5.58733 13.3959 5.71376C13.3959 5.84018 13.4862 5.92145 13.6036 5.93951C15.4187 6.25558 15.4278 6.36394 15.7348 8.0797C15.7619 8.19709 15.8341 8.27837 15.9605 8.27837ZM3.55289 10.8701C3.67932 10.8701 3.75156 10.7798 3.77865 10.6624C4.08568 8.94661 4.09471 8.83825 5.9098 8.53121C6.0272 8.50412 6.1175 8.43188 6.1175 8.30546C6.1175 8.17903 6.0272 8.09776 5.9098 8.0797C4.09471 7.76364 4.08568 7.65527 3.77865 5.93951C3.75156 5.82212 3.67932 5.74085 3.55289 5.74085C3.42647 5.74085 3.35422 5.82212 3.32713 5.93951C3.0201 7.65527 3.01107 7.76364 1.19598 8.0797C1.07858 8.09776 0.988281 8.17903 0.988281 8.30546C0.988281 8.43188 1.07858 8.50412 1.19598 8.53121C3.01107 8.83825 3.0201 8.94661 3.32713 10.6624C3.35422 10.7798 3.42647 10.8701 3.55289 10.8701ZM18.9767 18.591C19.3559 18.9793 20.0061 18.9793 20.3673 18.591C20.7376 18.1937 20.7376 17.5796 20.3673 17.2003L11.7795 8.5854C11.4002 8.20612 10.7501 8.20612 10.3888 8.5854C10.0096 8.98273 10.0186 9.60582 10.3888 9.9851L18.9767 18.591ZM13.721 12.3872L11.0751 9.73225C10.9126 9.5697 10.8584 9.3891 11.021 9.23558C11.1564 9.09109 11.3461 9.12722 11.5176 9.29879L14.1725 11.9537L13.721 12.3872ZM7.84229 18.7355C8.00484 18.7355 8.12223 18.6181 8.14932 18.4465C8.43829 16.0354 8.55569 15.9722 11.0119 15.5749C11.2016 15.5387 11.319 15.4484 11.319 15.2678C11.319 15.0963 11.2016 14.9879 11.0481 14.9608C8.57375 14.4912 8.43829 14.5003 8.14932 12.0892C8.12223 11.9176 8.00484 11.8002 7.84229 11.8002C7.67072 11.8002 7.55332 11.9176 7.53526 12.0801C7.2192 14.5273 7.13793 14.6086 4.63653 14.9608C4.48301 14.9789 4.36562 15.0963 4.36562 15.2678C4.36562 15.4394 4.48301 15.5387 4.63653 15.5749C7.13793 16.0535 7.21017 16.0535 7.53526 18.4646C7.55332 18.6181 7.67072 18.7355 7.84229 18.7355Z" fill="#F9F9F9" />
</svg>
  