<svg width="18" height="14" viewBox="0 0 18 14" fill="none" xmlns="http://www.w3.org/2000/svg">
  <path d="M15.3851 0.666016H2.61392C1.06388 0.666016 0.285156 1.43733 0.285156 2.96512V3.65485H17.7138V2.96512C17.7138 1.43733 16.9425 0.666016 15.3851 0.666016ZM3.31849 11.0342C2.88091 11.0342 2.59167 10.7376 2.59167 10.3222V8.95019C2.59167 8.52746 2.88091 8.23821 3.31849 8.23821H5.13552C5.57309 8.23821 5.86233 8.52746 5.86233 8.95019V10.3222C5.86233 10.7376 5.57309 11.0342 5.13552 11.0342H3.31849ZM2.61392 13.3333H15.3851C16.9425 13.3333 17.7138 12.5694 17.7138 11.0416V5.33838H0.285156V11.0416C0.285156 12.5694 1.06388 13.3333 2.61392 13.3333Z" fill="#F9F9F9" />
</svg>
  