<svg width="32" height="32" viewBox="0 0 32 32" fill="none" xmlns="http://www.w3.org/2000/svg">
  <rect width="32" height="32" rx="8" fill="#5437FF" />
  <path d="M11.6949 25.1244H20.9405C22.7427 25.1244 23.6394 24.2102 23.6394 22.3994V14.4945H17.3363C16.222 14.4945 15.6909 13.9634 15.6909 12.8491V6.45898H11.6949C9.9015 6.45898 8.99609 7.38181 8.99609 9.19263V22.3994C8.99609 24.2189 9.8928 25.1244 11.6949 25.1244ZM17.3624 13.3018H23.5349C23.4826 12.9449 23.2302 12.5966 22.8123 12.17L18.0154 7.28604C17.6062 6.86816 17.2493 6.61569 16.8836 6.55475V12.8317C16.8836 13.1451 17.0403 13.3018 17.3624 13.3018Z" fill="#F9F9F9" />
</svg>
  