<svg width="40" height="40" viewBox="0 0 40 40" fill="none" xmlns="http://www.w3.org/2000/svg">
  <path d="M22.956 35.8284C31.662 35.8284 38.8702 28.6202 38.8702 19.9142C38.8702 11.2238 31.6464 4 22.9404 4C14.8369 4 8.02215 10.2811 7.13867 18.1754C7.75934 18.0547 8.39983 17.9914 9.05433 17.9914C10.5356 17.9914 11.9473 18.3174 13.2203 18.9014V16.1853C13.2203 14.4846 14.0784 13.6577 15.779 13.6577H17.8073C18.4314 13.6577 18.6186 13.5017 18.9775 13.1273L19.6483 12.394C20.054 11.9415 20.4753 11.7075 21.3022 11.7075H24.5474C25.3899 11.7075 25.8112 11.9415 26.2012 12.394L26.8565 13.1273C27.2154 13.5329 27.4338 13.6577 28.0579 13.6577H30.133C31.818 13.6577 32.6917 14.4846 32.6917 16.1853V24.6884C32.6917 26.3579 31.818 27.2004 30.133 27.2004H19.0991C19.1242 27.4884 19.1371 27.7799 19.1371 28.0742C19.1371 30.5224 18.2304 32.7829 16.7433 34.5403C18.6587 35.3683 20.7606 35.8284 22.956 35.8284Z" fill="#F9F9F9" />
  <path fill-rule="evenodd" clip-rule="evenodd" d="M22.9716 25.1721C25.6396 25.1721 27.7771 23.097 27.7771 20.351C27.7771 17.6831 25.6396 15.53 22.9716 15.53C20.3036 15.53 18.1505 17.6831 18.1505 20.351C18.1505 23.0502 20.3036 25.1721 22.9716 25.1721ZM22.956 23.7835C21.0681 23.7835 19.5235 22.2545 19.5235 20.351C19.5235 18.4476 21.0681 16.9186 22.956 16.9186C24.8439 16.9186 26.3885 18.4632 26.3885 20.351C26.3885 22.2545 24.8439 23.7835 22.956 23.7835Z" fill="#F9F9F9" />
  <path d="M30.4762 16.9498C30.4918 17.5583 29.9926 18.0419 29.3997 18.0419C28.7912 18.0419 28.2919 17.5583 28.2919 16.9498C28.2919 16.3413 28.7912 15.8576 29.3997 15.8576C29.9926 15.8576 30.4762 16.3413 30.4762 16.9498Z" fill="#F9F9F9" />
  <path fill-rule="evenodd" clip-rule="evenodd" d="M16.9789 28.0749C16.9789 32.4103 13.3893 35.9999 9.05391 35.9999C4.72623 35.9999 1.12891 32.4103 1.12891 28.0749C1.12891 23.7472 4.71846 20.1499 9.04614 20.1499C13.3816 20.1499 16.9789 23.7472 16.9789 28.0749ZM11.2682 24.8894L12.2239 25.8373L12.8066 25.2545C13.0708 24.9904 13.0863 24.6874 12.8377 24.4465L12.659 24.26C12.4181 24.0192 12.1229 24.0502 11.8587 24.2989L11.2682 24.8894ZM5.37888 31.9675L6.48994 31.5479L11.7422 26.319L10.7865 25.3633L5.54981 30.6L5.09918 31.6567C5.01371 31.8587 5.20795 32.0296 5.37888 31.9675Z" fill="#F9F9F9" />
</svg>
  