<svg width="40" height="40" viewBox="0 0 40 40" fill="none" xmlns="http://www.w3.org/2000/svg">
  <path d="M20 36C28.7529 36 36 28.7529 36 20C36 11.2627 28.7373 4 19.9843 4C11.2471 4 4 11.2627 4 20C4 28.7529 11.2627 36 20 36ZM26.4 15.4824L24.4706 13.5686L25.6627 12.3765C26.1961 11.8745 26.7922 11.8118 27.2784 12.298L27.6392 12.6745C28.1412 13.1608 28.1098 13.7725 27.5765 14.3059L26.4 15.4824ZM14.8235 27.0118L12.5804 27.8588C12.2353 27.9843 11.8431 27.6392 12.0157 27.2314L12.9255 25.098L23.498 14.5255L25.4275 16.4549L14.8235 27.0118Z" fill="#F9F9F9" />
</svg>
  