<svg width="375" height="400" viewBox="0 0 375 400" fill="none" xmlns="http://www.w3.org/2000/svg">
  <path d="M188.057 229.175C229.622 229.175 261.539 193.693 261.539 147.251C261.539 103.223 228.323 66.998 188.057 66.998C147.233 66.998 114.018 103.409 114.389 147.251C114.946 193.693 146.305 229.175 188.057 229.175ZM188.057 220.072C151.501 220.072 123.482 188.677 123.482 147.251C123.11 108.425 152.243 76.1008 188.057 76.1008C223.313 76.1008 252.446 108.239 252.446 147.251C252.446 188.677 224.427 220.072 188.057 220.072ZM61.3186 395.996H313.681C333.536 395.996 343 388.937 343 373.147C343 325.404 283.064 259.084 187.5 259.084C91.9362 259.084 32 325.404 32 373.147C32 388.937 41.4636 395.996 61.3186 395.996ZM61.5042 386.894C45.9171 386.894 41.0925 383.364 41.0925 373.332C41.0925 328.748 96.0185 268.187 187.5 268.187C278.982 268.187 333.908 328.748 333.908 373.332C333.908 383.364 329.083 386.894 313.496 386.894H61.5042Z" fill="#F9F9F9" fill-opacity="0.3" />
</svg>