<svg width="335" height="158" viewBox="0 0 335 158" fill="none" xmlns="http://www.w3.org/2000/svg">
  <rect width="335" height="158" rx="18" fill="white"/>
  <path d="M86.2578 103H91.6562C93.1302 103 94.3125 102.727 95.2031 102.18C96.0938 101.633 96.5391 100.815 96.5391 99.7266C96.5391 98.9818 96.349 98.3906 95.9688 97.9531C95.5885 97.5156 95.0729 97.2083 94.4219 97.0312V97C94.9427 96.8125 95.362 96.526 95.6797 96.1406C95.9974 95.7552 96.1562 95.25 96.1562 94.625C96.1562 93.5573 95.737 92.7917 94.8984 92.3281C94.0599 91.8594 92.8932 91.625 91.3984 91.625H86.2578V103ZM88.875 101.188V97.9531H91.5234C92.3464 97.9531 92.9479 98.0885 93.3281 98.3594C93.7135 98.6302 93.9062 99.0312 93.9062 99.5625C93.9062 100.115 93.7135 100.523 93.3281 100.789C92.9479 101.055 92.3464 101.188 91.5234 101.188H88.875ZM88.875 96.2656V93.4531H91.2656C92.0677 93.4531 92.6484 93.5651 93.0078 93.7891C93.3672 94.0078 93.5469 94.362 93.5469 94.8516C93.5469 95.3151 93.3672 95.6667 93.0078 95.9062C92.6484 96.1458 92.0677 96.2656 91.2656 96.2656H88.875ZM100.305 94.8047H97.75V103H103.531C104.641 103 105.482 102.76 106.055 102.281C106.628 101.797 106.914 101.099 106.914 100.188C106.914 99.2396 106.628 98.526 106.055 98.0469C105.482 97.5625 104.641 97.3203 103.531 97.3203H100.305V94.8047ZM103.023 99.0312C103.492 99.0312 103.831 99.125 104.039 99.3125C104.247 99.4948 104.352 99.7708 104.352 100.141C104.352 100.542 104.247 100.833 104.039 101.016C103.831 101.193 103.492 101.281 103.023 101.281H100.305V99.0312H103.023ZM108.008 103H110.57V94.8047H108.008V103ZM116.148 99.0156C116.148 100.297 116.633 101.323 117.602 102.094C118.57 102.859 119.906 103.242 121.609 103.242C122.698 103.242 123.638 103.078 124.43 102.75C125.227 102.422 125.786 101.995 126.109 101.469L124.297 100.289C123.984 100.633 123.604 100.901 123.156 101.094C122.708 101.281 122.177 101.375 121.562 101.375C120.557 101.375 119.818 101.185 119.344 100.805C118.875 100.419 118.641 99.8698 118.641 99.1562V98.625C118.641 97.901 118.867 97.3464 119.32 96.9609C119.773 96.5703 120.445 96.375 121.336 96.375C122.247 96.375 122.883 96.5182 123.242 96.8047C123.602 97.0911 123.781 97.4896 123.781 98V98.0938H117.805V99.4766H126.305V98.6406C126.305 97.3646 125.867 96.3672 124.992 95.6484C124.122 94.9245 122.919 94.5625 121.383 94.5625C119.846 94.5625 118.589 94.9453 117.609 95.7109C116.635 96.4766 116.148 97.4974 116.148 98.7734V99.0156ZM127.703 103H141.023V105.109H143.438V101.102H142.141V94.8047H139.586V101.133H136.203V94.8047H133.648V101.133H130.258V94.8047H127.703V103ZM144.102 99.0156C144.102 100.297 144.586 101.323 145.555 102.094C146.523 102.859 147.859 103.242 149.562 103.242C150.651 103.242 151.591 103.078 152.383 102.75C153.18 102.422 153.74 101.995 154.062 101.469L152.25 100.289C151.938 100.633 151.557 100.901 151.109 101.094C150.661 101.281 150.13 101.375 149.516 101.375C148.51 101.375 147.771 101.185 147.297 100.805C146.828 100.419 146.594 99.8698 146.594 99.1562V98.625C146.594 97.901 146.82 97.3464 147.273 96.9609C147.727 96.5703 148.398 96.375 149.289 96.375C150.201 96.375 150.836 96.5182 151.195 96.8047C151.555 97.0911 151.734 97.4896 151.734 98V98.0938H145.758V99.4766H154.258V98.6406C154.258 97.3646 153.82 96.3672 152.945 95.6484C152.076 94.9245 150.872 94.5625 149.336 94.5625C147.799 94.5625 146.542 94.9453 145.562 95.7109C144.589 96.4766 144.102 97.4974 144.102 98.7734V99.0156ZM159.688 94.8047V103H162.242V99.7578H166.625V103H169.18V94.8047H166.625V97.8672H162.242V94.8047H159.688ZM171.172 103H173.734L177.656 98.4141C177.786 98.2526 177.891 98.1016 177.969 97.9609C178.047 97.8203 178.115 97.6771 178.172 97.5312H178.211C178.201 97.6875 178.193 97.8594 178.188 98.0469C178.182 98.2344 178.18 98.4062 178.18 98.5625V103H180.742V94.8047H178.18L174.258 99.3438C174.128 99.5052 174.023 99.6562 173.945 99.7969C173.872 99.9375 173.805 100.083 173.742 100.234H173.695C173.706 100.078 173.714 99.9062 173.719 99.7188C173.729 99.526 173.734 99.3516 173.734 99.1953V94.8047H171.172V103ZM185.047 96.9844V94.8047H182.492V97.0547C182.492 98.1901 182.836 98.9948 183.523 99.4688C184.211 99.9375 185.219 100.172 186.547 100.172C187.318 100.172 188 100.141 188.594 100.078C189.193 100.016 189.729 99.9271 190.203 99.8125V97.9453C189.698 98.0859 189.227 98.1849 188.789 98.2422C188.357 98.2995 187.786 98.3281 187.078 98.3281C186.37 98.3281 185.854 98.2292 185.531 98.0312C185.208 97.8281 185.047 97.4792 185.047 96.9844ZM191.477 94.8047H188.93V103H191.477V94.8047ZM193.023 99.0156C193.023 100.297 193.508 101.323 194.477 102.094C195.445 102.859 196.781 103.242 198.484 103.242C199.573 103.242 200.513 103.078 201.305 102.75C202.102 102.422 202.661 101.995 202.984 101.469L201.172 100.289C200.859 100.633 200.479 100.901 200.031 101.094C199.583 101.281 199.052 101.375 198.438 101.375C197.432 101.375 196.693 101.185 196.219 100.805C195.75 100.419 195.516 99.8698 195.516 99.1562V98.625C195.516 97.901 195.742 97.3464 196.195 96.9609C196.648 96.5703 197.32 96.375 198.211 96.375C199.122 96.375 199.758 96.5182 200.117 96.8047C200.477 97.0911 200.656 97.4896 200.656 98V98.0938H194.68V99.4766H203.18V98.6406C203.18 97.3646 202.742 96.3672 201.867 95.6484C200.997 94.9245 199.794 94.5625 198.258 94.5625C196.721 94.5625 195.464 94.9453 194.484 95.7109C193.51 96.4766 193.023 97.4974 193.023 98.7734V99.0156ZM204.578 94.8047V103H207.133V96.7031H212.109V94.8047H204.578ZM212.945 99.0156C212.945 100.318 213.445 101.346 214.445 102.102C215.445 102.857 216.75 103.234 218.359 103.234C219.969 103.234 221.273 102.857 222.273 102.102C223.273 101.346 223.773 100.318 223.773 99.0156V98.7734C223.773 97.4766 223.273 96.4505 222.273 95.6953C221.273 94.9401 219.969 94.5625 218.359 94.5625C216.75 94.5625 215.445 94.9401 214.445 95.6953C213.445 96.4505 212.945 97.4766 212.945 98.7734V99.0156ZM215.562 98.6328C215.562 97.9401 215.807 97.4089 216.297 97.0391C216.792 96.6641 217.479 96.4766 218.359 96.4766C219.245 96.4766 219.932 96.6641 220.422 97.0391C220.911 97.4089 221.156 97.9401 221.156 98.6328V99.1641C221.156 99.8568 220.911 100.391 220.422 100.766C219.938 101.141 219.25 101.328 218.359 101.328C217.474 101.328 216.786 101.141 216.297 100.766C215.807 100.391 215.562 99.8568 215.562 99.1641V98.6328ZM229.344 94.8047V103H231.898V99.7578H236.281V103H238.836V94.8047H236.281V97.8672H231.898V94.8047H229.344ZM240.383 99.0156C240.383 100.297 240.867 101.323 241.836 102.094C242.805 102.859 244.141 103.242 245.844 103.242C246.932 103.242 247.872 103.078 248.664 102.75C249.461 102.422 250.021 101.995 250.344 101.469L248.531 100.289C248.219 100.633 247.839 100.901 247.391 101.094C246.943 101.281 246.411 101.375 245.797 101.375C244.792 101.375 244.052 101.185 243.578 100.805C243.109 100.419 242.875 99.8698 242.875 99.1562V98.625C242.875 97.901 243.102 97.3464 243.555 96.9609C244.008 96.5703 244.68 96.375 245.57 96.375C246.482 96.375 247.117 96.5182 247.477 96.8047C247.836 97.0911 248.016 97.4896 248.016 98V98.0938H242.039V99.4766H250.539V98.6406C250.539 97.3646 250.102 96.3672 249.227 95.6484C248.357 94.9245 247.154 94.5625 245.617 94.5625C244.081 94.5625 242.823 94.9453 241.844 95.7109C240.87 96.4766 240.383 97.4974 240.383 98.7734V99.0156ZM122.078 118.016C122.078 119.323 122.565 120.354 123.539 121.109C124.513 121.859 125.807 122.234 127.422 122.234C128.958 122.234 130.138 121.927 130.961 121.312C131.789 120.698 132.206 119.971 132.211 119.133V119.023H129.688V119.117C129.688 119.523 129.508 119.836 129.148 120.055C128.794 120.273 128.211 120.383 127.398 120.383C126.461 120.383 125.776 120.193 125.344 119.812C124.911 119.427 124.695 118.878 124.695 118.164V117.633C124.695 116.919 124.911 116.372 125.344 115.992C125.781 115.612 126.469 115.422 127.406 115.422C128.214 115.422 128.794 115.531 129.148 115.75C129.508 115.964 129.688 116.271 129.688 116.672L129.695 116.781H132.219L132.203 116.625C132.151 115.781 131.724 115.06 130.922 114.461C130.12 113.862 128.953 113.562 127.422 113.562C125.807 113.562 124.513 113.94 123.539 114.695C122.565 115.445 122.078 116.471 122.078 117.773V118.016ZM133.633 122H135.742V117.344C135.742 116.979 135.732 116.703 135.711 116.516C135.695 116.328 135.682 116.172 135.672 116.047H135.742C135.768 116.172 135.812 116.328 135.875 116.516C135.938 116.698 136.013 116.891 136.102 117.094L138.531 122H140.32L142.742 117.117C142.878 116.805 142.969 116.578 143.016 116.438C143.062 116.297 143.099 116.167 143.125 116.047H143.188C143.167 116.193 143.148 116.354 143.133 116.531C143.117 116.708 143.109 116.987 143.109 117.367V122H145.703V113.805H142.281L140.148 117.977C139.987 118.357 139.88 118.615 139.828 118.75C139.776 118.88 139.737 119.008 139.711 119.133H139.641C139.62 119.008 139.583 118.878 139.531 118.742C139.484 118.602 139.378 118.352 139.211 117.992L137.062 113.805H133.633V122ZM147.25 118.016C147.25 119.318 147.75 120.346 148.75 121.102C149.75 121.857 151.055 122.234 152.664 122.234C154.273 122.234 155.578 121.857 156.578 121.102C157.578 120.346 158.078 119.318 158.078 118.016V117.773C158.078 116.477 157.578 115.451 156.578 114.695C155.578 113.94 154.273 113.562 152.664 113.562C151.055 113.562 149.75 113.94 148.75 114.695C147.75 115.451 147.25 116.477 147.25 117.773V118.016ZM149.867 117.633C149.867 116.94 150.112 116.409 150.602 116.039C151.096 115.664 151.784 115.477 152.664 115.477C153.549 115.477 154.237 115.664 154.727 116.039C155.216 116.409 155.461 116.94 155.461 117.633V118.164C155.461 118.857 155.216 119.391 154.727 119.766C154.242 120.141 153.555 120.328 152.664 120.328C151.779 120.328 151.091 120.141 150.602 119.766C150.112 119.391 149.867 118.857 149.867 118.164V117.633ZM158.859 115.703H162.336V122H164.898V115.703H168.375V113.805H158.859V115.703ZM169.602 125.242H172.156V121.039C172.464 121.383 172.909 121.656 173.492 121.859C174.081 122.057 174.75 122.156 175.5 122.156C176.823 122.156 177.891 121.784 178.703 121.039C179.521 120.289 179.93 119.281 179.93 118.016V117.773C179.93 116.503 179.516 115.495 178.688 114.75C177.865 114.005 176.773 113.633 175.414 113.633C174.664 113.633 173.99 113.753 173.391 113.992C172.792 114.227 172.359 114.521 172.094 114.875H172.078L172.023 113.805H169.602V125.242ZM172.117 119.016V116.742C172.305 116.424 172.625 116.146 173.078 115.906C173.536 115.661 174.081 115.539 174.711 115.539C175.617 115.539 176.279 115.727 176.695 116.102C177.112 116.471 177.32 116.982 177.32 117.633V118.156C177.32 118.807 177.107 119.323 176.68 119.703C176.258 120.078 175.607 120.266 174.727 120.266C174.107 120.266 173.56 120.143 173.086 119.898C172.617 119.648 172.294 119.354 172.117 119.016ZM181.047 118.016C181.047 119.297 181.531 120.323 182.5 121.094C183.469 121.859 184.805 122.242 186.508 122.242C187.596 122.242 188.536 122.078 189.328 121.75C190.125 121.422 190.685 120.995 191.008 120.469L189.195 119.289C188.883 119.633 188.503 119.901 188.055 120.094C187.607 120.281 187.076 120.375 186.461 120.375C185.456 120.375 184.716 120.185 184.242 119.805C183.773 119.419 183.539 118.87 183.539 118.156V117.625C183.539 116.901 183.766 116.346 184.219 115.961C184.672 115.57 185.344 115.375 186.234 115.375C187.146 115.375 187.781 115.518 188.141 115.805C188.5 116.091 188.68 116.49 188.68 117V117.094H182.703V118.477H191.203V117.641C191.203 116.365 190.766 115.367 189.891 114.648C189.021 113.924 187.818 113.562 186.281 113.562C184.745 113.562 183.487 113.945 182.508 114.711C181.534 115.477 181.047 116.497 181.047 117.773V118.016ZM195.781 115.703H199.367V122H201.922V113.805H193.594L193.414 117.953C193.388 118.786 193.297 119.359 193.141 119.672C192.984 119.984 192.732 120.141 192.383 120.141C192.253 120.141 192.143 120.133 192.055 120.117C191.966 120.102 191.878 120.076 191.789 120.039V122.031C191.909 122.083 192.062 122.122 192.25 122.148C192.438 122.174 192.646 122.188 192.875 122.188C193.859 122.188 194.555 121.891 194.961 121.297C195.372 120.698 195.609 119.672 195.672 118.219L195.781 115.703ZM203.898 122H206.461L210.383 117.414C210.513 117.253 210.617 117.102 210.695 116.961C210.773 116.82 210.841 116.677 210.898 116.531H210.938C210.927 116.688 210.919 116.859 210.914 117.047C210.909 117.234 210.906 117.406 210.906 117.562V122H213.469V113.805H210.906L206.984 118.344C206.854 118.505 206.75 118.656 206.672 118.797C206.599 118.938 206.531 119.083 206.469 119.234H206.422C206.432 119.078 206.44 118.906 206.445 118.719C206.456 118.526 206.461 118.352 206.461 118.195V113.805H203.898V122Z" fill="#090909"/>
  <path d="M187.586 48.9711L174.859 37.3357C174.624 37.1198 174.318 37 174 37C173.682 37 173.376 37.1198 173.141 37.3357L160.414 48.9711C160.286 49.0927 160.183 49.239 160.112 49.4011C160.041 49.5633 160.003 49.7381 160 49.9153V64.7196C160 65.0592 160.134 65.3849 160.373 65.625C160.611 65.8651 160.935 66 161.273 66H186.727C187.065 66 187.389 65.8651 187.627 65.625C187.866 65.3849 188 65.0592 188 64.7196V49.9153C187.997 49.7381 187.959 49.5633 187.888 49.4011C187.817 49.239 187.714 49.0927 187.586 48.9711Z" stroke="#A99BFF" stroke-width="4" stroke-linecap="round" stroke-linejoin="round"/>
  <path d="M175.586 48.9711L162.859 37.3357C162.624 37.1198 162.318 37 162 37C161.682 37 161.376 37.1198 161.141 37.3357L148.414 48.9711C148.286 49.0927 148.183 49.239 148.112 49.4011C148.041 49.5633 148.003 49.7381 148 49.9153V64.7196C148 65.0592 148.134 65.3849 148.373 65.625C148.611 65.8651 148.935 66 149.273 66H174.727C175.065 66 175.389 65.8651 175.627 65.625C175.866 65.3849 176 65.0592 176 64.7196V49.9153C175.997 49.7381 175.959 49.5633 175.888 49.4011C175.817 49.239 175.714 49.0927 175.586 48.9711Z" stroke="#5437FF" stroke-width="4" stroke-linecap="round" stroke-linejoin="round"/>
  </svg>
  