<svg width="16" height="16" viewBox="0 0 16 16" fill="none" xmlns="http://www.w3.org/2000/svg">
  <path fill-rule="evenodd" clip-rule="evenodd" d="M4.80751 0.897587C4.55185 0.927119 4.38172 0.974169 4.18898 1.06864C3.867 1.22647 3.56962 1.53746 3.42875 1.86369C3.41593 1.89337 3.40472 1.91877 3.40383 1.92013C3.40295 1.92148 3.36161 1.93332 3.31198 1.94641C2.73096 2.09972 2.2786 2.55936 2.13821 3.13904L2.12995 3.17315L2.0324 3.19608C1.71473 3.27075 1.44978 3.42039 1.22883 3.64996C0.978584 3.90997 0.846292 4.17465 0.779017 4.54991C0.755953 4.67858 0.755953 13.5782 0.779017 13.7068C0.848409 14.0939 1.00017 14.3879 1.25943 14.6374C1.51944 14.8876 1.78412 15.0199 2.15937 15.0872C2.28805 15.1103 11.1876 15.1103 11.3163 15.0872C11.432 15.0665 11.5476 15.0362 11.6425 15.0019C12.1448 14.8201 12.5393 14.3782 12.6659 13.8557L12.6741 13.8216L12.7717 13.7987C12.9659 13.753 13.1575 13.6716 13.3051 13.5718C13.5667 13.3951 13.7843 13.1391 13.8993 12.8728C13.9121 12.8431 13.9233 12.8177 13.9242 12.8164C13.9251 12.815 13.9664 12.8032 14.0161 12.7901C14.2453 12.7296 14.4617 12.6209 14.6252 12.484C14.958 12.2056 15.1424 11.885 15.2206 11.4486C15.2437 11.3199 15.2437 2.4203 15.2206 2.29163C15.1534 1.91637 15.0211 1.65169 14.7708 1.39169C14.5225 1.13368 14.2355 0.984846 13.8447 0.91141C13.7698 0.897346 13.5468 0.896574 9.29917 0.895661C6.84246 0.895138 4.82121 0.896001 4.80751 0.897587ZM13.7701 1.57613C14.1694 1.67288 14.4716 1.97833 14.5561 2.37053C14.5707 2.43792 14.5713 2.61664 14.5713 6.8701C14.5713 11.1236 14.5707 11.3023 14.5561 11.3697C14.5003 11.6287 14.334 11.8723 14.1146 12.0161L14.0482 12.0597L14.044 7.71513L14.0399 3.37059L14.021 3.27292C13.9704 3.01076 13.8714 2.78294 13.7207 2.58186C13.4303 2.1944 13.0053 1.94811 12.5395 1.89738C12.484 1.89133 11.1792 1.8886 8.33879 1.8886H4.21866L4.25986 1.84606C4.40464 1.69657 4.63867 1.58457 4.85318 1.56213C4.86916 1.56046 6.86799 1.55953 9.29501 1.56006C13.5297 1.561 13.7103 1.56165 13.7701 1.57613ZM12.5745 2.57243C12.9738 2.66918 13.2761 2.97463 13.3606 3.36683C13.3751 3.43422 13.3757 3.61294 13.3757 7.8664C13.3757 12.1199 13.3751 12.2986 13.3606 12.366C13.2953 12.669 13.0959 12.9275 12.817 13.0708C12.7712 13.0943 12.7296 13.1136 12.7247 13.1136C12.7184 13.1136 12.7152 11.8914 12.7136 8.86892C12.7114 4.83792 12.7106 4.62031 12.6965 4.54551C12.6253 4.16648 12.4959 3.90873 12.2469 3.64996C11.9985 3.39196 11.7115 3.24309 11.3207 3.1697C11.2459 3.15565 11.03 3.1548 7.04228 3.15266L2.84262 3.15042L2.87727 3.08615C3.03198 2.79924 3.33874 2.59179 3.65762 2.55843C3.6736 2.55676 5.67243 2.55583 8.09945 2.55636C12.3341 2.5573 12.5147 2.55795 12.5745 2.57243ZM11.2461 3.83441C11.6418 3.93028 11.9359 4.22445 12.0318 4.62012C12.0463 4.67983 12.047 4.86298 12.0495 9.07856C12.0513 12.2198 12.0494 13.4949 12.043 13.5453C12.0313 13.6359 11.9866 13.7699 11.9362 13.865C11.8785 13.9739 11.7868 14.112 11.775 14.1076C11.7646 14.1036 7.89455 12.9741 5.29776 12.2172C3.60409 11.7235 3.72274 11.7529 3.61945 11.8022C3.54969 11.8355 3.49091 11.8961 3.45192 11.975L3.421 12.0375L3.41624 12.8059C3.41193 13.5012 3.41008 13.5803 3.3968 13.6366C3.3039 14.0309 2.99647 14.3366 2.60735 14.4218C2.51627 14.4417 2.32482 14.4417 2.23374 14.4218C1.84093 14.3358 1.52841 14.0219 1.44352 13.6279C1.42899 13.5606 1.4284 13.3818 1.4284 9.12838C1.4284 4.87492 1.42899 4.6962 1.44352 4.62881C1.53596 4.19986 1.90281 3.86502 2.32922 3.82041C2.3452 3.81874 4.34403 3.81781 6.77105 3.81834C11.0057 3.81928 11.1863 3.81993 11.2461 3.83441ZM3.28401 5.79909C3.14393 5.82295 3.10468 5.85237 3.02958 5.98981C2.94111 6.15171 2.94054 6.15407 2.93701 6.37211L2.93399 6.55907L3.21989 7.04046C3.61566 7.70679 3.72609 7.88172 3.89856 8.11547C4.34526 8.72087 4.64562 9.15329 4.64562 9.191C4.64562 9.1961 4.5902 9.29713 4.52246 9.41548C4.2582 9.8772 4.09278 10.1998 4.03527 10.3656C3.98185 10.5195 3.98988 10.6308 4.06557 10.7855C4.08995 10.8353 4.1442 10.9079 4.17106 10.9267C4.22338 10.9633 4.40112 11.0476 4.45051 11.0592C4.56183 11.0855 4.70941 11.0653 4.82714 11.0078C4.92444 10.9603 5.09395 10.7841 5.09395 10.7304C5.09395 10.701 5.33192 10.263 5.64855 9.70959C5.94156 9.1975 6.17828 8.70153 6.66004 7.59036C6.86006 7.12901 6.91663 7.00556 6.97867 6.89501C7.04107 6.78379 7.11313 6.63082 7.17031 6.48818C7.21215 6.3838 7.21519 6.37153 7.21451 6.30968C7.21367 6.23305 7.19652 6.16857 7.1549 6.08551C7.1001 5.97615 7.07083 5.94732 6.94757 5.88134C6.80102 5.80288 6.77984 5.79661 6.65897 5.79591C6.32186 5.79398 6.11986 6.00213 5.97906 6.49653C5.95085 6.59561 5.9242 6.72666 5.9242 6.76634C5.9242 6.77658 5.89581 6.84614 5.86112 6.92093C5.81214 7.02649 5.2628 8.15473 5.25634 8.163C5.25554 8.16403 5.21156 8.10425 5.15863 8.03016C4.99974 7.80782 4.9253 7.68591 4.74938 7.35995C4.40876 6.72881 4.00856 6.07632 3.90404 5.98173C3.79785 5.88561 3.69057 5.82524 3.58705 5.80335C3.52538 5.79032 3.35003 5.78784 3.28401 5.79909ZM8.99197 7.32801C8.71337 7.35012 8.41766 7.4407 8.21251 7.56677C7.95106 7.72744 7.70057 8.00858 7.54928 8.31114C7.30359 8.80247 7.25052 9.44654 7.41503 9.9402C7.50131 10.1991 7.62417 10.3959 7.81851 10.5864C8.05084 10.8142 8.30665 10.9405 8.63497 10.9894C8.78889 11.0124 9.07756 11.0014 9.2452 10.9663C9.89545 10.83 10.4131 10.2839 10.5564 9.58309C10.615 9.29668 10.62 8.91366 10.5686 8.65098C10.5216 8.41098 10.4233 8.16343 10.2767 7.91604C10.176 7.74601 10.0377 7.6065 9.87204 7.5077C9.61018 7.35154 9.3541 7.29925 8.99197 7.32801ZM9.21555 8.37388C9.37603 8.42657 9.47289 8.57309 9.51094 8.82069C9.52497 8.91202 9.51721 9.27551 9.49906 9.3779C9.46909 9.54681 9.37399 9.70696 9.22456 9.84015C9.09827 9.95271 8.91792 9.99811 8.72286 9.96646C8.49841 9.93005 8.34842 9.68322 8.34855 9.35053C8.34876 8.85527 8.56822 8.45749 8.88819 8.37244C8.997 8.34351 9.12475 8.34407 9.21555 8.37388ZM5.45926 12.9803C6.20586 13.1959 7.63867 13.6094 8.64327 13.8991C9.64787 14.1889 10.4792 14.4293 10.4906 14.4333C10.5027 14.4376 9.10479 14.4409 7.12943 14.4413L3.74753 14.442L3.77629 14.4025C3.89922 14.234 4.00723 13.9861 4.04676 13.7819C4.07627 13.6295 4.08103 13.527 4.08104 13.0442C4.08105 12.6766 4.0832 12.5813 4.09142 12.5844C4.09714 12.5865 4.71266 12.7647 5.45926 12.9803Z" fill="#B4B4B4"/>
  </svg>
  