<svg width="190" height="57" viewBox="0 0 190 57" fill="none" xmlns="http://www.w3.org/2000/svg">
  <path d="M117.279 49.4661L102.732 28.123L117.279 6.77423H129.487L114.941 28.123L129.488 49.4661H117.279ZM101.123 49.4661H90.6956V6.85294L101.123 6.74685V49.4661ZM74.5395 49.4661H62.3308L76.8774 28.123L62.3319 6.77423H74.5395L89.0872 28.123L74.5395 49.4661ZM149.906 49.4707V49.4256C144.295 49.2032 139.512 47.1458 135.667 43.3016C131.508 39.0313 129.496 34.0685 129.496 28.123C129.496 22.3104 131.553 17.2364 135.667 13.034C139.825 8.8766 144.944 6.77423 150.934 6.77423C156.701 6.77423 161.754 8.71918 165.978 12.5418C166.135 12.6986 166.314 12.8549 166.47 12.9889L159.116 20.2092C157.126 18.0407 154.265 16.7442 150.934 16.7442C144.608 16.7442 139.846 21.6402 139.846 28.123C139.846 34.6052 144.608 39.479 150.934 39.479L168.104 39.5007L189.872 0H38.7815C34.0543 0 29.7002 2.57178 27.4187 6.71206L25.9922 9.29981V37.3099L44.9711 6.74685H58.5008V49.4028H48.095V20.921L30.4097 49.4028H15.587V28.1818L0.125 56.2398H147.144C152.919 56.2398 158.3 53.7033 162.027 49.4707H149.906Z" fill="#F9F9F9"/>
  </svg>
  