<svg width="57" height="23" viewBox="0 0 57 23" fill="none" xmlns="http://www.w3.org/2000/svg">
<g clip-path="url(#clip0_5227_2914)">
<g filter="url(#filter0_f_5227_2914)">
<circle cx="15" cy="14" r="26" fill="#58E4FD"/>
</g>
<g filter="url(#filter1_f_5227_2914)">
<circle cx="42" cy="14.5" r="26" fill="#58E4FD"/>
</g>
<g filter="url(#filter2_f_5227_2914)">
<circle cx="50.5" cy="-2" r="23.5" fill="#6EBAFB"/>
</g>
<path d="M13.1774 11.45H16.9174C16.9041 12.5233 16.5674 13.4067 15.9074 14.1C15.2474 14.7867 14.4074 15.13 13.3874 15.13C12.3541 15.13 11.4974 14.7867 10.8174 14.1C10.1374 13.4133 9.79742 12.5467 9.79742 11.5C9.79742 10.46 10.1341 9.59667 10.8074 8.91C11.4874 8.22333 12.3374 7.88 13.3574 7.88C14.2108 7.88 14.9608 8.12333 15.6074 8.61C16.2541 9.09 16.6574 9.71 16.8174 10.47H15.6274C15.4808 10.0233 15.2008 9.66667 14.7874 9.4C14.3808 9.12667 13.9141 8.99 13.3874 8.99C12.9208 8.99 12.5041 9.09667 12.1374 9.31C11.7708 9.51667 11.4841 9.81333 11.2774 10.2C11.0708 10.58 10.9674 11.0133 10.9674 11.5C10.9674 12.2467 11.1908 12.8533 11.6374 13.32C12.0841 13.7867 12.6674 14.02 13.3874 14.02C13.9408 14.02 14.4274 13.8767 14.8474 13.59C15.2674 13.2967 15.5408 12.9133 15.6674 12.44H13.1774V11.45ZM19.5759 13.91H22.6059V15H18.4259V8H22.4959V9.08H19.5759V10.9H22.2359V11.96H19.5759V13.91ZM28.7826 8H29.9126V15H28.9426L25.3126 10V15H24.1826V8H25.2226L28.7826 12.92V8ZM31.8923 15V8H33.0423V15H31.8923ZM37.762 15.13C36.9487 15.13 36.2754 14.8733 35.742 14.36C35.2087 13.8467 34.942 13.1867 34.942 12.38V8H36.102V12.31C36.102 12.8233 36.2554 13.24 36.562 13.56C36.8687 13.8733 37.2687 14.03 37.762 14.03C38.2487 14.03 38.6454 13.8733 38.952 13.56C39.2587 13.24 39.412 12.8233 39.412 12.31V8H40.562V12.38C40.562 13.1867 40.2954 13.8467 39.762 14.36C39.2354 14.8733 38.5687 15.13 37.762 15.13ZM44.6581 15.11C44.1315 15.11 43.6681 15.0167 43.2681 14.83C42.8748 14.6433 42.5681 14.3767 42.3481 14.03C42.1281 13.6767 42.0181 13.2667 42.0181 12.8H43.1781C43.1781 13.1733 43.3148 13.47 43.5881 13.69C43.8681 13.9033 44.2215 14.01 44.6481 14.01C45.0348 14.01 45.3615 13.9167 45.6281 13.73C45.8948 13.5367 46.0281 13.2867 46.0281 12.98C46.0281 12.8667 46.0081 12.7633 45.9681 12.67C45.9348 12.5767 45.8748 12.4967 45.7881 12.43C45.7081 12.3633 45.6281 12.3067 45.5481 12.26C45.4748 12.2067 45.3615 12.1567 45.2081 12.11C45.0615 12.0633 44.9415 12.03 44.8481 12.01C44.7548 11.9833 44.6148 11.9467 44.4281 11.9C44.2215 11.8533 44.0648 11.8167 43.9581 11.79C43.8515 11.7567 43.7015 11.71 43.5081 11.65C43.3215 11.5833 43.1748 11.52 43.0681 11.46C42.9681 11.4 42.8481 11.32 42.7081 11.22C42.5681 11.1133 42.4615 11.0033 42.3881 10.89C42.3215 10.77 42.2615 10.6267 42.2081 10.46C42.1548 10.2933 42.1281 10.1067 42.1281 9.9C42.1281 9.27333 42.3481 8.78333 42.7881 8.43C43.2348 8.07667 43.8315 7.9 44.5781 7.9C45.3381 7.9 45.9315 8.09333 46.3581 8.48C46.7848 8.86 46.9981 9.38 46.9981 10.04H45.8581C45.8581 9.70667 45.7348 9.44667 45.4881 9.26C45.2481 9.06667 44.9381 8.97 44.5581 8.97C44.1915 8.97 43.8848 9.05 43.6381 9.21C43.3981 9.36333 43.2781 9.58 43.2781 9.86C43.2781 9.98 43.3081 10.09 43.3681 10.19C43.4281 10.29 43.4981 10.3733 43.5781 10.44C43.6581 10.5 43.7781 10.56 43.9381 10.62C44.0981 10.68 44.2315 10.7267 44.3381 10.76C44.4515 10.7867 44.6148 10.8267 44.8281 10.88C44.9948 10.92 45.1181 10.95 45.1981 10.97C45.2848 10.99 45.4081 11.0267 45.5681 11.08C45.7281 11.1267 45.8515 11.17 45.9381 11.21C46.0248 11.2433 46.1348 11.2933 46.2681 11.36C46.4015 11.4267 46.5048 11.4933 46.5781 11.56C46.6515 11.6267 46.7315 11.71 46.8181 11.81C46.9115 11.91 46.9815 12.0167 47.0281 12.13C47.0748 12.2367 47.1148 12.3633 47.1481 12.51C47.1815 12.65 47.1981 12.8 47.1981 12.96C47.1981 13.64 46.9581 14.17 46.4781 14.55C45.9981 14.9233 45.3915 15.11 44.6581 15.11Z" fill="#222127"/>
</g>
<defs>
<filter id="filter0_f_5227_2914" x="-26" y="-27" width="82" height="82" filterUnits="userSpaceOnUse" color-interpolation-filters="sRGB">
<feFlood flood-opacity="0" result="BackgroundImageFix"/>
<feBlend mode="normal" in="SourceGraphic" in2="BackgroundImageFix" result="shape"/>
<feGaussianBlur stdDeviation="7.5" result="effect1_foregroundBlur_5227_2914"/>
</filter>
<filter id="filter1_f_5227_2914" x="1" y="-26.5" width="82" height="82" filterUnits="userSpaceOnUse" color-interpolation-filters="sRGB">
<feFlood flood-opacity="0" result="BackgroundImageFix"/>
<feBlend mode="normal" in="SourceGraphic" in2="BackgroundImageFix" result="shape"/>
<feGaussianBlur stdDeviation="7.5" result="effect1_foregroundBlur_5227_2914"/>
</filter>
<filter id="filter2_f_5227_2914" x="12" y="-40.5" width="77" height="77" filterUnits="userSpaceOnUse" color-interpolation-filters="sRGB">
<feFlood flood-opacity="0" result="BackgroundImageFix"/>
<feBlend mode="normal" in="SourceGraphic" in2="BackgroundImageFix" result="shape"/>
<feGaussianBlur stdDeviation="7.5" result="effect1_foregroundBlur_5227_2914"/>
</filter>
<clipPath id="clip0_5227_2914">
<rect width="57" height="23" rx="7" fill="white"/>
</clipPath>
</defs>
</svg>
