<svg width="28" height="28" viewBox="0 0 28 28" fill="none" xmlns="http://www.w3.org/2000/svg">
  <rect width="28" height="28" rx="14" fill="url(#paint0_linear_9967_6971)"/>
  <path d="M7.95312 14.1719C7.95312 16.1667 8.53646 17.6224 9.70312 18.5391C10.8698 19.4557 12.4766 19.9141 14.5234 19.9141C15.8724 19.9141 17.0052 19.7344 17.9219 19.375C18.8385 19.0104 19.5469 18.6146 20.0469 18.1875V13.4688H14.3516V15.6562H16.9844V17.1719C16.6458 17.3594 16.2839 17.4896 15.8984 17.5625C15.5182 17.6302 15.0651 17.6641 14.5391 17.6641C13.5078 17.6641 12.6849 17.4505 12.0703 17.0234C11.4609 16.5911 11.1562 15.7734 11.1562 14.5703V13.4219C11.1562 12.2656 11.4323 11.4688 11.9844 11.0312C12.5417 10.5885 13.2422 10.3672 14.0859 10.3672C14.9818 10.3672 15.6641 10.4974 16.1328 10.7578C16.6068 11.013 16.8594 11.3802 16.8906 11.8594L16.8984 11.9531H20.0234V11.8281C20.0234 10.5417 19.5 9.59635 18.4531 8.99219C17.4115 8.38802 15.9948 8.08594 14.2031 8.08594C12.3646 8.08594 10.862 8.54427 9.69531 9.46094C8.53385 10.3776 7.95312 11.8307 7.95312 13.8203V14.1719Z" fill="#090909"/>
  <defs>
  <linearGradient id="paint0_linear_9967_6971" x1="0" y1="14" x2="28" y2="14" gradientUnits="userSpaceOnUse">
  <stop stop-color="#C5ACFF"/>
  <stop offset="1" stop-color="#FBC2EB"/>
  </linearGradient>
  </defs>
  </svg>
  