<svg width="64" height="64" viewBox="0 0 64 64" fill="none" xmlns="http://www.w3.org/2000/svg">
  <rect width="64" height="64" rx="12" fill="black"/>
  <rect width="64" height="64" rx="12" fill="url(#paint0_linear_10529_8936)"/>
  <path d="M16.2539 32.5882C16.2539 37.9421 17.7852 41.8492 20.8476 44.3095C23.9101 46.7698 28.1279 47.9999 33.5009 47.9999C37.042 47.9999 40.0156 47.5177 42.4218 46.5531C44.8281 45.5746 46.6874 44.5122 47.9999 43.3659V30.7011H33.0498V36.5722H39.9609V40.6401C39.0722 41.1433 38.122 41.4928 37.1103 41.6885C36.1123 41.8702 34.9228 41.9611 33.542 41.9611C30.8349 41.9611 28.6748 41.3879 27.0615 40.2417C25.4619 39.0814 24.6621 36.8867 24.6621 33.6576V30.5753C24.6621 27.472 25.3867 25.3332 26.8359 24.159C28.2988 22.9708 30.1377 22.3767 32.3525 22.3767C34.7041 22.3767 36.4951 22.7261 37.7255 23.4251C38.9697 24.11 39.6328 25.0955 39.7148 26.3816L39.7353 26.6332H47.9384V26.2977C47.9384 22.8449 46.5644 20.3078 43.8164 18.6862C41.082 17.0647 37.3632 16.2539 32.6601 16.2539C27.834 16.2539 23.8896 17.484 20.8271 19.9443C17.7783 22.4046 16.2539 26.3047 16.2539 31.6447V32.5882Z" fill="#090909"/>
  <defs>
  <linearGradient id="paint0_linear_10529_8936" x1="0" y1="32" x2="64" y2="32" gradientUnits="userSpaceOnUse">
  <stop stop-color="#C5ACFF"/>
  <stop offset="1" stop-color="#FBC2EB"/>
  </linearGradient>
  </defs>
  </svg>
  