<svg width="24" height="24" viewBox="0 0 24 24" fill="none" xmlns="http://www.w3.org/2000/svg">
  <path d="M12 20C16.3765 20 20 16.3686 20 12C20 7.62353 16.3686 4 11.9922 4C7.62353 4 4 7.62353 4 12C4 16.3686 7.63137 20 12 20ZM11.9294 9.13725C11.3412 9.13725 10.8706 8.66667 10.8706 8.07059C10.8706 7.47451 11.3412 7.00392 11.9294 7.00392C12.5176 7.00392 12.9804 7.47451 12.9804 8.07059C12.9804 8.66667 12.5176 9.13725 11.9294 9.13725ZM10.5882 16.4627C10.251 16.4627 9.99216 16.2196 9.99216 15.8824C9.99216 15.5686 10.251 15.3098 10.5882 15.3098H11.5843V11.6235H10.7216C10.3922 11.6235 10.1333 11.3804 10.1333 11.0431C10.1333 10.7294 10.3922 10.4706 10.7216 10.4706H12.2431C12.6588 10.4706 12.8784 10.7686 12.8784 11.2078V15.3098H13.8745C14.2118 15.3098 14.4706 15.5686 14.4706 15.8824C14.4706 16.2196 14.2118 16.4627 13.8745 16.4627H10.5882Z" fill="#007AFF" />
</svg>
  