<svg width="50" height="19" viewBox="0 0 50 19" fill="none" xmlns="http://www.w3.org/2000/svg">
  <path fill-rule="evenodd" clip-rule="evenodd" d="M10.0479 2.47911C9.08125 2.65856 8.13341 3.34269 7.64935 4.2103L7.39707 4.66246L7.41726 8.0719L7.43746 11.4814L9.85441 7.8033L12.2713 4.12519L14.0293 4.10544L15.7873 4.08569V9.33888V14.592L14.4474 14.572L13.1076 14.5518L13.0687 11.1112L13.0299 7.67055L10.7706 11.1112L8.51136 14.5518L6.59673 14.5714L4.68201 14.5911L4.66166 11.983L4.64123 9.37493L2.67999 12.7397C1.60127 14.5904 0.71875 16.1269 0.71875 16.1542C0.71875 16.1815 9.46705 16.2039 20.1595 16.2039C37.2409 16.2039 39.6564 16.1905 40.0632 16.0931C40.7767 15.9222 41.7193 15.4507 42.2358 15.0063L42.8944 14.3583C42.8944 14.3583 42.5307 14.603 40.7591 14.5713C38.9876 14.5396 38.7627 14.5208 38.1949 14.3583C36.4923 13.8708 35.1348 12.6438 34.5601 11.0727C34.3712 10.5561 34.3222 10.2849 34.2935 9.59551C34.2488 8.51966 34.3867 7.87218 34.8494 6.98606C36.3319 4.147 40.1911 3.20934 43.0358 4.99714C43.3246 5.17858 43.6292 5.39841 43.7127 5.48565L43.8646 5.64432L42.8944 6.51216L41.9242 7.38007L41.6912 7.17403C41.1896 6.73046 40.2126 6.45489 39.4929 6.55394C38.5269 6.68692 37.6443 7.26325 37.2742 8.00288C36.5496 9.45101 37.0683 11.0791 38.4858 11.8057C38.4858 11.8057 38.7755 11.9731 38.9727 12.0553C40.3725 12.639 42.701 12.2381 44.3295 12.0553L47.1077 7.28909C48.6356 4.66774 49.8857 2.49519 49.8857 2.46126C49.8857 2.37968 10.4885 2.39731 10.0479 2.47911ZM21.8114 6.63948C22.8235 8.04252 23.6679 9.23073 23.6878 9.27985C23.7078 9.32897 22.8774 10.5435 21.8425 11.9789L19.9609 14.5885H18.4095C17.1677 14.5885 16.8659 14.5695 16.8969 14.493C16.9182 14.4404 17.6144 13.4575 18.4439 12.3086C19.2734 11.1596 20.0957 10.019 20.2712 9.77364L20.5903 9.32757L18.7358 6.76313C17.7158 5.35267 16.8798 4.1738 16.878 4.14355C16.8762 4.1133 17.5714 4.08848 18.423 4.08848H19.9712L21.8114 6.63948ZM26.8945 9.33851V14.5885H25.5353H24.176V9.33851V4.08848H25.5353H26.8945V9.33851ZM34.1958 4.12483C34.1958 4.1448 33.3686 5.30774 32.3575 6.70924C31.3465 8.11067 30.5198 9.29211 30.5205 9.33462C30.5211 9.37714 31.3483 10.5569 32.3587 11.9563C33.3691 13.3557 34.1958 14.5205 34.1958 14.5446C34.1958 14.5688 33.4989 14.5885 32.6472 14.5885H31.0987L29.2325 12.0002C28.2061 10.5766 27.364 9.3789 27.361 9.33851C27.3565 9.27566 29.3503 6.46583 30.6826 4.65754L31.1018 4.08848H32.6488C33.4996 4.08848 34.1958 4.10485 34.1958 4.12483Z" fill="#090909" />
</svg>
  