<svg width="32" height="32" viewBox="0 0 32 32" fill="none" xmlns="http://www.w3.org/2000/svg">
  <rect width="32" height="32" rx="8" fill="#FF6700" />
  <path d="M12.1147 8.13115C12.1147 9.95215 13.346 11.4731 15.0325 11.8973V18.4467C15.0325 21.499 15.5809 23.1648 15.9947 23.1648C16.4189 23.1648 16.957 21.5093 16.957 18.4467V11.8973C18.6435 11.4835 19.8851 9.95215 19.8851 8.13115C19.8851 5.9894 18.1572 4.23047 15.9947 4.23047C13.8426 4.23047 12.1147 5.9894 12.1147 8.13115ZM14.8876 8.34843C14.1841 8.34843 13.5633 7.72763 13.5633 7.00336C13.5633 6.28945 14.1841 5.679 14.8876 5.679C15.6223 5.679 16.2224 6.28945 16.2224 7.00336C16.2224 7.72763 15.6223 8.34843 14.8876 8.34843ZM16.0051 26.9517C22.2441 26.9517 25.824 24.7996 25.824 22.5233C25.824 19.7918 21.4888 18.126 18.6435 18.0949V19.6056C20.6404 19.6366 23.734 20.723 23.734 22.275C23.734 24.0546 20.4541 25.3169 16.0051 25.3169C11.5353 25.3169 8.27615 24.0753 8.27615 22.275C8.27615 20.723 11.3594 19.6366 13.3563 19.6056V18.0949C10.511 18.126 6.17578 19.7918 6.17578 22.5233C6.17578 24.7996 9.76606 26.9517 16.0051 26.9517Z" fill="#F9F9F9" />
</svg>
  