<svg width="60" height="24" viewBox="0 0 60 24" fill="none" xmlns="http://www.w3.org/2000/svg">
  <rect width="60" height="24" rx="12" fill="white"/>
  <circle cx="15" cy="12" r="3" fill="#D9D9D9"/>
  <path d="M24.8936 15H30.4941V13.7549H26.5488V7.89062H24.8936V15ZM31.4023 15H33.0088V9.65332H31.4023V15ZM31.29 8.2959C31.29 8.53027 31.3682 8.72721 31.5244 8.88672C31.6839 9.04297 31.9102 9.12109 32.2031 9.12109C32.4961 9.12109 32.7223 9.04297 32.8818 8.88672C33.0413 8.73047 33.1211 8.53516 33.1211 8.30078C33.1211 8.06966 33.0413 7.87598 32.8818 7.71973C32.7256 7.56348 32.501 7.48535 32.208 7.48535C31.9118 7.48535 31.6839 7.56348 31.5244 7.71973C31.3682 7.87598 31.29 8.06803 31.29 8.2959ZM33.7461 9.65332L36.2949 15H37.8477L40.416 9.65332H38.8828L37.4912 12.6758C37.4359 12.7995 37.3822 12.9281 37.3301 13.0615C37.278 13.195 37.2275 13.348 37.1787 13.5205H37.1494C37.1006 13.3415 37.0501 13.1868 36.998 13.0566C36.9492 12.9264 36.8971 12.7995 36.8418 12.6758L35.4648 9.65332H33.7461ZM40.7773 12.4023C40.7773 13.2324 41.0833 13.8981 41.6953 14.3994C42.3073 14.9007 43.1536 15.1514 44.2344 15.1514C44.9115 15.1514 45.5007 15.0505 46.002 14.8486C46.5065 14.6436 46.8613 14.3799 47.0664 14.0576L45.9531 13.3105C45.7643 13.5156 45.5218 13.6784 45.2256 13.7988C44.9294 13.9193 44.5892 13.9795 44.2051 13.9795C43.5573 13.9795 43.0853 13.8477 42.7891 13.584C42.4928 13.3171 42.3447 12.9525 42.3447 12.4902V12.1533C42.3447 11.6781 42.4863 11.3086 42.7695 11.0449C43.056 10.778 43.4694 10.6445 44.0098 10.6445C44.5892 10.6445 45.0026 10.7487 45.25 10.957C45.5007 11.1621 45.6243 11.4583 45.6211 11.8457V11.8066H41.8223V12.7197H47.1934V12.1631C47.1934 11.3298 46.9183 10.6787 46.3682 10.21C45.818 9.73796 45.0547 9.50195 44.0781 9.50195C43.1146 9.50195 42.3236 9.7526 41.7051 10.2539C41.0866 10.7552 40.7773 11.4193 40.7773 12.2461V12.4023Z" fill="#6A6A6A"/>
  </svg>
  