<svg width="16" height="16" viewBox="0 0 16 16" fill="none" xmlns="http://www.w3.org/2000/svg">
  <path fill-rule="evenodd" clip-rule="evenodd" d="M16 8C16 12.378 12.3307 16 8 16C3.62205 16 0 12.4094 0 8C0 3.62205 3.62205 0 8 0C12.3937 0 16 3.6063 16 8ZM8 9.35433C7.44882 9.35433 7.05512 8.97638 7.03937 8.44094L6.91339 3.93701C6.89764 3.29134 7.33858 2.85039 8 2.85039C8.66142 2.85039 9.10236 3.29134 9.08661 3.93701L8.96063 8.44094C8.94488 8.97638 8.55118 9.35433 8 9.35433ZM6.66142 11.7795C6.66142 12.5197 7.27559 13.1024 8 13.1024C8.72441 13.1024 9.32283 12.5197 9.32283 11.7795C9.33858 11.0551 8.74016 10.4409 8 10.4409C7.27559 10.4409 6.66142 11.0551 6.66142 11.7795Z" fill="#FF6700" />
</svg>
  