<svg width="18" height="18" viewBox="0 0 18 18" fill="none" xmlns="http://www.w3.org/2000/svg">
  <path d="M8.99998 17.6953C13.7568 17.6953 17.6953 13.7483 17.6953 8.99998C17.6953 4.24314 13.7483 0.304688 8.99145 0.304688C4.24314 0.304688 0.304688 4.24314 0.304688 8.99998C0.304688 13.7483 4.25167 17.6953 8.99998 17.6953ZM6.39139 8.19865C5.83728 8.19865 5.35989 7.69568 5.35989 6.99665C5.35989 6.28057 5.83728 5.77761 6.39139 5.77761C6.95403 5.77761 7.44846 6.28057 7.44846 6.99665C7.44846 7.69568 6.95403 8.19865 6.39139 8.19865ZM11.6 8.19865C11.0459 8.19865 10.5685 7.69568 10.5685 6.99665C10.5685 6.28057 11.0459 5.77761 11.6 5.77761C12.1627 5.77761 12.6571 6.28057 12.6571 6.99665C12.6571 7.69568 12.1627 8.19865 11.6 8.19865ZM8.99998 13.3902C7.15862 13.3902 5.92253 12.1627 5.92253 11.583C5.92253 11.3699 6.13565 11.2761 6.31467 11.3613C6.96255 11.7023 7.71273 12.1115 8.99998 12.1115C10.2787 12.1115 11.0374 11.7109 11.6768 11.3613C11.8643 11.2761 12.0689 11.3699 12.0689 11.583C12.0689 12.1627 10.8328 13.3902 8.99998 13.3902Z" fill="#F9F9F9" />
</svg>
  