<svg width="24" height="24" viewBox="0 0 24 24" fill="none" xmlns="http://www.w3.org/2000/svg">
  <rect width="24" height="24" rx="12" fill="url(#paint0_linear_10110_7312)" />
  <path d="M6.85547 12.1497C6.85547 13.8844 7.35159 15.1503 8.34384 15.9474C9.33609 16.7446 10.7026 17.1431 12.4435 17.1431C13.5908 17.1431 14.5543 16.9869 15.3339 16.6744C16.1135 16.3573 16.7159 16.0131 17.1412 15.6417V11.5383H12.2973V13.4406H14.5365V14.7585C14.2486 14.9216 13.9407 15.0348 13.6129 15.0982C13.2896 15.1571 12.9042 15.1865 12.4568 15.1865C11.5797 15.1865 10.8798 15.0008 10.3571 14.6295C9.83886 14.2535 9.57972 13.5425 9.57972 12.4962V11.4975C9.57972 10.4921 9.81449 9.79911 10.284 9.41866C10.758 9.03368 11.3538 8.84119 12.0714 8.84119C12.8333 8.84119 13.4136 8.95442 13.8123 9.18088C14.2154 9.40281 14.4302 9.72211 14.4568 10.1388L14.4634 10.2203H17.1212V10.1116C17.1212 8.99292 16.6761 8.17088 15.7857 7.6455C14.8998 7.12011 13.6949 6.85742 12.1711 6.85742C10.6074 6.85742 9.32944 7.25599 8.3372 8.05312C7.34938 8.85025 6.85547 10.1139 6.85547 11.844V12.1497Z" fill="#090909" />
  <defs>
    <linearGradient id="paint0_linear_10110_7312" x1="0" y1="12" x2="24" y2="12" gradientUnits="userSpaceOnUse">
      <stop stop-color="#C5ACFF" />
      <stop offset="1" stop-color="#FBC2EB" />
    </linearGradient>
  </defs>
</svg>
  