<svg width="56" height="56" viewBox="0 0 56 56" fill="none" xmlns="http://www.w3.org/2000/svg">
  <path d="M28.0401 44.8635L44.3347 28.5355C45.5881 27.2821 45.6716 26.5635 45.6716 24.8087V18.458C45.6716 16.6864 45.2538 16.1349 43.9837 14.8648L40.1399 11.021C38.8864 9.76753 38.3349 9.33301 36.5634 9.33301H30.196C28.4412 9.33301 27.7393 9.41657 26.4859 10.67L10.1412 26.9813C7.7513 29.3711 7.70116 31.8446 10.1579 34.2846L20.7368 44.8468C23.1935 47.2868 25.6502 47.2534 28.0401 44.8635ZM33.7557 22.7029C32.4355 22.7029 31.4661 21.6834 31.4661 20.4133C31.4661 19.1265 32.4355 18.1237 33.7557 18.1237C35.0593 18.1237 36.0453 19.1265 36.0453 20.4133C36.0453 21.6834 35.0593 22.7029 33.7557 22.7029Z" fill="#5437FF" />
</svg>
  