<svg width="24" height="24" viewBox="0 0 24 24" fill="none" xmlns="http://www.w3.org/2000/svg">
  <path d="M7.78104 16.1954C10.6921 19.1064 14.2276 21.3526 17.1185 21.3526C18.4179 21.3526 19.5561 20.8994 20.4728 19.8921C21.0066 19.2978 21.339 18.6028 21.339 17.9178C21.339 17.4142 21.1476 16.9307 20.6742 16.5882L17.5819 14.3923C17.1084 14.07 16.7156 13.9088 16.353 13.9088C15.8997 13.9088 15.4867 14.1707 15.0234 14.624L14.3082 15.3291C14.1974 15.4399 14.0564 15.4903 13.9254 15.4903C13.7744 15.4903 13.6233 15.4298 13.5225 15.3795C12.898 15.0471 11.8303 14.1304 10.8331 13.1433C9.84596 12.1562 8.92934 11.0885 8.60701 10.4639C8.55665 10.3531 8.49621 10.2121 8.49621 10.061C8.49621 9.93009 8.5365 9.79914 8.6473 9.68834L9.36247 8.95303C9.80567 8.48968 10.0776 8.08677 10.0776 7.62342C10.0776 7.2608 9.9064 6.86796 9.574 6.39454L7.40835 3.34248C7.0558 2.85899 6.56223 2.64746 6.0183 2.64746C5.3535 2.64746 4.66855 2.94964 4.07425 3.52379C3.09719 4.46056 2.66406 5.61893 2.66406 6.89818C2.66406 9.78907 4.87 13.2944 7.78104 16.1954Z" fill="#090909" />
</svg>
  