<svg width="26" height="26" viewBox="0 0 26 26" fill="none" xmlns="http://www.w3.org/2000/svg">
  <path d="M13 0C5.82024 0 0 5.82024 0 13C0 20.1798 5.82024 26 13 26C20.1798 26 26 20.1798 26 13C26 5.82024 20.1798 0 13 0Z" fill="#2992BB"/>
  <path d="M19.3256 7.47811L17.0036 19.1851C17.0036 19.1851 16.6789 19.997 15.7858 19.6073L10.4276 15.4993L8.47923 14.5576L5.19937 13.4534C5.19937 13.4534 4.69602 13.2749 4.64727 12.8852C4.59852 12.4955 5.21562 12.2845 5.21562 12.2845L18.2538 7.16977C18.2538 7.16977 19.3255 6.69892 19.3255 7.47831" fill="white"/>
  <path d="M10.0161 19.0533C10.0161 19.0533 9.85973 19.0387 9.66473 18.4216C9.47003 17.8046 8.47949 14.5572 8.47949 14.5572L16.3544 9.55628C16.3544 9.55628 16.8091 9.28023 16.7929 9.55628C16.7929 9.55628 16.874 9.60503 16.6304 9.83233C16.3869 10.0597 10.4442 15.4016 10.4442 15.4016" fill="#D2E5F1"/>
  <path d="M12.4824 17.0743L10.3631 19.0067C10.3631 19.0067 10.1973 19.1324 10.0161 19.0536L10.422 15.4644" fill="#B5CFE4"/>
  </svg>
  