<svg width="26" height="26" viewBox="0 0 26 26" fill="none" xmlns="http://www.w3.org/2000/svg">
  <g clip-path="url(#clip0_4227_3435)">
  <path fill-rule="evenodd" clip-rule="evenodd" d="M12.9924 23.6005H12.9881C11.07 23.6008 9.18707 23.0852 7.53675 22.1076L7.14675 21.8758L3.09292 22.9396L4.17517 18.9876L3.92058 18.5825C2.84823 16.8755 2.28074 14.9 2.28367 12.8841C2.28583 6.97996 7.08933 2.17646 12.9967 2.17646C15.8568 2.17646 18.5456 3.2923 20.5671 5.31596C21.5642 6.30892 22.3544 7.48974 22.8922 8.7901C23.43 10.0905 23.7046 11.4845 23.7001 12.8917C23.6979 18.7959 18.8944 23.6005 12.9924 23.6005ZM16.666 14.533C16.9607 14.6413 18.5434 15.4191 18.8663 15.5805H18.8652C19.188 15.742 19.4025 15.8221 19.4827 15.9565C19.5628 16.0908 19.5628 16.7354 19.2953 17.4872C19.0266 18.239 17.7396 18.9259 17.1221 19.018C16.5674 19.1014 15.8654 19.136 15.0941 18.8901C14.6272 18.7428 14.0281 18.5445 13.2589 18.213C10.0295 16.8188 7.92133 13.5666 7.75992 13.3521L7.75728 13.3486C7.58637 13.1204 6.44583 11.5974 6.44583 10.022C6.44583 8.43705 7.27675 7.65813 7.5725 7.33638C7.86717 7.01355 8.216 6.93338 8.4305 6.93338C8.645 6.93338 8.8595 6.93555 9.048 6.94421C9.24517 6.95505 9.51058 6.86946 9.77167 7.49671C10.0403 8.1413 10.6838 9.72621 10.764 9.88763C10.8453 10.049 10.8994 10.2365 10.7911 10.451C10.6838 10.6665 10.6307 10.8009 10.4693 10.9894C10.3079 11.1768 10.1313 11.4086 9.98617 11.5527C9.82475 11.713 9.65792 11.8875 9.84533 12.2092C10.0328 12.532 10.6795 13.5861 11.6361 14.4398C12.8657 15.5361 13.9035 15.8752 14.2253 16.0377C14.547 16.198 14.7344 16.172 14.9229 15.9565C15.1103 15.742 15.7268 15.0161 15.9413 14.6955C16.1568 14.3726 16.3713 14.4257 16.666 14.533Z" fill="#10B866"/>
  <path fill-rule="evenodd" clip-rule="evenodd" d="M12.9881 23.6005H12.9924C18.8944 23.6005 23.6979 18.7959 23.7001 12.8917C23.7046 11.4845 23.43 10.0905 22.8922 8.7901C22.3544 7.48974 21.5642 6.30892 20.5671 5.31596C18.5456 3.2923 15.8568 2.17646 12.9967 2.17646C7.08933 2.17646 2.28583 6.97996 2.28367 12.8841C2.28074 14.9 2.84823 16.8755 3.92058 18.5825L4.17517 18.9876L3.09292 22.9396L7.14675 21.8758L7.53675 22.1076C9.18707 23.0852 11.07 23.6008 12.9881 23.6005ZM17.9271 0.975912C19.4916 1.62454 20.9118 2.57721 22.1054 3.77871C23.3051 4.97327 24.2559 6.39384 24.903 7.95825C25.5502 9.52266 25.8807 11.1998 25.8754 12.8928C25.8733 19.9973 20.0926 25.7769 12.9924 25.7769H12.987C10.8356 25.7768 8.71853 25.2375 6.82933 24.2082L0 26L1.82758 19.3235C0.698072 17.3652 0.105043 15.1437 0.108333 12.883C0.1105 5.77963 5.89117 4.43924e-05 12.9913 4.43924e-05C14.6849 -0.00441594 16.3626 0.32728 17.9271 0.975912Z" fill="#10B866"/>
  </g>
  <defs>
  <clipPath id="clip0_4227_3435">
  <rect width="26" height="26" fill="white"/>
  </clipPath>
  </defs>
  </svg>
  