<svg width="347" height="345" viewBox="0 0 347 345" fill="none" xmlns="http://www.w3.org/2000/svg">
  <rect width="600" height="24" transform="translate(-62.7595 -31.827) rotate(38.5555)" fill="#E9EE1B"/>
  <path d="M92.1271 112.081L92.6915 110.198L89.7637 107.865L88.0638 108.842L86.9189 107.93L94.8007 103.47L95.8142 104.278L93.2907 113.008L92.1271 112.081ZM94.195 105.289L90.9094 107.197L93.0865 108.933L94.195 105.289ZM101.581 111.33L102.604 112.145L98.5651 117.212L97.5422 116.397L99.2325 114.276L96.8865 112.406L95.1962 114.527L94.1639 113.704L98.2028 108.637L99.235 109.46L97.6494 111.449L99.9954 113.319L101.581 111.33ZM104.818 121.168C103.906 121.26 103.062 120.996 102.287 120.378C101.511 119.76 101.063 118.993 100.943 118.079C100.833 117.163 101.083 116.324 101.691 115.561C102.09 115.06 102.567 114.699 103.123 114.477C103.685 114.26 104.262 114.203 104.854 114.307C105.458 114.409 106.013 114.663 106.52 115.067C107.027 115.47 107.394 115.953 107.623 116.513C107.862 117.072 107.936 117.648 107.843 118.239C107.757 118.835 107.514 119.383 107.115 119.884C106.507 120.647 105.741 121.075 104.818 121.168ZM103.08 119.383C103.399 119.637 103.738 119.796 104.098 119.857C104.463 119.913 104.814 119.87 105.151 119.73C105.499 119.588 105.801 119.358 106.055 119.039C106.439 118.557 106.599 118.035 106.536 117.473C106.478 116.916 106.209 116.445 105.727 116.061C105.245 115.677 104.724 115.517 104.161 115.581C103.606 115.649 103.136 115.924 102.752 116.406C102.368 116.888 102.204 117.407 102.262 117.964C102.325 118.526 102.598 118.999 103.08 119.383ZM113.623 120.927L114.646 121.742L110.607 126.81L109.584 125.994L111.274 123.874L108.928 122.004L107.238 124.125L106.206 123.302L110.244 118.234L111.277 119.057L109.691 121.047L112.037 122.916L113.623 120.927ZM114.272 129.93C113.521 129.332 113.091 128.575 112.982 127.66C112.884 126.743 113.135 125.909 113.733 125.158C114.336 124.401 115.093 123.971 116.004 123.868C116.921 123.77 117.758 124.023 118.515 124.627C119.134 125.12 119.532 125.724 119.71 126.438C119.887 127.153 119.813 127.856 119.487 128.547L118.455 127.725C118.553 127.332 118.535 126.95 118.402 126.578C118.274 126.199 118.044 125.878 117.713 125.614C117.418 125.379 117.092 125.237 116.733 125.186C116.375 125.136 116.021 125.181 115.673 125.323C115.336 125.464 115.043 125.69 114.793 126.003C114.419 126.472 114.259 126.989 114.311 127.552C114.363 128.116 114.614 128.577 115.065 128.936C115.396 129.2 115.758 129.35 116.149 129.385C116.546 129.426 116.938 129.345 117.325 129.142L118.376 129.979C117.759 130.459 117.074 130.696 116.322 130.689C115.581 130.682 114.898 130.429 114.272 129.93ZM125.681 130.538L126.263 131.002L122.224 136.069L121.23 135.276L123.795 132.058L118.527 133.122L117.926 132.644L121.965 127.576L122.969 128.377L120.426 131.567L125.681 130.538ZM130.566 134.232C131.067 134.631 131.425 135.106 131.641 135.656C131.862 136.201 131.923 136.766 131.824 137.352C131.725 137.938 131.476 138.481 131.077 138.982C130.469 139.745 129.713 140.181 128.808 140.289C127.915 140.395 127.09 140.147 126.333 139.543C125.683 139.025 125.285 138.375 125.14 137.595L123.3 139.903L122.258 139.073L127.748 132.185L128.452 132.746L128.155 133.522C129.037 133.417 129.841 133.654 130.566 134.232ZM126.233 137.07C126.297 137.632 126.566 138.102 127.042 138.481C127.523 138.865 128.045 139.026 128.607 138.962C129.174 138.892 129.647 138.62 130.026 138.144C130.405 137.669 130.563 137.15 130.5 136.588C130.441 136.02 130.174 135.546 129.699 135.167C129.386 134.918 129.044 134.763 128.673 134.702C128.301 134.642 127.942 134.682 127.593 134.824C127.256 134.965 126.963 135.191 126.714 135.504C126.335 135.98 126.175 136.501 126.233 137.07ZM137.656 140.082L138.773 140.972L132.332 144.279C131.525 144.689 130.868 144.897 130.362 144.903C129.857 144.92 129.351 144.727 128.845 144.323L128.329 143.911L129.077 142.973L129.508 143.317C129.84 143.581 130.136 143.71 130.397 143.703C130.658 143.697 131.047 143.561 131.564 143.298L131.864 143.153L133.405 136.694L134.541 137.599L133.326 142.416L137.656 140.082ZM142.192 147.856C142.117 147.949 142.018 148.06 141.896 148.188L137.786 144.912C137.524 145.368 137.437 145.825 137.522 146.282C137.614 146.745 137.867 147.14 138.28 147.469C138.48 147.629 138.69 147.75 138.91 147.834C139.135 147.911 139.356 147.948 139.572 147.947C139.799 147.944 140.019 147.899 140.231 147.812L141.329 148.687C140.7 149.066 140.045 149.234 139.362 149.191C138.685 149.143 138.065 148.894 137.502 148.445C136.758 147.852 136.337 147.102 136.24 146.197C136.15 145.296 136.407 144.467 137.01 143.71C137.613 142.953 138.364 142.518 139.262 142.406C140.166 142.298 140.991 142.54 141.735 143.134C142.242 143.538 142.595 144.019 142.795 144.577C143 145.129 143.046 145.693 142.935 146.269C142.828 146.839 142.581 147.368 142.192 147.856ZM140.987 144.072C140.599 143.763 140.181 143.608 139.731 143.608C139.287 143.612 138.87 143.771 138.478 144.082L141.547 146.528C141.688 146.222 141.76 145.921 141.76 145.624C141.766 145.322 141.7 145.039 141.562 144.776C141.435 144.511 141.244 144.277 140.987 144.072ZM147.677 156.356L146.673 155.555L148.816 151.616L144.41 153.659L144.194 153.487L145.212 148.744L141.85 151.711L140.846 150.911L145.795 146.569L146.677 147.272L145.72 151.803L149.933 149.867L150.806 150.563L147.677 156.356Z" fill="#222127"/>
  <path d="M246.964 235.489L247.528 233.606L244.601 231.273L242.901 232.25L241.756 231.338L249.638 226.878L250.651 227.686L248.128 236.416L246.964 235.489ZM249.032 228.697L245.746 230.605L247.923 232.341L249.032 228.697ZM256.418 234.738L257.441 235.553L253.402 240.62L252.379 239.805L254.069 237.684L251.723 235.814L250.033 237.935L249.001 237.112L253.04 232.045L254.072 232.868L252.486 234.857L254.832 236.727L256.418 234.738ZM259.655 244.576C258.743 244.667 257.899 244.404 257.124 243.786C256.348 243.168 255.9 242.401 255.779 241.487C255.67 240.571 255.92 239.732 256.528 238.969C256.927 238.468 257.404 238.107 257.96 237.885C258.522 237.668 259.099 237.611 259.691 237.715C260.295 237.817 260.85 238.071 261.357 238.474C261.864 238.878 262.231 239.361 262.46 239.921C262.699 240.48 262.773 241.056 262.68 241.647C262.594 242.243 262.351 242.791 261.952 243.292C261.344 244.055 260.578 244.483 259.655 244.576ZM257.916 242.791C258.235 243.045 258.575 243.203 258.935 243.265C259.3 243.321 259.651 243.278 259.988 243.138C260.336 242.996 260.638 242.766 260.892 242.447C261.276 241.965 261.436 241.443 261.373 240.881C261.315 240.324 261.046 239.853 260.564 239.469C260.082 239.085 259.56 238.925 258.998 238.989C258.442 239.057 257.973 239.332 257.589 239.814C257.205 240.296 257.041 240.815 257.099 241.372C257.162 241.934 257.435 242.407 257.916 242.791ZM268.46 244.335L269.482 245.15L265.444 250.218L264.421 249.402L266.111 247.282L263.765 245.412L262.075 247.533L261.043 246.71L265.081 241.642L266.114 242.465L264.528 244.455L266.874 246.324L268.46 244.335ZM269.109 253.338C268.358 252.74 267.928 251.983 267.819 251.067C267.721 250.151 267.972 249.317 268.57 248.566C269.173 247.809 269.93 247.379 270.841 247.276C271.758 247.178 272.595 247.431 273.352 248.035C273.971 248.528 274.369 249.132 274.547 249.846C274.724 250.561 274.65 251.264 274.324 251.955L273.292 251.132C273.39 250.74 273.372 250.358 273.239 249.986C273.111 249.607 272.881 249.286 272.549 249.022C272.255 248.787 271.929 248.645 271.57 248.594C271.212 248.544 270.858 248.589 270.51 248.731C270.173 248.872 269.88 249.098 269.63 249.411C269.256 249.88 269.095 250.397 269.148 250.96C269.2 251.523 269.451 251.985 269.902 252.344C270.233 252.608 270.595 252.758 270.986 252.793C271.383 252.834 271.775 252.753 272.162 252.549L273.213 253.387C272.596 253.867 271.911 254.104 271.159 254.097C270.418 254.09 269.735 253.837 269.109 253.338ZM280.518 253.946L281.1 254.41L277.061 259.477L276.067 258.684L278.632 255.466L273.364 256.53L272.763 256.052L276.802 250.984L277.806 251.784L275.263 254.975L280.518 253.946ZM285.403 257.64C285.904 258.039 286.262 258.514 286.478 259.064C286.699 259.609 286.76 260.174 286.661 260.76C286.562 261.346 286.313 261.889 285.914 262.39C285.306 263.153 284.55 263.589 283.645 263.697C282.752 263.803 281.927 263.555 281.17 262.951C280.519 262.433 280.122 261.783 279.977 261.003L278.137 263.311L277.095 262.481L282.585 255.593L283.289 256.154L282.992 256.93C283.874 256.825 284.678 257.062 285.403 257.64ZM281.07 260.478C281.134 261.04 281.403 261.51 281.878 261.889C282.36 262.273 282.882 262.434 283.444 262.37C284.011 262.3 284.484 262.028 284.863 261.552C285.242 261.077 285.4 260.558 285.336 259.996C285.278 259.427 285.011 258.954 284.535 258.575C284.223 258.326 283.881 258.171 283.51 258.11C283.138 258.05 282.779 258.09 282.43 258.232C282.093 258.373 281.8 258.599 281.551 258.912C281.172 259.387 281.012 259.909 281.07 260.478ZM292.493 263.49L293.61 264.38L287.169 267.687C286.362 268.097 285.705 268.305 285.199 268.311C284.694 268.328 284.188 268.134 283.682 267.731L283.166 267.319L283.913 266.381L284.345 266.725C284.677 266.989 284.973 267.118 285.234 267.111C285.495 267.104 285.884 266.969 286.401 266.706L286.701 266.561L288.242 260.102L289.378 261.007L288.163 265.824L292.493 263.49ZM297.029 271.264C296.954 271.357 296.855 271.468 296.733 271.596L292.623 268.32C292.361 268.776 292.274 269.233 292.359 269.69C292.451 270.152 292.704 270.548 293.117 270.877C293.317 271.037 293.527 271.158 293.747 271.241C293.972 271.319 294.193 271.356 294.409 271.355C294.636 271.352 294.856 271.307 295.068 271.22L296.166 272.095C295.537 272.474 294.882 272.642 294.199 272.599C293.522 272.551 292.902 272.302 292.339 271.853C291.594 271.26 291.174 270.51 291.077 269.605C290.987 268.704 291.243 267.875 291.847 267.118C292.45 266.361 293.201 265.926 294.099 265.813C295.003 265.706 295.828 265.948 296.572 266.542C297.079 266.946 297.432 267.427 297.632 267.985C297.836 268.537 297.883 269.101 297.772 269.677C297.665 270.247 297.418 270.776 297.029 271.264ZM295.824 267.48C295.436 267.171 295.018 267.016 294.568 267.016C294.124 267.02 293.707 267.179 293.315 267.49L296.383 269.936C296.525 269.63 296.597 269.328 296.597 269.032C296.603 268.73 296.537 268.447 296.399 268.184C296.272 267.919 296.081 267.685 295.824 267.48ZM302.514 279.764L301.51 278.963L303.652 275.024L299.246 277.067L299.031 276.895L300.049 272.152L296.687 275.119L295.683 274.319L300.632 269.977L301.514 270.68L300.557 275.211L304.77 273.275L305.643 273.971L302.514 279.764Z" fill="#222127"/>
  <path d="M3.71919 30.8765L8.64582 34.8031L3.41032 41.3719L2.32177 40.5043L6.75698 34.9396L3.99807 32.7407L-0.437139 38.3054L-1.5163 37.4453L3.71919 30.8765ZM9.68556 45.3453C8.77367 45.4369 7.92985 45.1736 7.1541 44.5553C6.37835 43.937 5.9303 43.1707 5.80994 42.2564C5.70083 41.3407 5.95043 40.5013 6.55875 39.7381C6.95764 39.2376 7.43488 38.8763 7.99045 38.6541C8.55228 38.437 9.1294 38.3803 9.7218 38.4842C10.3254 38.5868 10.8806 38.84 11.3874 39.2439C11.8941 39.6478 12.2617 40.13 12.4901 40.6906C12.7297 41.2499 12.8033 41.8251 12.7106 42.4162C12.6243 43.0123 12.3816 43.5606 11.9827 44.0611C11.3744 44.8243 10.6087 45.2524 9.68556 45.3453ZM7.9469 43.5606C8.26596 43.8149 8.60546 43.9729 8.9654 44.0347C9.33032 44.0903 9.68132 44.0478 10.0184 43.9073C10.3667 43.7654 10.668 43.535 10.9223 43.216C11.3063 42.7342 11.4665 42.2123 11.403 41.6502C11.3458 41.0931 11.0763 40.6226 10.5946 40.2386C10.1129 39.8547 9.59094 39.6945 9.02883 39.758C8.47297 39.8264 8.00308 40.1015 7.61914 40.5832C7.23521 41.065 7.07186 41.5844 7.12909 42.1415C7.19259 42.7036 7.46519 43.1766 7.9469 43.5606ZM14.2636 50.0222L14.4636 46.6522L13.8349 46.1511L12.1146 48.3094L11.073 47.4792L15.1118 42.4118L16.1534 43.242L14.5903 45.2033L15.2284 45.7119L18.171 44.8501L19.4003 45.8299L15.7459 46.8916L15.5492 51.0468L14.2636 50.0222ZM24.3845 49.8024L25.1915 50.4456L21.1527 55.513L20.3081 54.8398L20.6985 54.1382C19.8167 54.2435 19.0098 54.0045 18.2778 53.4211C17.5208 52.8178 17.0909 52.0608 16.988 51.1502C16.8914 50.2445 17.1448 49.4132 17.7481 48.6562C18.3564 47.893 19.1103 47.4606 20.0097 47.359C20.9203 47.2562 21.7541 47.5064 22.5111 48.1097C23.2555 48.7031 23.6723 49.4445 23.7614 50.3339L24.3845 49.8024ZM18.3279 51.0671C18.3976 51.6342 18.6702 52.1073 19.1457 52.4862C19.6274 52.8702 20.1462 53.0279 20.702 52.9594C21.2691 52.8897 21.7421 52.617 22.1211 52.1416C22.505 51.6599 22.6653 51.138 22.6018 50.5759C22.5445 50.0187 22.275 49.5482 21.7933 49.1643C21.4805 48.915 21.1385 48.76 20.7674 48.6995C20.4024 48.6439 20.0458 48.6871 19.6975 48.8289C19.3542 48.9644 19.0578 49.1886 18.8085 49.5014C18.4296 49.9769 18.2694 50.4988 18.3279 51.0671ZM32.4195 56.2064L33.4424 57.0217L29.4036 62.0891L28.3807 61.2738L30.071 59.153L27.725 57.2832L26.0347 59.404L25.0024 58.5813L29.0412 53.5139L30.0735 54.3366L28.4879 56.326L30.8339 58.1958L32.4195 56.2064ZM37.7117 64.583C37.6369 64.6768 37.5384 64.7876 37.4162 64.9152L33.306 61.6393C33.0445 62.0958 32.9566 62.5526 33.0424 63.0098C33.1344 63.4719 33.3869 63.8675 33.7998 64.1966C34 64.3561 34.2101 64.4775 34.4302 64.5609C34.6552 64.6379 34.8758 64.6756 35.0919 64.674C35.3193 64.6711 35.5391 64.6263 35.7514 64.5397L36.8493 65.4148C36.2203 65.7932 35.5647 65.9612 34.8824 65.9187C34.2052 65.87 33.585 65.6212 33.022 65.1725C32.2775 64.5791 31.857 63.8296 31.7604 62.924C31.67 62.0234 31.9265 61.1945 32.5298 60.4376C33.1332 59.6806 33.8839 59.2457 34.782 59.1329C35.6864 59.025 36.5108 59.2678 37.2552 59.8611C37.762 60.265 38.1152 60.746 38.3149 61.3041C38.5195 61.856 38.5661 62.42 38.4547 62.9962C38.3483 63.5661 38.1007 64.095 37.7117 64.583ZM36.5073 60.7995C36.1194 60.4904 35.7006 60.3356 35.2508 60.3352C34.8073 60.3397 34.3897 60.4979 33.9979 60.8097L37.0665 63.2554C37.2084 62.9491 37.2797 62.6478 37.2804 62.3517C37.2861 62.0494 37.22 61.7665 37.0821 61.5031C36.9554 61.2385 36.7638 61.004 36.5073 60.7995ZM41.9098 70.4455L42.5667 70.9691L40.7642 73.2306L39.8164 72.4752L40.8336 71.199L37.1362 68.2522L36.1191 69.5284L35.1713 68.773L36.9738 66.5114L37.5087 66.9377C37.7473 66.9336 38.0014 66.8394 38.2709 66.6552C38.5467 66.4761 38.9128 66.1643 39.3693 65.7199C39.8307 65.2693 40.5578 64.524 41.5504 63.4839L45.1633 66.3635L41.9098 70.4455ZM41.7371 65.1365C40.8555 66.1014 40.1939 66.7711 39.7523 67.1454C39.3107 67.5198 38.9257 67.7398 38.5972 67.8053L40.8869 69.6303L43.4074 66.4679L41.7371 65.1365ZM47.5792 75.5472C46.6673 75.6389 45.8235 75.3755 45.0477 74.7572C44.272 74.139 43.8239 73.3726 43.7036 72.4583C43.5944 71.5427 43.844 70.7033 44.4524 69.94C44.8512 69.4396 45.3285 69.0782 45.8841 68.8561C46.4459 68.6389 47.023 68.5823 47.6154 68.6861C48.219 68.7887 48.7742 69.042 49.281 69.4459C49.7877 69.8497 50.1553 70.332 50.3837 70.8925C50.6234 71.4518 50.6969 72.027 50.6042 72.6182C50.5179 73.2143 50.2752 73.7626 49.8763 74.2631C49.268 75.0263 48.5023 75.4544 47.5792 75.5472ZM45.8405 73.7625C46.1596 74.0168 46.4991 74.1749 46.859 74.2367C47.2239 74.2923 47.5749 74.2498 47.912 74.1092C48.2603 73.9674 48.5616 73.737 48.8159 73.4179C49.1999 72.9362 49.3601 72.4143 49.2966 71.8522C49.2394 71.295 48.9699 70.8245 48.4882 70.4406C48.0065 70.0566 47.4845 69.8964 46.9224 69.9599C46.3666 70.0284 45.8967 70.3035 45.5127 70.7852C45.1288 71.2669 44.9655 71.7863 45.0227 72.3435C45.0862 72.9056 45.3588 73.3786 45.8405 73.7625ZM51.1497 79.6206C50.399 79.0223 49.969 78.2653 49.8599 77.3497C49.7621 76.4328 50.0123 75.599 50.6106 74.8483C51.214 74.0913 51.9709 73.6614 52.8816 73.5586C53.7984 73.4607 54.6354 73.7134 55.3923 74.3167C56.0117 74.8104 56.4101 75.4144 56.5876 76.1287C56.765 76.843 56.6907 77.5459 56.3646 78.2374L55.3324 77.4147C55.4304 77.0222 55.4128 76.64 55.2797 76.2679C55.1516 75.8895 54.9217 75.5682 54.5902 75.304C54.2961 75.0696 53.9698 74.9272 53.6111 74.8766C53.2524 74.826 52.8989 74.8716 52.5506 75.0135C52.2135 75.154 51.9203 75.3807 51.671 75.6935C51.2971 76.1627 51.1362 76.679 51.1885 77.2424C51.2407 77.8057 51.4921 78.2669 51.9425 78.6259C52.2741 78.8902 52.6354 79.0401 53.0265 79.0756C53.4239 79.1161 53.8161 79.0348 54.203 78.8317L55.254 79.6694C54.6365 80.149 53.9516 80.3858 53.1994 80.3797C52.4585 80.3723 51.7753 80.1193 51.1497 79.6206ZM62.8041 80.4236L62.0562 81.362L60.2732 79.9409L56.9823 84.0699L55.9689 83.2621L59.2597 79.1331L57.4674 77.7046L58.2153 76.7662L62.8041 80.4236ZM67.3311 84.0317L68.4478 84.9217L62.007 88.2281C61.1994 88.6381 60.5426 88.8461 60.0366 88.852C59.5318 88.8691 59.0261 88.6758 58.5194 88.2719L58.0032 87.8605L58.7512 86.9221L59.1828 87.2662C59.5144 87.5304 59.8107 87.6592 60.0719 87.6525C60.333 87.6458 60.7219 87.5108 61.2387 87.2474L61.5383 87.1026L63.0801 80.6436L64.2156 81.5485L63.0006 86.3653L67.3311 84.0317ZM69.2809 85.5857L73.7008 89.1084L69.6619 94.1758L68.6297 93.3531L71.9131 89.2335L69.5671 87.3637L66.2837 91.4833L65.2421 90.6531L69.2809 85.5857ZM78.5608 92.982L79.5837 93.7972L75.5449 98.8646L74.522 98.0494L76.2123 95.9286L73.8663 94.0587L72.176 96.1795L71.1437 95.3568L75.1826 90.2894L76.2148 91.1121L74.6292 93.1016L76.9752 94.9714L78.5608 92.982ZM81.798 102.82C80.8861 102.912 80.0423 102.649 79.2665 102.03C78.4908 101.412 78.0427 100.646 77.9223 99.7314C77.8132 98.8158 78.0628 97.9763 78.6711 97.2131C79.07 96.7126 79.5473 96.3513 80.1029 96.1291C80.6647 95.912 81.2418 95.8553 81.8342 95.9592C82.4378 96.0618 82.993 96.315 83.4998 96.7189C84.0065 97.1228 84.3741 97.605 84.6025 98.1656C84.8421 98.7249 84.9157 99.3001 84.823 99.8912C84.7367 100.487 84.494 101.036 84.0951 101.536C83.4868 102.299 82.7211 102.727 81.798 102.82ZM80.0593 101.036C80.3784 101.29 80.7179 101.448 81.0778 101.51C81.4427 101.565 81.7937 101.523 82.1308 101.382C82.4791 101.24 82.7804 101.01 83.0347 100.691C83.4187 100.209 83.5789 99.6873 83.5154 99.1252C83.4582 98.5681 83.1887 98.0976 82.707 97.7136C82.2253 97.3297 81.7033 97.1695 81.1412 97.233C80.5854 97.3014 80.1155 97.5765 79.7315 98.0583C79.3476 98.54 79.1843 99.0594 79.2415 99.6165C79.305 100.179 79.5776 100.652 80.0593 101.036Z" fill="#222127"/>
  <path d="M158.556 154.284L163.483 158.211L158.247 164.78L157.159 163.912L161.594 158.348L158.835 156.149L154.4 161.713L153.321 160.853L158.556 154.284ZM164.522 168.753C163.611 168.845 162.767 168.582 161.991 167.963C161.215 167.345 160.767 166.579 160.647 165.664C160.538 164.749 160.787 163.909 161.396 163.146C161.795 162.646 162.272 162.284 162.827 162.062C163.389 161.845 163.966 161.788 164.559 161.892C165.162 161.995 165.718 162.248 166.224 162.652C166.731 163.056 167.099 163.538 167.327 164.099C167.567 164.658 167.64 165.233 167.548 165.824C167.461 166.42 167.219 166.969 166.82 167.469C166.211 168.232 165.446 168.66 164.522 168.753ZM162.784 166.969C163.103 167.223 163.442 167.381 163.802 167.443C164.167 167.498 164.518 167.456 164.855 167.315C165.204 167.173 165.505 166.943 165.759 166.624C166.143 166.142 166.303 165.62 166.24 165.058C166.183 164.501 165.913 164.031 165.431 163.647C164.95 163.263 164.428 163.102 163.866 163.166C163.31 163.234 162.84 163.509 162.456 163.991C162.072 164.473 161.909 164.992 161.966 165.549C162.03 166.112 162.302 166.585 162.784 166.969ZM169.1 173.43L169.3 170.06L168.672 169.559L166.952 171.717L165.91 170.887L169.949 165.82L170.99 166.65L169.427 168.611L170.065 169.12L173.008 168.258L174.237 169.238L170.583 170.3L170.386 174.455L169.1 173.43ZM179.221 173.21L180.028 173.854L175.99 178.921L175.145 178.248L175.535 177.546C174.654 177.651 173.847 177.412 173.115 176.829C172.358 176.226 171.928 175.469 171.825 174.558C171.728 173.652 171.982 172.821 172.585 172.064C173.193 171.301 173.947 170.869 174.847 170.767C175.757 170.664 176.591 170.914 177.348 171.518C178.092 172.111 178.509 172.852 178.598 173.742L179.221 173.21ZM173.165 174.475C173.235 175.042 173.507 175.515 173.983 175.894C174.464 176.278 174.983 176.436 175.539 176.367C176.106 176.298 176.579 176.025 176.958 175.55C177.342 175.068 177.502 174.546 177.439 173.984C177.381 173.427 177.112 172.956 176.63 172.572C176.317 172.323 175.975 172.168 175.604 172.107C175.239 172.052 174.883 172.095 174.534 172.237C174.191 172.372 173.895 172.597 173.645 172.909C173.266 173.385 173.106 173.907 173.165 174.475ZM187.256 179.614L188.279 180.43L184.24 185.497L183.218 184.682L184.908 182.561L182.562 180.691L180.872 182.812L179.839 181.989L183.878 176.922L184.91 177.745L183.325 179.734L185.671 181.604L187.256 179.614ZM192.549 187.991C192.474 188.085 192.375 188.196 192.253 188.323L188.143 185.047C187.881 185.504 187.794 185.961 187.879 186.418C187.971 186.88 188.224 187.275 188.637 187.605C188.837 187.764 189.047 187.886 189.267 187.969C189.492 188.046 189.713 188.084 189.929 188.082C190.156 188.079 190.376 188.034 190.588 187.948L191.686 188.823C191.057 189.201 190.402 189.369 189.719 189.327C189.042 189.278 188.422 189.029 187.859 188.58C187.114 187.987 186.694 187.238 186.597 186.332C186.507 185.431 186.763 184.603 187.367 183.846C187.97 183.089 188.721 182.654 189.619 182.541C190.523 182.433 191.348 182.676 192.092 183.269C192.599 183.673 192.952 184.154 193.152 184.712C193.356 185.264 193.403 185.828 193.292 186.404C193.185 186.974 192.938 187.503 192.549 187.991ZM191.344 184.207C190.956 183.898 190.538 183.744 190.088 183.743C189.644 183.748 189.227 183.906 188.835 184.218L191.903 186.663C192.045 186.357 192.117 186.056 192.117 185.76C192.123 185.457 192.057 185.174 191.919 184.911C191.792 184.646 191.601 184.412 191.344 184.207ZM196.747 193.853L197.404 194.377L195.601 196.639L194.653 195.883L195.67 194.607L191.973 191.66L190.956 192.936L190.008 192.181L191.811 189.919L192.346 190.346C192.584 190.342 192.838 190.247 193.108 190.063C193.384 189.884 193.75 189.572 194.206 189.128C194.668 188.677 195.395 187.932 196.387 186.892L200 189.771L196.747 193.853ZM196.574 188.545C195.692 189.509 195.031 190.179 194.589 190.553C194.148 190.928 193.763 191.148 193.434 191.213L195.724 193.038L198.244 189.876L196.574 188.545ZM202.416 198.955C201.504 199.047 200.66 198.783 199.885 198.165C199.109 197.547 198.661 196.781 198.54 195.866C198.431 194.951 198.681 194.111 199.289 193.348C199.688 192.848 200.165 192.486 200.721 192.264C201.283 192.047 201.86 191.99 202.452 192.094C203.056 192.197 203.611 192.45 204.118 192.854C204.625 193.258 204.992 193.74 205.221 194.3C205.46 194.86 205.534 195.435 205.441 196.026C205.355 196.622 205.112 197.171 204.713 197.671C204.105 198.434 203.339 198.862 202.416 198.955ZM200.677 197.17C200.996 197.425 201.336 197.583 201.696 197.645C202.061 197.7 202.412 197.658 202.749 197.517C203.097 197.375 203.399 197.145 203.653 196.826C204.037 196.344 204.197 195.822 204.134 195.26C204.076 194.703 203.807 194.232 203.325 193.849C202.843 193.465 202.321 193.304 201.759 193.368C201.203 193.436 200.734 193.711 200.35 194.193C199.966 194.675 199.802 195.194 199.86 195.751C199.923 196.314 200.196 196.787 200.677 197.17ZM205.987 203.029C205.236 202.43 204.806 201.673 204.697 200.758C204.599 199.841 204.849 199.007 205.448 198.256C206.051 197.499 206.808 197.069 207.718 196.967C208.635 196.869 209.472 197.121 210.229 197.725C210.849 198.218 211.247 198.822 211.424 199.537C211.602 200.251 211.528 200.954 211.202 201.645L210.169 200.823C210.267 200.43 210.25 200.048 210.117 199.676C209.988 199.298 209.759 198.976 209.427 198.712C209.133 198.478 208.807 198.335 208.448 198.285C208.089 198.234 207.736 198.28 207.388 198.421C207.05 198.562 206.757 198.789 206.508 199.101C206.134 199.571 205.973 200.087 206.025 200.65C206.078 201.214 206.329 201.675 206.779 202.034C207.111 202.298 207.472 202.448 207.863 202.484C208.261 202.524 208.653 202.443 209.04 202.24L210.091 203.077C209.473 203.557 208.789 203.794 208.036 203.788C207.295 203.78 206.612 203.527 205.987 203.029ZM217.641 203.832L216.893 204.77L215.11 203.349L211.819 207.478L210.806 206.67L214.097 202.541L212.304 201.113L213.052 200.174L217.641 203.832ZM222.168 207.44L223.285 208.33L216.844 211.636C216.036 212.046 215.379 212.254 214.873 212.26C214.369 212.277 213.863 212.084 213.356 211.68L212.84 211.268L213.588 210.33L214.02 210.674C214.351 210.938 214.648 211.067 214.909 211.06C215.17 211.054 215.559 210.919 216.076 210.655L216.375 210.511L217.917 204.052L219.053 204.957L217.838 209.773L222.168 207.44ZM224.118 208.994L228.538 212.516L224.499 217.584L223.467 216.761L226.75 212.641L224.404 210.772L221.121 214.891L220.079 214.061L224.118 208.994ZM233.398 216.39L234.421 217.205L230.382 222.273L229.359 221.457L231.049 219.337L228.703 217.467L227.013 219.587L225.981 218.765L230.019 213.697L231.052 214.52L229.466 216.51L231.812 218.379L233.398 216.39ZM236.635 226.228C235.723 226.32 234.879 226.057 234.103 225.438C233.328 224.82 232.88 224.054 232.759 223.139C232.65 222.224 232.9 221.384 233.508 220.621C233.907 220.121 234.384 219.759 234.94 219.537C235.502 219.32 236.079 219.263 236.671 219.367C237.275 219.47 237.83 219.723 238.337 220.127C238.843 220.531 239.211 221.013 239.439 221.574C239.679 222.133 239.753 222.708 239.66 223.299C239.574 223.895 239.331 224.444 238.932 224.944C238.324 225.707 237.558 226.135 236.635 226.228ZM234.896 224.444C235.215 224.698 235.555 224.856 235.915 224.918C236.28 224.973 236.631 224.931 236.968 224.79C237.316 224.648 237.617 224.418 237.872 224.099C238.256 223.617 238.416 223.095 238.352 222.533C238.295 221.976 238.026 221.506 237.544 221.122C237.062 220.738 236.54 220.577 235.978 220.641C235.422 220.709 234.952 220.985 234.568 221.466C234.185 221.948 234.021 222.467 234.078 223.024C234.142 223.587 234.415 224.06 234.896 224.444Z" fill="#222127"/>
  <path d="M313.393 277.693L318.32 281.619L313.084 288.188L311.995 287.32L316.431 281.756L313.672 279.557L309.237 285.121L308.157 284.261L313.393 277.693ZM319.359 292.161C318.447 292.253 317.604 291.99 316.828 291.371C316.052 290.753 315.604 289.987 315.484 289.072C315.375 288.157 315.624 287.317 316.232 286.554C316.631 286.054 317.109 285.692 317.664 285.47C318.226 285.253 318.803 285.196 319.396 285.3C319.999 285.403 320.554 285.656 321.061 286.06C321.568 286.464 321.935 286.946 322.164 287.507C322.403 288.066 322.477 288.641 322.384 289.232C322.298 289.828 322.055 290.377 321.656 290.877C321.048 291.64 320.282 292.068 319.359 292.161ZM317.621 290.377C317.94 290.631 318.279 290.789 318.639 290.851C319.004 290.906 319.355 290.864 319.692 290.723C320.04 290.581 320.342 290.351 320.596 290.032C320.98 289.55 321.14 289.028 321.077 288.466C321.019 287.909 320.75 287.439 320.268 287.055C319.787 286.671 319.265 286.511 318.703 286.574C318.147 286.642 317.677 286.918 317.293 287.399C316.909 287.881 316.746 288.4 316.803 288.958C316.866 289.52 317.139 289.993 317.621 290.377ZM323.937 296.838L324.137 293.468L323.509 292.967L321.788 295.125L320.747 294.295L324.786 289.228L325.827 290.058L324.264 292.019L324.902 292.528L327.845 291.666L329.074 292.646L325.42 293.708L325.223 297.863L323.937 296.838ZM334.058 296.618L334.865 297.262L330.826 302.329L329.982 301.656L330.372 300.954C329.49 301.06 328.683 300.821 327.952 300.237C327.195 299.634 326.765 298.877 326.662 297.966C326.565 297.061 326.819 296.229 327.422 295.472C328.03 294.709 328.784 294.277 329.683 294.175C330.594 294.072 331.428 294.322 332.185 294.926C332.929 295.519 333.346 296.26 333.435 297.15L334.058 296.618ZM328.002 297.883C328.071 298.45 328.344 298.923 328.819 299.302C329.301 299.686 329.82 299.844 330.376 299.775C330.943 299.706 331.416 299.433 331.795 298.958C332.179 298.476 332.339 297.954 332.275 297.392C332.218 296.835 331.949 296.364 331.467 295.98C331.154 295.731 330.812 295.576 330.441 295.516C330.076 295.46 329.72 295.503 329.371 295.645C329.028 295.78 328.732 296.005 328.482 296.317C328.103 296.793 327.943 297.315 328.002 297.883ZM342.093 303.022L343.116 303.838L339.077 308.905L338.054 308.09L339.745 305.969L337.399 304.099L335.708 306.22L334.676 305.397L338.715 300.33L339.747 301.153L338.162 303.142L340.508 305.012L342.093 303.022ZM347.385 311.399C347.311 311.493 347.212 311.604 347.09 311.731L342.98 308.455C342.718 308.912 342.63 309.369 342.716 309.826C342.808 310.288 343.061 310.684 343.474 311.013C343.674 311.172 343.884 311.294 344.104 311.377C344.329 311.454 344.549 311.492 344.766 311.49C344.993 311.487 345.213 311.442 345.425 311.356L346.523 312.231C345.894 312.609 345.238 312.777 344.556 312.735C343.879 312.686 343.259 312.437 342.696 311.989C341.951 311.395 341.531 310.646 341.434 309.74C341.344 308.839 341.6 308.011 342.204 307.254C342.807 306.497 343.558 306.062 344.456 305.949C345.36 305.841 346.184 306.084 346.929 306.677C347.436 307.081 347.789 307.562 347.989 308.12C348.193 308.672 348.24 309.236 348.128 309.812C348.022 310.382 347.774 310.911 347.385 311.399ZM346.181 307.616C345.793 307.306 345.374 307.152 344.925 307.151C344.481 307.156 344.063 307.314 343.672 307.626L346.74 310.071C346.882 309.765 346.953 309.464 346.954 309.168C346.96 308.865 346.894 308.583 346.756 308.319C346.629 308.055 346.438 307.82 346.181 307.616ZM351.583 317.262L352.24 317.785L350.438 320.047L349.49 319.291L350.507 318.015L346.81 315.068L345.793 316.344L344.845 315.589L346.647 313.327L347.182 313.754C347.421 313.75 347.675 313.655 347.945 313.471C348.22 313.292 348.587 312.98 349.043 312.536C349.504 312.085 350.231 311.34 351.224 310.3L354.837 313.179L351.583 317.262ZM351.411 311.953C350.529 312.917 349.868 313.587 349.426 313.961C348.984 314.336 348.599 314.556 348.271 314.621L350.561 316.446L353.081 313.284L351.411 311.953ZM357.253 322.363C356.341 322.455 355.497 322.192 354.721 321.573C353.946 320.955 353.498 320.189 353.377 319.274C353.268 318.359 353.518 317.519 354.126 316.756C354.525 316.256 355.002 315.894 355.558 315.672C356.12 315.455 356.697 315.398 357.289 315.502C357.893 315.605 358.448 315.858 358.955 316.262C359.461 316.666 359.829 317.148 360.057 317.709C360.297 318.268 360.371 318.843 360.278 319.434C360.192 320.03 359.949 320.579 359.55 321.079C358.942 321.842 358.176 322.27 357.253 322.363ZM355.514 320.579C355.833 320.833 356.173 320.991 356.533 321.053C356.898 321.108 357.249 321.066 357.586 320.925C357.934 320.783 358.235 320.553 358.49 320.234C358.874 319.752 359.034 319.23 358.97 318.668C358.913 318.111 358.644 317.641 358.162 317.257C357.68 316.873 357.158 316.712 356.596 316.776C356.04 316.844 355.57 317.12 355.186 317.601C354.803 318.083 354.639 318.602 354.696 319.16C354.76 319.722 355.033 320.195 355.514 320.579ZM360.823 326.437C360.073 325.838 359.643 325.081 359.534 324.166C359.436 323.249 359.686 322.415 360.284 321.664C360.888 320.907 361.645 320.477 362.555 320.375C363.472 320.277 364.309 320.529 365.066 321.133C365.685 321.626 366.084 322.23 366.261 322.945C366.439 323.659 366.364 324.362 366.038 325.053L365.006 324.231C365.104 323.838 365.087 323.456 364.953 323.084C364.825 322.706 364.595 322.384 364.264 322.12C363.97 321.886 363.643 321.743 363.285 321.693C362.926 321.642 362.573 321.688 362.224 321.829C361.887 321.97 361.594 322.197 361.345 322.51C360.971 322.979 360.81 323.495 360.862 324.058C360.914 324.622 361.166 325.083 361.616 325.442C361.948 325.706 362.309 325.856 362.7 325.892C363.098 325.932 363.49 325.851 363.877 325.648L364.928 326.485C364.31 326.965 363.625 327.202 362.873 327.196C362.132 327.188 361.449 326.935 360.823 326.437ZM372.478 327.24L371.73 328.178L369.947 326.757L366.656 330.886L365.643 330.078L368.933 325.949L367.141 324.521L367.889 323.582L372.478 327.24ZM377.005 330.848L378.122 331.738L371.681 335.044C370.873 335.454 370.216 335.662 369.71 335.668C369.206 335.685 368.7 335.492 368.193 335.088L367.677 334.677L368.425 333.738L368.857 334.082C369.188 334.346 369.484 334.475 369.746 334.469C370.007 334.462 370.396 334.327 370.912 334.063L371.212 333.919L372.754 327.46L373.889 328.365L372.674 333.181L377.005 330.848ZM378.955 332.402L383.374 335.924L379.336 340.992L378.303 340.169L381.587 336.05L379.241 334.18L375.957 338.299L374.916 337.469L378.955 332.402ZM388.235 339.798L389.257 340.613L385.219 345.681L384.196 344.865L385.886 342.745L383.54 340.875L381.85 342.996L380.817 342.173L384.856 337.105L385.889 337.928L384.303 339.918L386.649 341.787L388.235 339.798ZM391.472 349.636C390.56 349.728 389.716 349.465 388.94 348.846C388.164 348.228 387.716 347.462 387.596 346.547C387.487 345.632 387.737 344.792 388.345 344.029C388.744 343.529 389.221 343.167 389.777 342.945C390.338 342.728 390.916 342.671 391.508 342.775C392.112 342.878 392.667 343.131 393.173 343.535C393.68 343.939 394.048 344.421 394.276 344.982C394.516 345.541 394.589 346.116 394.497 346.707C394.41 347.303 394.168 347.852 393.769 348.352C393.161 349.115 392.395 349.543 391.472 349.636ZM389.733 347.852C390.052 348.106 390.392 348.264 390.752 348.326C391.116 348.381 391.467 348.339 391.805 348.198C392.153 348.057 392.454 347.826 392.708 347.507C393.092 347.025 393.253 346.503 393.189 345.941C393.132 345.384 392.862 344.914 392.381 344.53C391.899 344.146 391.377 343.986 390.815 344.049C390.259 344.117 389.789 344.393 389.405 344.874C389.021 345.356 388.858 345.875 388.915 346.433C388.979 346.995 389.251 347.468 389.733 347.852Z" fill="#222127"/>
  </svg>
  