<svg width="18" height="18" viewBox="0 0 18 18" fill="none" xmlns="http://www.w3.org/2000/svg">
  <path d="M9 15.75C12.7279 15.75 15.75 12.7279 15.75 9C15.75 5.27208 12.7279 2.25 9 2.25C5.27208 2.25 2.25 5.27208 2.25 9C2.25 12.7279 5.27208 15.75 9 15.75Z" stroke="#222127" stroke-linecap="round" stroke-linejoin="round"/>
  <path d="M7.44609 6.65837C7.59775 6.30024 7.86846 6.00549 8.21242 5.82397C8.55638 5.64246 8.95247 5.58532 9.33371 5.66223C9.71495 5.73914 10.0579 5.94537 10.3046 6.24604C10.5513 6.54671 10.6865 6.92336 10.6875 7.31228C10.689 7.64828 10.5885 7.97683 10.3992 8.25446V8.25446L7.3125 12.3748H10.6875" stroke="#222127" stroke-linecap="round" stroke-linejoin="round"/>
  </svg>
  