<svg width="18" height="18" viewBox="0 0 18 18" fill="none" xmlns="http://www.w3.org/2000/svg">
  <path d="M9 15.75C12.7279 15.75 15.75 12.7279 15.75 9C15.75 5.27208 12.7279 2.25 9 2.25C5.27208 2.25 2.25 5.27208 2.25 9C2.25 12.7279 5.27208 15.75 9 15.75Z" stroke="#222127" stroke-linecap="round" stroke-linejoin="round"/>
  <path d="M7.3125 5.90625H10.6875L8.71875 8.71875C9.0425 8.71877 9.36125 8.79864 9.64677 8.95127C9.93228 9.1039 10.1758 9.32459 10.3556 9.59379C10.5355 9.86299 10.6462 10.1724 10.6779 10.4946C10.7096 10.8168 10.6614 11.1418 10.5375 11.4409C10.4136 11.74 10.2178 12.004 9.96758 12.2094C9.71731 12.4147 9.42026 12.5552 9.10273 12.6184C8.7852 12.6816 8.45699 12.6655 8.14718 12.5715C7.83736 12.4775 7.5555 12.3086 7.32656 12.0797" stroke="#222127" stroke-linecap="round" stroke-linejoin="round"/>
  </svg>
  